<svg width="240" height="270" viewBox="0 0 240 270" fill="none" xmlns="http://www.w3.org/2000/svg">
<path d="M203.478 48.75C183.287 48.75 166.957 60.4875 166.957 75V226.875C166.957 248.587 142.383 266.25 112.174 266.25C81.9652 266.25 57.3913 248.587 57.3913 226.875V168.75H62.6087V150H57.3913V142.5H67.8261C70.6957 142.5 73.0435 140.812 73.0435 138.75V135.113C73.0435 132.675 74.6609 130.425 77.4261 129L92 119.213C100.191 115.013 105.096 108.187 105.096 100.912V11.25C105.096 5.025 98.1043 0 89.4435 0H15.6522C6.9913 0 0 5.025 0 11.25V100.912C0 108.187 4.90435 115.013 13.0957 119.213L32.1391 129C34.9043 130.425 36.5217 132.675 36.5217 135.113V138.75C36.5217 140.812 38.8696 142.5 41.7391 142.5H52.1739V150H46.9565V168.75H52.1739V226.875C52.1739 250.65 79.0957 270 112.174 270C145.252 270 172.174 250.65 172.174 226.875V75C172.174 62.5875 186.209 52.5 203.478 52.5C220.748 52.5 234.783 62.5875 234.783 75V146.25L237.391 157.5L240 146.25V75C240 60.4875 223.67 48.75 203.478 48.75ZM5.21739 45V11.25C5.21739 7.125 9.91304 3.75 15.6522 3.75H89.4435C95.1826 3.75 99.8783 7.125 99.8783 11.25V45H5.21739Z" fill="#AC4141"/>
<path d="M25 98.9369C25.0024 101.477 26.0175 103.913 27.8226 105.709C29.6277 107.505 32.0752 108.515 34.628 108.518H72.7456C74.4326 108.519 76.0903 108.078 77.5525 107.241C79.0148 106.404 80.2303 105.199 81.0773 103.747C81.9244 102.296 82.3732 100.648 82.3789 98.9691C82.3845 97.2903 81.9468 95.6396 81.1096 94.1822L61.0378 59.2399C60.2962 57.9517 59.2259 56.8811 57.9351 56.1366C56.6443 55.3921 55.1788 55 53.6868 55C52.1948 55 50.7293 55.3921 49.4385 56.1366C48.1477 56.8811 47.0774 57.9517 46.3358 59.2399L26.273 94.1822C25.4407 95.6301 25.0019 97.2688 25 98.9369ZM30.9346 96.8405L50.9974 61.8983C51.2674 61.4253 51.6585 61.0319 52.1309 60.7583C52.6033 60.4846 53.1402 60.3404 53.6868 60.3404C54.2334 60.3404 54.7703 60.4846 55.2427 60.7583C55.7152 61.0319 56.1063 61.4253 56.3762 61.8983L76.439 96.8405C76.8081 97.4838 77.0009 98.2123 76.998 98.9531C76.9951 99.6939 76.7968 100.421 76.4228 101.061C76.0487 101.702 75.5122 102.233 74.8669 102.603C74.2215 102.972 73.49 103.166 72.7456 103.165H34.628C33.8836 103.166 33.1521 102.972 32.5068 102.603C31.8614 102.233 31.3249 101.702 30.9509 101.061C30.5768 100.421 30.3785 99.6939 30.3756 98.9531C30.3728 98.2123 30.5655 97.4838 30.9346 96.8405Z" fill="#FFF0E8"/>
<path d="M56.3762 73.7272H50.9974V88.0002H56.3762V73.7272Z" fill="#FFF0E8"/>
<path d="M53.6868 97.813C55.1721 97.813 56.3762 96.6148 56.3762 95.1368C56.3762 93.6587 55.1721 92.4606 53.6868 92.4606C52.2015 92.4606 50.9974 93.6587 50.9974 95.1368C50.9974 96.6148 52.2015 97.813 53.6868 97.813Z" fill="#FFF0E8"/>
</svg>
