<svg width="240" height="276" viewBox="0 0 240 276" fill="none" xmlns="http://www.w3.org/2000/svg">
<path d="M73.5997 214.455H3.63636C1.62805 214.455 0 212.924 0 211.035C0 209.147 1.62805 207.616 3.63636 207.616H76.3636C77.9971 207.616 79.4301 208.64 79.8673 210.12L97.3093 269.162H142.691L160.133 210.12C160.57 208.64 162.003 207.616 163.636 207.616H236.364C238.372 207.616 240 209.147 240 211.035C240 212.924 238.372 214.455 236.364 214.455H166.4L148.958 273.496C148.521 274.976 147.088 276 145.455 276H94.5455C92.912 276 91.479 274.976 91.0418 273.496L73.5997 214.455ZM56.3636 241.808C53.3512 241.808 50.9091 239.512 50.9091 236.679C50.9091 233.847 53.3512 231.551 56.3636 231.551C59.3761 231.551 61.8182 233.847 61.8182 236.679C61.8182 239.512 59.3761 241.808 56.3636 241.808ZM16.3636 245.227C13.3512 245.227 10.9091 242.931 10.9091 240.098C10.9091 237.266 13.3512 234.97 16.3636 234.97C19.3761 234.97 21.8182 237.266 21.8182 240.098C21.8182 242.931 19.3761 245.227 16.3636 245.227ZM45.4545 272.581C42.4421 272.581 40 270.285 40 267.452C40 264.619 42.4421 262.323 45.4545 262.323C48.467 262.323 50.9091 264.619 50.9091 267.452C50.9091 270.285 48.467 272.581 45.4545 272.581ZM180 269.162C176.988 269.162 174.545 266.865 174.545 264.033C174.545 261.2 176.988 258.904 180 258.904C183.012 258.904 185.455 261.2 185.455 264.033C185.455 266.865 183.012 269.162 180 269.162ZM198.182 238.389C195.169 238.389 192.727 236.093 192.727 233.26C192.727 230.428 195.169 228.131 198.182 228.131C201.194 228.131 203.636 230.428 203.636 233.26C203.636 236.093 201.194 238.389 198.182 238.389ZM227.273 255.485C224.26 255.485 221.818 253.189 221.818 250.356C221.818 247.524 224.26 245.227 227.273 245.227C230.285 245.227 232.727 247.524 232.727 250.356C232.727 253.189 230.285 255.485 227.273 255.485Z" fill="#649973"/>
<path d="M165.873 32.5843L71.9578 24.0533C71.2736 23.9911 70.8441 24.4539 70.6566 24.7474C70.4454 25.0781 70.3323 25.482 70.3049 25.8816C70.2775 26.2812 70.3342 26.7005 70.4972 27.0652C70.6414 27.3877 71.002 27.9254 71.6882 27.9877L165.605 36.5189C166.289 36.581 166.719 36.1171 166.906 35.8245C167.117 35.4937 167.23 35.0894 167.258 34.6886C167.285 34.2878 167.228 33.8677 167.064 33.5025C166.917 33.1772 166.555 32.6463 165.873 32.5843Z" fill="#649973" stroke="#649973" stroke-width="2"/>
<path d="M70.6531 43.0947L70.6531 43.0947L70.6464 43.0941C69.9657 43.0369 69.5388 43.4974 69.3515 43.791C69.1406 44.1216 69.0275 44.5252 69.0001 44.925C68.9727 45.3246 69.0294 45.7439 69.1924 46.1086C69.3366 46.4311 69.6972 46.9688 70.3834 47.0311L97.217 49.4686C97.9015 49.5308 98.3309 49.0669 98.5179 48.7742C98.7291 48.4434 98.8426 48.0391 98.8701 47.6383C98.8975 47.2382 98.841 46.8185 98.6776 46.4534C98.5324 46.1293 98.1712 45.5944 97.4867 45.5322L70.6531 43.0947Z" fill="#649973" stroke="#649973" stroke-width="2"/>
<path d="M124.114 47.9509L110.697 46.7322C110.012 46.67 109.583 47.1339 109.396 47.4266C109.185 47.7573 109.071 48.1616 109.044 48.5625C109.016 48.9625 109.073 49.3822 109.236 49.7473C109.381 50.0715 109.743 50.6064 110.427 50.6686L123.844 51.8873C124.528 51.9495 124.958 51.4856 125.145 51.1929C125.356 50.8622 125.47 50.4579 125.497 50.057C125.524 49.6562 125.467 49.2364 125.304 48.8716C125.159 48.5488 124.798 48.0131 124.114 47.9509Z" fill="#649973" stroke="#649973" stroke-width="2"/>
<path d="M116.306 66.4016L69.3483 62.1361C68.6639 62.0739 68.2343 62.537 68.0468 62.831C67.8356 63.162 67.7227 63.5663 67.6953 63.9664C67.6679 64.366 67.7246 64.7853 67.8876 65.15C68.0318 65.4725 68.3924 66.0102 69.0786 66.0725L116.036 70.338C116.721 70.4002 117.15 69.9363 117.337 69.6436C117.548 69.3129 117.662 68.9086 117.689 68.5077C117.717 68.1069 117.66 67.6871 117.496 67.3223C117.352 66.9995 116.991 66.4638 116.306 66.4016Z" fill="#649973" stroke="#649973" stroke-width="2"/>
<rect x="-3.24623" y="-3.80821" width="137.707" height="89.0849" rx="18.5" transform="matrix(0.995905 0.0904032 -0.0684105 0.997657 55.3378 6.28455)" stroke="#649973" stroke-width="7"/>
<path d="M125.007 103.375C125.007 101.166 123.216 99.375 121.007 99.375C118.798 99.375 117.007 101.166 117.007 103.375L125.007 103.375ZM118.179 184.455C119.741 186.017 122.274 186.017 123.836 184.455L149.291 158.999C150.854 157.437 150.854 154.905 149.291 153.343C147.729 151.78 145.197 151.78 143.635 153.343L121.007 175.97L98.3798 153.343C96.8177 151.78 94.285 151.78 92.7229 153.343C91.1608 154.905 91.1608 157.437 92.7229 158.999L118.179 184.455ZM117.007 103.375L117.007 181.627L125.007 181.627L125.007 103.375L117.007 103.375Z" fill="#649973"/>
</svg>
