<svg width="240" height="274" viewBox="0 0 240 274" fill="none" xmlns="http://www.w3.org/2000/svg">
<path d="M116 270C116 272.209 117.791 274 120 274C122.209 274 124 272.209 124 270L116 270ZM122.828 205.593C121.266 204.031 118.734 204.031 117.172 205.593L91.7157 231.048C90.1536 232.611 90.1536 235.143 91.7157 236.705C93.2778 238.267 95.8105 238.267 97.3726 236.705L120 214.078L142.627 236.705C144.19 238.267 146.722 238.267 148.284 236.705C149.846 235.143 149.846 232.611 148.284 231.048L122.828 205.593ZM124 270L124 208.421L116 208.421L116 270L124 270Z" fill="#649973"/>
<path d="M181.458 35.5H58.8357C57.3274 35.5 56.6538 36.8938 56.6538 37.857C56.6538 38.816 57.3241 40.2158 58.8357 40.2158H181.46C182.967 40.2158 183.642 38.822 183.642 37.857C183.642 36.8857 182.961 35.5 181.458 35.5Z" fill="#649973" stroke="#649973" stroke-width="3"/>
<path d="M84.8223 57.5698V57.5698L84.8154 57.5698C83.3146 57.5767 82.6404 58.9623 82.6404 59.9286C82.6404 60.8875 83.3106 62.2873 84.8223 62.2873H119.858C121.365 62.2873 122.04 60.8935 122.04 59.9286C122.04 58.9658 121.368 57.5698 119.858 57.5698H84.8223Z" fill="#649973" stroke="#649973" stroke-width="3"/>
<path d="M155.889 57.5698H138.371C136.864 57.5698 136.189 58.9636 136.189 59.9286C136.189 60.8914 136.861 62.2873 138.371 62.2873H155.889C157.396 62.2873 158.071 60.8935 158.071 59.9286C158.071 58.9636 157.396 57.5698 155.889 57.5698Z" fill="#649973" stroke="#649973" stroke-width="3"/>
<path d="M150.859 79.6397H89.5473C88.0373 79.6397 87.3654 81.0357 87.3654 81.9985C87.3654 82.9574 88.0356 84.3572 89.5473 84.3572H150.859C152.365 84.3572 153.04 82.9634 153.04 81.9985C153.04 81.0335 152.365 79.6397 150.859 79.6397Z" fill="#649973" stroke="#649973" stroke-width="3"/>
<path d="M5.455 8.57414e-05C2.59909 0.000326889 0.000747019 2.29774 0.000470201 4.82289V45.817C-0.0402724 48.365 2.57302 50.7085 5.455 50.7085C8.33698 50.7085 10.9503 48.365 10.9095 45.817V9.6457H229.091V108.514H10.9095V65.1084C10.9503 62.5604 8.33698 60.2168 5.455 60.2168C2.57302 60.2168 -0.0402738 62.5604 0.000470201 65.1084V144.685C0.000732564 147.21 2.59908 149.508 5.455 149.508H81.8185V173.622C71.6672 173.622 61.419 173.622 51.3072 173.622C48.4512 173.74 45.9744 176.146 46.1083 178.671C46.2422 181.196 48.9625 183.386 51.8185 183.268H188.182C191.063 183.301 193.711 180.992 193.711 178.445C193.711 175.898 191.063 173.588 188.182 173.622H158.182V149.508H234.545C237.401 149.508 240 147.21 240 144.685V4.82289C240.012 2.44158 237.738 0.223533 235.057 8.57414e-05C158.568 -0.000107177 81.9797 8.57414e-05 5.455 8.57414e-05ZM10.9095 118.159H229.091V139.862H10.9095V118.159ZM92.7275 149.508H147.273V173.622H92.7275V149.508Z" fill="#649973"/>
</svg>
