<svg width="240" height="270" viewBox="0 0 240 270" fill="none" xmlns="http://www.w3.org/2000/svg">
<path d="M74.176 69.1601C76.8546 71.9743 79.6549 74.896 82.532 77.8745C85.4076 80.8515 88.3583 83.8846 91.337 86.9215C91.3406 86.9251 91.3445 86.9294 91.348 86.9329C110.959 107.122 107.821 105.584 115.067 112.907L120.264 118.097C122.111 119.981 124.981 120.819 127.564 120.24C129.197 119.874 130.511 118.989 131.199 117.762C132.123 116.156 130.763 114.268 130.427 113.849L83.4191 60.5731L91.8479 71.8172C91.7333 78.1187 93.6142 72.1279 93.6066 72.1192L73.4081 44.9111C73.3264 45.0873 73.2419 45.2701 73.1535 45.4546C72.5909 46.5855 71.9494 47.642 71.2701 48.6588C71.0632 48.9688 70.8412 49.2593 70.6241 49.5582C70.108 50.2683 69.5664 50.9455 68.9956 51.5907C68.7478 51.8709 68.5044 52.153 68.247 52.4202C67.5267 53.1684 66.7734 53.8687 65.9819 54.5134C65.8721 54.603 65.773 54.7084 65.6617 54.7957C64.7596 55.5055 63.808 56.1293 62.8275 56.6985C62.7305 56.7546 62.6449 56.8317 62.5472 56.8866C66.0427 60.6128 69.9672 64.7503 74.176 69.1601ZM67.0605 24.064C67.0385 24.0175 67.0168 23.9686 66.9951 23.9197C66.9579 23.842 66.9163 23.7564 66.8773 23.6665C65.2948 20.3923 62.8506 17.7 59.7737 15.8547C59.3824 15.614 58.9634 15.3994 58.2767 15.0414C57.8638 14.8231 57.416 14.6416 56.8394 14.4452C54.5869 13.5806 52.1919 13.2526 49.6408 13.4802C48.9544 13.524 48.2855 13.6564 47.6495 13.7873C44.3349 14.4781 41.3157 16.2133 39.0382 18.6607C38.9218 18.8261 38.7957 18.9828 38.6626 19.1263C37.6793 20.2031 36.8111 21.4923 36.0385 23.0023C34.1824 26.7534 33.6401 30.956 34.4669 35.1535C35.5166 40.4876 38.6883 45.1139 43.1681 47.8515C46.6683 49.8954 50.6675 50.6938 54.4277 50.0795C54.4557 50.0748 54.4838 50.0701 54.5118 50.0654C54.563 50.0528 54.6155 50.0428 54.6659 50.0348C59.9203 49.1232 64.5271 45.6256 66.9413 40.7769C67.4349 39.7325 67.7556 38.9246 68.0176 38.0116C68.2261 37.3651 68.4107 36.7193 68.5549 35.981C69.3536 32.0317 68.8236 27.7995 67.0605 24.064Z" fill="#A25326"/>
<path d="M235.274 161.637H160.049C153.551 161.637 147.446 164.887 143.655 170.422C139.865 175.957 138.978 183.015 141.194 189.413L150.351 215.361C154.585 227.498 151.631 241.157 142.868 250.145L142.818 250.196C137.009 256.391 128.788 259.895 120.172 259.895C111.902 259.895 103.828 256.391 97.4277 250.094C91.3231 243.798 87.9754 235.47 87.9754 226.685C87.9754 222.775 88.6154 218.967 89.9446 215.311L99.1015 189.312C101.317 182.964 100.382 175.906 96.5908 170.371C92.8492 164.836 86.6954 161.586 80.1969 161.586H4.92308C2.21539 161.586 0 163.871 0 166.664C0 169.457 2.21539 171.742 4.92308 171.742H80.1477C83.4954 171.742 86.5477 173.316 88.4677 176.211C90.4369 179.054 90.88 182.609 89.7477 185.859L80.5908 211.756C78.8677 216.479 77.9815 221.506 77.9815 226.634C77.9815 238.111 82.3631 248.977 90.3385 257.254L90.3877 257.305C98.6092 265.481 109.145 270 119.975 270C131.2 270 142.031 265.328 149.662 257.204C161.083 245.423 164.923 227.599 159.409 211.807L150.252 185.859C149.12 182.558 149.563 179.054 151.532 176.211C153.502 173.367 156.505 171.742 159.852 171.742H235.077C237.785 171.742 240 169.457 240 166.664C240 163.871 237.982 161.637 235.274 161.637Z" fill="#A15326"/>
<path d="M95.3106 239.228C97.0337 242.173 99.2491 244.864 102.351 247.708C102.449 247.809 102.548 247.911 102.646 247.962C107.864 252.024 114.314 254.157 120.664 254.157C125.341 254.157 129.969 253.039 134.104 250.805C144.197 245.27 150.154 233.337 148.628 221.709C147.544 214.143 143.704 207.744 139.963 201.6C136.074 195.202 132.431 189.159 132.874 182.964C132.874 182.913 132.874 182.863 132.874 182.812C133.071 177.632 136.172 172.656 139.52 168.086C139.52 168.086 139.52 168.035 139.569 168.035C141.292 165.648 143.114 163.16 144.886 160.824C148.923 155.391 153.157 149.805 156.603 143.763C160.837 136.45 165.514 125.177 163.84 112.533C163.544 110.096 161.477 108.319 159.015 108.319C156.504 108.319 154.437 110.096 154.141 112.635C152.369 127.158 140.603 138.481 129.181 149.45L128.246 150.313C121.944 156.305 114.855 163.668 109.981 172.859C106.831 178.851 104.812 185.249 102.843 191.393C100.677 198.299 98.6091 204.799 95.1137 210.588C90.0429 218.916 90.0922 230.138 95.3106 239.228ZM103.483 216.021C107.618 209.166 109.932 201.752 112.197 194.593C114.068 188.601 115.889 182.913 118.597 177.734C122.683 170.066 128.837 163.566 134.498 158.184C133.514 159.453 132.578 160.774 131.692 162.043C127.409 167.933 123.421 174.433 123.126 182.355C122.486 191.85 127.163 199.569 131.692 207.033C135.04 212.518 138.191 217.748 138.929 223.181C139.914 230.493 135.975 238.364 129.526 241.868C123.175 245.321 114.708 244.61 108.8 240.091C106.535 237.958 104.96 236.079 103.778 234.048C100.431 228.259 100.332 221.15 103.483 216.021Z" fill="#A15326"/>
</svg>
