<svg width="240" height="270" viewBox="0 0 240 270" fill="none" xmlns="http://www.w3.org/2000/svg">
<path d="M74.176 69.1601C76.8546 71.9743 79.6549 74.896 82.532 77.8745C85.4076 80.8515 88.3583 83.8846 91.337 86.9215C91.3406 86.9251 91.3445 86.9294 91.348 86.9329C110.959 107.122 107.821 105.584 115.067 112.907L120.264 118.097C122.111 119.981 124.981 120.819 127.564 120.24C129.197 119.874 130.511 118.989 131.199 117.762C132.123 116.156 130.763 114.268 130.427 113.849L83.4191 60.5731L91.8479 71.8172C91.7333 78.1187 93.6142 72.1279 93.6066 72.1192L73.4081 44.9111C73.3264 45.0873 73.2419 45.2701 73.1535 45.4546C72.5909 46.5855 71.9494 47.642 71.2701 48.6588C71.0632 48.9688 70.8412 49.2593 70.6241 49.5582C70.108 50.2683 69.5664 50.9455 68.9956 51.5907C68.7478 51.8709 68.5044 52.153 68.247 52.4202C67.5267 53.1684 66.7734 53.8687 65.9819 54.5134C65.8721 54.603 65.773 54.7084 65.6617 54.7957C64.7596 55.5055 63.808 56.1293 62.8275 56.6985C62.7305 56.7546 62.6449 56.8317 62.5472 56.8866C66.0427 60.6128 69.9672 64.7503 74.176 69.1601ZM67.0605 24.064C67.0385 24.0175 67.0168 23.9686 66.9951 23.9197C66.9579 23.842 66.9163 23.7564 66.8773 23.6665C65.2948 20.3923 62.8506 17.7 59.7737 15.8547C59.3824 15.614 58.9634 15.3994 58.2767 15.0414C57.8638 14.8231 57.416 14.6416 56.8394 14.4452C54.5869 13.5806 52.1919 13.2526 49.6408 13.4802C48.9544 13.524 48.2855 13.6564 47.6495 13.7873C44.3349 14.4781 41.3157 16.2133 39.0382 18.6607C38.9218 18.8261 38.7957 18.9828 38.6626 19.1263C37.6793 20.2031 36.8111 21.4923 36.0385 23.0023C34.1824 26.7534 33.6401 30.956 34.4669 35.1535C35.5166 40.4876 38.6883 45.1139 43.1681 47.8515C46.6684 49.8954 50.6675 50.6938 54.4277 50.0795C54.4557 50.0748 54.4838 50.0701 54.5118 50.0654C54.563 50.0528 54.6155 50.0428 54.6659 50.0348C59.9203 49.1232 64.5271 45.6256 66.9413 40.7769C67.4349 39.7325 67.7556 38.9246 68.0176 38.0116C68.2261 37.3651 68.4107 36.7193 68.5549 35.981C69.3536 32.0317 68.8236 27.7995 67.0605 24.064Z" fill="#A25326"/>
<g clip-path="url(#clip0_411_956)">
<path d="M87.9445 73.5561C87.9456 73.5558 87.9465 73.556 87.9476 73.5557C89.072 73.4393 90.1957 73.5805 91.197 73.9279C92.312 73.5271 93.5898 73.0819 94.9972 72.5991C93.8411 71.6399 92.799 70.7678 91.8958 70.001C91.3966 70.0148 90.8957 69.994 90.3984 69.9087C89.6578 69.7815 88.9274 69.5456 88.2301 69.2065C88.226 69.2043 88.2223 69.2027 88.2187 69.2005C86.4789 68.3257 85.1982 66.8635 84.7047 65.1887C84.2845 63.7613 84.4663 62.2921 85.2257 61.037C85.533 60.5468 85.8798 60.1407 86.2844 59.7956C86.3127 59.7653 86.3422 59.7372 86.3739 59.7109C87.2835 58.9517 88.4305 58.4675 89.6919 58.3101C89.9336 58.2803 90.1865 58.2544 90.4269 58.2521C91.3271 58.2243 92.2088 58.3524 93.0169 58.6225C93.2225 58.683 93.4261 58.7566 93.6895 58.8717C93.8367 58.9361 93.9884 59.0032 94.1217 59.0707C95.2876 59.6489 96.2516 60.4905 96.9091 61.5045C96.9183 61.5184 96.927 61.5328 96.9352 61.5471C96.9468 61.5644 96.9587 61.5838 96.9705 61.6037C97.6483 62.6706 97.9278 63.8602 97.8283 65.0109L103.253 69.8233C107.928 68.2717 112.755 66.6984 116.527 65.4796C117.943 59.388 119.819 53.8617 122.114 49.0562C122.303 48.6597 122.731 48.4393 123.166 48.514L139.921 51.3909C140.373 51.4685 140.72 51.8451 140.762 52.3036C140.781 52.5119 142.612 73.3269 136.928 90.6085C131.662 106.62 137.269 109.799 137.309 109.821C137.761 110.037 137.99 110.553 137.847 111.03C137.704 111.506 137.232 111.798 136.741 111.713C133.643 111.181 128.438 109.13 127.262 104.907C125.322 106.849 121.571 109.109 115.058 107.99C114.66 107.922 114.339 107.62 114.242 107.225C114.146 106.831 114.295 106.42 114.618 106.185C114.786 106.063 115.041 105.854 115.318 105.586C113.149 106.376 110.092 107.138 107.173 106.637C106.775 106.568 106.452 106.266 106.356 105.87C106.26 105.474 106.41 105.064 106.735 104.83C106.8 104.783 113.176 100.094 113.529 91.6731C113.528 91.6081 113.499 90.1339 113.597 87.6568C111.397 85.8992 106.626 82.0801 101.642 78.0356L95.7666 80.2618C95.478 82.8337 93.2679 84.8517 90.2395 85.1797C89.5294 85.2535 88.8245 85.2251 88.1445 85.1083C85.374 84.6326 83.0259 82.684 82.4892 80.1636C82.1806 78.736 82.4795 77.2919 83.3319 76.0978C84.3377 74.6884 86.0188 73.7619 87.9445 73.5561ZM97.6351 72.2063C98.3832 72.8253 99.1651 73.4682 99.9683 74.1238C100.771 74.7791 101.595 75.4469 102.426 76.1159C102.426 76.1158 102.426 76.1159 102.426 76.1159C102.427 76.1166 102.428 76.1176 102.429 76.1184C107.902 80.5633 113.202 84.8014 115.223 86.415L116.672 87.5594C117.187 87.9743 117.968 88.1803 118.659 88.0859C119.095 88.0261 119.441 87.8542 119.615 87.6036C119.849 87.2763 119.465 86.8656 119.37 86.774L106.205 75.094L102.382 71.7042C102.38 71.7023 102.379 71.6997 102.376 71.6978L97.201 67.1065C97.1806 67.1426 97.1596 67.1801 97.1375 67.2179C96.9965 67.4495 96.8335 67.6646 96.66 67.8709C96.6071 67.9339 96.55 67.9926 96.4943 68.053C96.3619 68.1967 96.2223 68.3333 96.0746 68.4627C96.0104 68.519 95.9475 68.5757 95.8806 68.6291C95.6935 68.7786 95.4971 68.9178 95.2899 69.0448C95.2611 69.0625 95.2354 69.0836 95.2062 69.1008C94.9698 69.2403 94.7192 69.3613 94.4603 69.4706C94.4347 69.4813 94.4124 69.4966 94.3866 69.5071C95.3634 70.3262 96.4596 71.2362 97.6351 72.2063ZM115.092 72.9376L109.259 75.152L114.214 79.5478C114.453 77.305 114.746 75.0988 115.092 72.9376ZM95.2953 62.6624C95.2889 62.6524 95.2826 62.6419 95.2763 62.6314C95.2656 62.6147 95.2536 62.5963 95.2422 62.577C94.7851 61.8729 94.1013 61.2819 93.2549 60.8622C93.1472 60.8075 93.0323 60.7581 92.8439 60.6757C92.7306 60.6255 92.6082 60.5827 92.451 60.5354C91.8359 60.3302 91.1875 60.2362 90.5022 60.2573C90.3177 60.2593 90.1386 60.2801 89.9685 60.3009C89.0818 60.4112 88.2845 60.7439 87.6937 61.2339C87.6639 61.2674 87.6314 61.299 87.5969 61.3277C87.342 61.5435 87.1202 61.8051 86.9261 62.1141C86.4611 62.8823 86.3543 63.759 86.6164 64.6491C86.9493 65.7802 87.8472 66.7848 89.08 67.4067C90.0423 67.8726 91.1274 68.0822 92.1349 67.9926C92.1424 67.9919 92.1499 67.9912 92.1575 67.9905C92.1711 67.9884 92.1852 67.9869 92.1987 67.9857C93.606 67.8494 94.8146 67.1633 95.4197 66.1705C95.5429 65.9564 95.6218 65.7901 95.6839 65.6011C95.734 65.4676 95.7777 65.3339 95.8096 65.1804C95.9878 64.3595 95.8054 63.4653 95.2953 62.6624ZM104.994 71.3683L106.623 72.8134L107.557 73.642L115.458 70.6429C115.482 70.5107 115.506 70.3879 115.53 70.2577C115.58 69.9905 115.629 69.7257 115.679 69.4666C115.718 69.2609 115.758 69.0572 115.798 68.8564C115.848 68.5991 115.899 68.3451 115.951 68.095C115.973 67.9854 115.995 67.8699 116.018 67.7615C112.753 68.8187 108.85 70.0922 104.994 71.3683ZM109.814 104.769C113.625 104.532 117.247 102.533 117.29 102.509C117.623 102.323 118.036 102.346 118.351 102.569C118.667 102.793 118.831 103.176 118.772 103.556C118.612 104.6 118.047 105.53 117.45 106.254C124.741 106.656 127.089 101.896 127.191 101.679C127.379 101.271 127.814 101.05 128.248 101.125C128.294 101.133 128.339 101.143 128.384 101.158C128.861 101.31 129.158 101.79 129.083 102.283C128.532 105.875 131.53 107.844 134.006 108.842C132.552 105.97 131.601 100.386 135.034 89.9494C139.971 74.9385 139.102 57.1355 138.835 53.2334L128.995 51.5438C126.724 55.8571 122.294 65.0793 122.796 70.5227C122.846 71.0753 122.443 71.5564 121.895 71.5985C121.811 71.605 121.73 71.6004 121.65 71.5867C121.209 71.511 120.853 71.1422 120.81 70.6741C120.296 65.0948 124.147 56.5199 126.913 51.1864L123.6 50.6176C121.442 55.2802 119.674 60.6207 118.341 66.5069C118.253 66.8924 118.166 67.2851 118.08 67.6867C117.822 68.8914 117.572 70.1748 117.323 71.5754C116.782 74.6656 116.348 77.8877 116.034 81.16L120.705 85.3065C121.779 86.3355 121.995 87.7359 121.25 88.7799C120.766 89.478 119.953 89.9373 118.961 90.0731C118.687 90.1109 118.411 90.1157 118.134 90.1033C118.048 90.0995 117.964 90.0872 117.878 90.0787C117.764 90.0674 117.65 90.0655 117.538 90.0462C117.444 90.0301 117.353 90.0026 117.26 89.9809C117.203 89.9676 117.147 89.9565 117.091 89.9412C116.836 89.872 116.59 89.7838 116.353 89.6743C116.307 89.6534 116.265 89.6284 116.221 89.6061C116.013 89.5017 115.816 89.3823 115.629 89.2479C115.602 89.2283 115.569 89.216 115.543 89.1959C115.504 90.756 115.522 91.6672 115.522 91.7266C115.255 98.1316 111.982 102.534 109.814 104.769ZM99.0354 75.9222C98.8745 75.7911 98.7145 75.6612 98.5553 75.5311C97.9638 75.0478 97.3808 74.5699 96.8184 74.1054C95.6692 74.4971 94.5842 74.87 93.5906 75.2171C93.6617 75.2755 93.7192 75.3428 93.7872 75.4034C93.9029 75.5064 94.0152 75.6113 94.1221 75.7207C94.2108 75.8117 94.2971 75.9026 94.3788 75.9973C94.5176 76.157 94.6452 76.3233 94.7655 76.4941C94.7887 76.5277 94.8194 76.558 94.8418 76.592C94.848 76.6009 94.852 76.6112 94.8583 76.6201C94.9694 76.7867 95.0677 76.9596 95.1607 77.1353C95.2581 77.3161 95.3424 77.5051 95.4189 77.6984C95.46 77.8016 95.503 77.9038 95.538 78.0094C95.556 78.0644 95.583 78.1139 95.5995 78.17L99.828 76.5679C99.5602 76.3507 99.2996 76.1375 99.0354 75.9222ZM84.4384 79.7721C84.896 81.9257 87.3908 83.4557 89.9972 83.185C92.2577 82.9405 93.8608 81.4177 93.809 79.5042C93.8139 79.3435 93.7789 79.1334 93.7483 78.9622C93.7386 78.9162 93.7215 78.8719 93.7097 78.8263C93.6749 78.6901 93.6329 78.5565 93.5815 78.4262C93.5535 78.3548 93.5228 78.2843 93.49 78.2144C93.4073 78.0411 93.3177 77.87 93.2018 77.7048C93.1054 77.5583 92.9939 77.4183 92.8758 77.2823C92.8213 77.2205 92.7618 77.1615 92.703 77.102C92.6425 77.04 92.5807 76.979 92.516 76.9198C92.4266 76.839 92.3341 76.7602 92.2367 76.6847C92.2042 76.6592 92.1703 76.6348 92.1369 76.61C91.8799 76.4209 91.5999 76.2484 91.2949 76.0999C91.2513 76.0792 91.2053 76.0579 91.1591 76.0367L90.9996 75.9699C90.9568 75.9528 90.9191 75.936 90.8679 75.9181C90.5117 75.7737 90.1372 75.6678 89.7522 75.6017C89.2426 75.5142 88.7149 75.4964 88.1879 75.5506C86.8181 75.6973 85.641 76.3294 84.959 77.2852C84.4275 78.0301 84.2474 78.8888 84.4384 79.7721Z" fill="black"/>
<path d="M133.164 62.617C133.132 62.0637 133.552 61.5963 134.101 61.5738C134.651 61.5498 135.123 61.981 135.155 62.5339C135.19 63.1303 135.953 77.246 131.409 86.7716C131.383 86.8235 128.732 92.0421 129.956 95.8921C130.125 96.4224 129.836 96.9821 129.312 97.1427C129.16 97.1894 129.004 97.1968 128.856 97.1715C128.494 97.1093 128.177 96.8498 128.057 96.4736C126.583 91.8371 129.51 86.0685 129.622 85.8524C133.93 76.8199 133.172 62.7582 133.164 62.617Z" fill="black"/>
<path d="M134.794 126.221C134.821 126.134 134.862 126.058 134.92 125.994C134.977 125.926 135.045 125.87 135.122 125.826C135.2 125.782 135.285 125.752 135.379 125.738C135.469 125.72 135.562 125.719 135.657 125.735C135.831 125.765 135.974 125.825 136.085 125.915C136.196 126.002 136.281 126.109 136.339 126.238C136.397 126.363 136.433 126.501 136.447 126.652C136.458 126.802 136.451 126.955 136.428 127.11C136.405 127.258 136.366 127.4 136.312 127.536C136.254 127.669 136.179 127.784 136.086 127.883C135.994 127.982 135.881 128.056 135.749 128.104C135.617 128.149 135.465 128.157 135.29 128.127C135.054 128.086 134.881 127.982 134.772 127.815C134.659 127.647 134.607 127.442 134.613 127.199L133.864 127.071C133.85 127.295 133.871 127.503 133.925 127.695C133.98 127.887 134.065 128.057 134.181 128.205C134.296 128.354 134.439 128.476 134.61 128.573C134.781 128.67 134.974 128.737 135.191 128.774C135.461 128.821 135.711 128.816 135.942 128.761C136.17 128.702 136.371 128.603 136.544 128.464C136.717 128.325 136.86 128.151 136.972 127.944C137.086 127.734 137.162 127.5 137.201 127.243C137.242 126.979 137.24 126.729 137.195 126.491C137.151 126.25 137.068 126.033 136.946 125.84C136.824 125.646 136.663 125.483 136.465 125.351C136.262 125.218 136.027 125.129 135.757 125.083C135.563 125.049 135.377 125.046 135.197 125.073C135.015 125.099 134.848 125.155 134.696 125.24C134.542 125.322 134.409 125.434 134.296 125.577C134.183 125.72 134.099 125.892 134.045 126.092L134.794 126.221ZM133.593 125.797L132.928 125.682L132.855 126.157L132.845 126.155C132.825 126.07 132.791 125.99 132.746 125.915C132.7 125.836 132.645 125.767 132.58 125.709C132.515 125.647 132.444 125.596 132.366 125.555C132.288 125.515 132.204 125.487 132.116 125.472C132.07 125.464 132.018 125.463 131.959 125.47L131.859 126.123C131.893 126.122 131.933 126.124 131.98 126.128C132.027 126.129 132.072 126.134 132.114 126.141C132.242 126.163 132.347 126.203 132.43 126.261C132.512 126.319 132.575 126.391 132.619 126.476C132.661 126.558 132.685 126.65 132.693 126.753C132.701 126.856 132.696 126.965 132.678 127.08L132.502 128.232L133.202 128.352L133.593 125.797ZM129.896 126.191C129.956 126.019 130.036 125.894 130.135 125.817C130.232 125.738 130.365 125.714 130.536 125.743C130.648 125.763 130.738 125.798 130.808 125.851C130.875 125.9 130.927 125.956 130.964 126.02C130.998 126.083 131.02 126.148 131.03 126.214C131.037 126.279 131.039 126.337 131.034 126.387L129.896 126.191ZM130.966 126.832C130.921 127.057 130.839 127.212 130.718 127.296C130.597 127.38 130.438 127.405 130.241 127.372C130.1 127.347 129.983 127.292 129.892 127.205C129.801 127.115 129.751 127.029 129.74 126.946L129.124 126.84C129.175 127.163 129.293 127.408 129.476 127.575C129.66 127.742 129.896 127.85 130.185 127.9C130.386 127.934 130.571 127.934 130.742 127.899C130.913 127.861 131.063 127.792 131.193 127.692C131.323 127.593 131.432 127.466 131.519 127.312C131.604 127.158 131.661 126.981 131.692 126.784C131.721 126.593 131.717 126.409 131.68 126.234C131.643 126.058 131.576 125.902 131.479 125.763C131.383 125.622 131.261 125.503 131.114 125.406C130.963 125.309 130.791 125.244 130.597 125.211C130.381 125.174 130.185 125.184 130.011 125.242C129.837 125.297 129.689 125.387 129.565 125.511C129.438 125.634 129.338 125.783 129.264 125.956C129.191 126.129 129.145 126.316 129.128 126.516L130.966 126.832ZM128.844 125.788C128.859 125.621 128.839 125.477 128.784 125.356C128.728 125.235 128.649 125.132 128.548 125.047C128.446 124.962 128.329 124.894 128.195 124.844C128.058 124.79 127.919 124.751 127.778 124.727C127.649 124.705 127.518 124.693 127.384 124.69C127.25 124.684 127.125 124.698 127.008 124.732C126.892 124.766 126.792 124.825 126.708 124.909C126.625 124.989 126.571 125.107 126.548 125.261L126.344 126.591C126.326 126.706 126.303 126.815 126.273 126.919C126.244 127.022 126.209 127.097 126.168 127.144L126.878 127.266C126.897 127.229 126.914 127.191 126.93 127.153C126.943 127.111 126.955 127.069 126.965 127.027C127.059 127.162 127.178 127.265 127.322 127.337C127.466 127.409 127.617 127.459 127.774 127.486C127.896 127.507 128.012 127.511 128.121 127.5C128.231 127.488 128.33 127.458 128.418 127.409C128.507 127.36 128.581 127.291 128.642 127.204C128.699 127.115 128.738 127.005 128.758 126.874C128.781 126.729 128.774 126.606 128.739 126.505C128.701 126.4 128.647 126.313 128.577 126.244C128.503 126.174 128.418 126.117 128.32 126.073C128.219 126.025 128.118 125.984 128.015 125.95C127.912 125.915 127.811 125.884 127.711 125.857C127.61 125.829 127.522 125.799 127.446 125.766C127.371 125.732 127.312 125.694 127.272 125.65C127.232 125.602 127.219 125.542 127.234 125.471C127.245 125.395 127.268 125.338 127.3 125.299C127.33 125.257 127.369 125.228 127.415 125.213C127.458 125.193 127.508 125.185 127.565 125.188C127.619 125.187 127.678 125.192 127.74 125.202C127.878 125.226 127.982 125.274 128.052 125.347C128.121 125.42 128.152 125.527 128.144 125.667L128.844 125.788ZM127.148 126.029C127.174 126.06 127.208 126.088 127.252 126.113C127.292 126.133 127.338 126.153 127.389 126.172C127.437 126.19 127.488 126.207 127.543 126.224C127.598 126.24 127.652 126.258 127.707 126.277C127.758 126.296 127.808 126.318 127.858 126.344C127.905 126.369 127.946 126.399 127.981 126.436C128.013 126.468 128.037 126.508 128.054 126.555C128.07 126.602 128.073 126.658 128.063 126.724C128.054 126.786 128.034 126.837 128.004 126.876C127.975 126.915 127.938 126.944 127.895 126.964C127.852 126.98 127.803 126.989 127.749 126.989C127.695 126.99 127.64 126.986 127.584 126.976C127.446 126.953 127.343 126.911 127.275 126.852C127.206 126.793 127.159 126.729 127.132 126.66C127.106 126.588 127.095 126.519 127.098 126.452C127.099 126.384 127.102 126.33 127.108 126.291L127.148 126.029ZM125.218 124.359L124.706 124.271L124.634 124.74L125.146 124.828L124.952 126.093C124.934 126.212 124.902 126.288 124.857 126.32C124.811 126.353 124.729 126.359 124.611 126.339C124.572 126.332 124.534 126.324 124.498 126.315C124.463 126.305 124.429 126.294 124.397 126.282L124.314 126.826C124.372 126.846 124.436 126.864 124.508 126.879C124.58 126.895 124.65 126.909 124.719 126.921C124.828 126.939 124.932 126.949 125.033 126.949C125.131 126.952 125.22 126.939 125.303 126.909C125.381 126.879 125.448 126.828 125.503 126.756C125.558 126.684 125.595 126.584 125.615 126.456L125.846 124.948L126.27 125.021L126.342 124.551L125.918 124.479L126.035 123.713L125.336 123.592L125.218 124.359ZM122.504 124.922C122.564 124.75 122.644 124.625 122.744 124.547C122.84 124.469 122.973 124.445 123.144 124.474C123.256 124.493 123.347 124.529 123.416 124.582C123.483 124.63 123.535 124.687 123.572 124.751C123.606 124.814 123.628 124.879 123.639 124.945C123.645 125.01 123.647 125.068 123.642 125.118L122.504 124.922ZM123.574 125.562C123.529 125.788 123.447 125.943 123.326 126.027C123.205 126.111 123.046 126.136 122.849 126.102C122.708 126.078 122.592 126.023 122.5 125.936C122.41 125.846 122.359 125.76 122.348 125.677L121.732 125.571C121.783 125.894 121.901 126.139 122.084 126.306C122.268 126.473 122.504 126.581 122.793 126.631C122.994 126.665 123.179 126.665 123.35 126.63C123.521 126.591 123.671 126.523 123.801 126.423C123.931 126.324 124.04 126.197 124.128 126.043C124.212 125.888 124.269 125.712 124.3 125.515C124.329 125.323 124.325 125.14 124.288 124.965C124.251 124.789 124.184 124.632 124.087 124.494C123.991 124.352 123.869 124.233 123.722 124.137C123.572 124.04 123.399 123.975 123.206 123.942C122.989 123.905 122.793 123.915 122.619 123.973C122.446 124.028 122.297 124.117 122.173 124.242C122.047 124.365 121.946 124.514 121.872 124.687C121.799 124.86 121.753 125.047 121.736 125.247L123.574 125.562ZM119.54 124.687C119.556 124.582 119.581 124.483 119.616 124.391C119.65 124.295 119.698 124.216 119.758 124.152C119.816 124.084 119.886 124.033 119.969 124C120.051 123.967 120.15 123.96 120.265 123.98C120.38 124 120.474 124.039 120.545 124.099C120.617 124.159 120.672 124.231 120.71 124.315C120.744 124.398 120.765 124.492 120.773 124.595C120.778 124.693 120.772 124.796 120.756 124.901C120.741 125 120.714 125.097 120.676 125.192C120.638 125.287 120.588 125.369 120.527 125.44C120.463 125.507 120.389 125.558 120.306 125.595C120.22 125.627 120.123 125.634 120.014 125.616C119.899 125.596 119.808 125.557 119.739 125.497C119.667 125.438 119.614 125.366 119.58 125.282C119.546 125.195 119.527 125.101 119.522 124.999C119.518 124.896 119.524 124.793 119.54 124.687ZM119.383 125.644L119.393 125.646C119.454 125.798 119.547 125.918 119.672 126.003C119.794 126.085 119.939 126.14 120.107 126.169C120.297 126.202 120.47 126.194 120.626 126.147C120.782 126.096 120.917 126.016 121.032 125.907C121.144 125.794 121.237 125.66 121.311 125.504C121.382 125.347 121.432 125.179 121.459 125.001C121.485 124.83 121.488 124.661 121.466 124.495C121.441 124.325 121.392 124.172 121.319 124.034C121.242 123.896 121.139 123.778 121.009 123.681C120.879 123.581 120.721 123.515 120.534 123.483C120.382 123.457 120.234 123.466 120.09 123.508C119.942 123.547 119.819 123.623 119.721 123.734L119.711 123.733L119.908 122.448L119.209 122.327L118.668 125.856L119.333 125.97L119.383 125.644ZM115.095 123.934C115.112 123.825 115.139 123.724 115.177 123.629C115.215 123.534 115.265 123.453 115.326 123.385C115.387 123.318 115.458 123.269 115.54 123.24C115.62 123.206 115.712 123.198 115.817 123.216C115.919 123.234 116.004 123.272 116.073 123.331C116.142 123.387 116.195 123.457 116.233 123.541C116.27 123.625 116.293 123.719 116.301 123.822C116.309 123.924 116.304 124.03 116.288 124.139C116.271 124.244 116.244 124.344 116.206 124.439C116.168 124.534 116.118 124.615 116.057 124.683C115.997 124.75 115.925 124.8 115.842 124.833C115.76 124.863 115.668 124.869 115.566 124.852C115.461 124.834 115.376 124.797 115.31 124.742C115.241 124.683 115.188 124.611 115.151 124.527C115.113 124.443 115.09 124.349 115.083 124.246C115.075 124.144 115.079 124.04 115.095 123.934ZM117.308 122.001L116.608 121.881L116.411 123.166L116.402 123.164C116.336 123.018 116.236 122.903 116.101 122.818C115.962 122.73 115.814 122.673 115.657 122.646C115.529 122.624 115.398 122.628 115.265 122.66C115.132 122.691 115.008 122.753 114.893 122.844C114.774 122.936 114.671 123.062 114.582 123.222C114.494 123.379 114.432 123.575 114.396 123.809C114.36 124.043 114.36 124.251 114.396 124.433C114.433 124.612 114.494 124.764 114.579 124.89C114.661 125.016 114.76 125.116 114.877 125.19C114.994 125.264 115.116 125.312 115.244 125.334C115.432 125.367 115.604 125.366 115.761 125.332C115.918 125.298 116.045 125.216 116.142 125.088L116.152 125.089L116.102 125.416L116.767 125.53L117.308 122.001ZM112.449 125.113C112.493 125.334 112.576 125.5 112.697 125.612C112.818 125.724 112.998 125.801 113.238 125.842C113.31 125.854 113.383 125.864 113.456 125.869C113.526 125.878 113.597 125.885 113.671 125.891L113.759 125.313C113.692 125.308 113.624 125.303 113.554 125.298C113.484 125.293 113.415 125.282 113.346 125.267C113.256 125.242 113.194 125.194 113.161 125.124C113.125 125.053 113.112 124.98 113.124 124.904C113.132 124.848 113.15 124.797 113.178 124.751L114.437 122.507L113.693 122.38L112.848 124.03L112.838 124.029L112.55 122.183L111.825 122.059L112.449 125.113ZM110.295 120.797L109.521 120.664L108.98 124.193L109.754 124.326L110.295 120.797ZM106.894 122.135C106.985 121.85 107.179 121.733 107.478 121.784C107.59 121.804 107.68 121.846 107.747 121.912C107.815 121.974 107.867 122.051 107.904 122.141C107.938 122.228 107.957 122.323 107.962 122.425C107.967 122.524 107.962 122.621 107.947 122.717C107.933 122.809 107.909 122.901 107.875 122.994C107.84 123.086 107.796 123.168 107.741 123.24C107.683 123.307 107.613 123.36 107.53 123.396C107.447 123.432 107.351 123.441 107.242 123.423C107.075 123.394 106.954 123.326 106.879 123.218C106.802 123.107 106.764 122.97 106.765 122.808L106.09 122.692C106.084 123.04 106.176 123.321 106.365 123.536C106.555 123.751 106.819 123.888 107.157 123.946C107.348 123.979 107.528 123.977 107.699 123.942C107.867 123.904 108.015 123.836 108.145 123.74C108.274 123.644 108.382 123.522 108.469 123.375C108.556 123.224 108.614 123.053 108.643 122.862C108.674 122.664 108.674 122.477 108.644 122.299C108.611 122.117 108.548 121.956 108.455 121.815C108.362 121.671 108.241 121.55 108.091 121.453C107.94 121.356 107.762 121.29 107.555 121.255C107.403 121.229 107.256 121.224 107.112 121.24C106.965 121.255 106.83 121.294 106.709 121.358C106.585 121.418 106.48 121.503 106.392 121.613C106.305 121.72 106.244 121.855 106.209 122.018L106.894 122.135ZM105.119 122.221C105.104 122.323 105.078 122.422 105.043 122.518C105.009 122.61 104.963 122.692 104.905 122.763C104.844 122.83 104.77 122.88 104.684 122.913C104.599 122.945 104.496 122.951 104.378 122.931C104.26 122.911 104.165 122.871 104.093 122.811C104.018 122.751 103.963 122.679 103.929 122.595C103.892 122.508 103.871 122.414 103.866 122.315C103.861 122.213 103.867 122.111 103.882 122.009C103.898 121.907 103.923 121.808 103.958 121.712C103.993 121.617 104.041 121.536 104.102 121.468C104.159 121.4 104.233 121.35 104.322 121.318C104.408 121.283 104.511 121.275 104.629 121.295C104.747 121.315 104.842 121.357 104.913 121.42C104.985 121.48 105.04 121.552 105.077 121.636C105.112 121.72 105.131 121.812 105.136 121.915C105.14 122.017 105.135 122.119 105.119 122.221ZM105.819 122.341C105.85 122.137 105.847 121.947 105.81 121.772C105.774 121.593 105.707 121.436 105.609 121.301C105.512 121.163 105.388 121.048 105.237 120.958C105.086 120.865 104.911 120.801 104.71 120.766C104.51 120.732 104.324 120.734 104.153 120.772C103.979 120.806 103.826 120.873 103.692 120.972C103.56 121.068 103.449 121.194 103.361 121.351C103.273 121.505 103.214 121.684 103.183 121.889C103.151 122.093 103.154 122.283 103.191 122.458C103.228 122.634 103.295 122.791 103.392 122.929C103.49 123.064 103.616 123.177 103.77 123.268C103.922 123.358 104.097 123.42 104.298 123.455C104.498 123.489 104.684 123.489 104.854 123.454C105.025 123.419 105.177 123.354 105.309 123.258C105.442 123.159 105.553 123.033 105.64 122.879C105.728 122.725 105.788 122.546 105.819 122.341ZM102.924 120.531L102.259 120.416L102.204 120.772L102.189 120.77C102.123 120.606 102.025 120.479 101.894 120.389C101.763 120.296 101.624 120.236 101.476 120.211C101.289 120.179 101.132 120.179 101.005 120.211C100.876 120.24 100.77 120.294 100.687 120.375C100.604 120.452 100.54 120.554 100.493 120.681C100.444 120.805 100.407 120.946 100.383 121.104L100.142 122.675L100.842 122.796L101.063 121.352C101.095 121.141 101.152 120.991 101.234 120.9C101.315 120.806 101.44 120.773 101.608 120.802C101.798 120.834 101.927 120.916 101.995 121.046C102.063 121.172 102.078 121.366 102.038 121.626L101.832 122.966L102.532 123.086L102.924 120.531ZM99.3439 119.51L100.044 119.63L100.132 119.052L99.4325 118.932L99.3439 119.51ZM99.983 120.026L99.2832 119.905L98.8915 122.461L99.5912 122.581L99.983 120.026ZM97.9446 120.989C97.929 121.092 97.9037 121.19 97.8688 121.286C97.8345 121.378 97.7882 121.46 97.7301 121.531C97.6692 121.598 97.5974 121.648 97.5148 121.682C97.4289 121.714 97.3284 121.721 97.2134 121.701C97.0985 121.681 97.0065 121.643 96.9375 121.587C96.8657 121.528 96.8124 121.458 96.7775 121.377C96.7398 121.293 96.7185 121.202 96.7134 121.103C96.7056 121 96.7097 120.896 96.7259 120.79C96.7411 120.691 96.7677 120.595 96.8059 120.5C96.8407 120.404 96.8872 120.321 96.9453 120.25C97.0035 120.179 97.0757 120.125 97.1622 120.089C97.2453 120.053 97.3411 120.044 97.4495 120.062C97.5645 120.082 97.6579 120.122 97.7296 120.181C97.8014 120.241 97.8559 120.315 97.893 120.402C97.9307 120.487 97.9534 120.58 97.9613 120.683C97.9663 120.782 97.9608 120.884 97.9446 120.989ZM95.7196 122.834L96.4194 122.954L96.6058 121.738L96.6157 121.74C96.6766 121.893 96.7764 122.011 96.9152 122.096C97.0539 122.181 97.2021 122.237 97.3598 122.264C97.4781 122.284 97.6046 122.284 97.7392 122.263C97.8712 122.238 97.9975 122.184 98.1183 122.1C98.2396 122.012 98.3476 121.89 98.4424 121.734C98.5376 121.575 98.6042 121.371 98.6421 121.124C98.6689 120.95 98.6719 120.776 98.6512 120.603C98.6304 120.431 98.582 120.274 98.5059 120.132C98.4304 119.987 98.3278 119.865 98.1981 119.765C98.0652 119.664 97.9018 119.597 97.708 119.564C97.5503 119.537 97.3976 119.543 97.2501 119.582C97.0997 119.617 96.9742 119.698 96.8737 119.827L96.8638 119.825L96.9138 119.499L96.2486 119.384L95.7196 122.834ZM92.9379 121.438L93.6031 121.553L93.6577 121.197L93.6725 121.199C93.7384 121.363 93.837 121.49 93.9682 121.58C94.0993 121.67 94.2388 121.728 94.3867 121.753C94.5739 121.785 94.7321 121.787 94.8613 121.759C94.9871 121.729 95.0913 121.676 95.174 121.599C95.2571 121.519 95.3233 121.417 95.3726 121.293C95.4191 121.166 95.4544 121.023 95.4787 120.865L95.7197 119.294L95.0199 119.173L94.7986 120.617C94.7663 120.827 94.7092 120.98 94.6273 121.074C94.546 121.165 94.4215 121.196 94.2539 121.167C94.0634 121.135 93.934 121.055 93.8658 120.928C93.798 120.798 93.7841 120.603 93.824 120.343L94.0294 119.003L93.3296 118.883L92.9379 121.438Z" fill="black"/>
<path d="M136.263 131.809L136.682 131.881L136.754 131.412L136.335 131.34L136.366 131.142C136.401 130.915 136.359 130.716 136.24 130.547C136.12 130.378 135.918 130.269 135.632 130.22C135.57 130.209 135.507 130.201 135.443 130.197C135.381 130.19 135.319 130.183 135.26 130.176L135.179 130.7C135.263 130.704 135.349 130.714 135.438 130.729C135.533 130.745 135.599 130.78 135.634 130.834C135.667 130.883 135.675 130.961 135.659 131.066L135.636 131.219L135.153 131.137L135.081 131.606L135.564 131.689L135.244 133.775L135.944 133.895L136.263 131.809ZM134.847 131.084L134.182 130.97L134.109 131.444L134.099 131.443C134.079 131.358 134.045 131.278 134 131.202C133.954 131.124 133.899 131.055 133.834 130.996C133.769 130.934 133.698 130.883 133.62 130.843C133.542 130.802 133.458 130.775 133.37 130.759C133.324 130.751 133.271 130.751 133.213 130.758L133.113 131.41C133.147 131.409 133.187 131.411 133.234 131.416C133.281 131.417 133.325 131.421 133.368 131.429C133.496 131.451 133.601 131.491 133.684 131.549C133.766 131.607 133.829 131.679 133.873 131.764C133.915 131.845 133.939 131.938 133.947 132.04C133.955 132.143 133.95 132.252 133.932 132.368L133.756 133.519L134.455 133.639L134.847 131.084ZM132.201 131.944C132.186 132.046 132.16 132.144 132.126 132.24C132.091 132.332 132.045 132.414 131.987 132.485C131.926 132.552 131.852 132.602 131.767 132.635C131.681 132.667 131.579 132.674 131.46 132.653C131.342 132.633 131.247 132.593 131.175 132.533C131.1 132.473 131.045 132.401 131.011 132.317C130.974 132.23 130.953 132.137 130.948 132.038C130.943 131.935 130.949 131.833 130.964 131.731C130.98 131.629 131.005 131.53 131.04 131.435C131.075 131.339 131.123 131.258 131.184 131.191C131.241 131.123 131.315 131.073 131.404 131.041C131.491 131.005 131.593 130.997 131.711 131.017C131.829 131.038 131.924 131.079 131.995 131.142C132.067 131.202 132.122 131.274 132.16 131.358C132.194 131.442 132.213 131.535 132.218 131.637C132.223 131.739 132.217 131.841 132.201 131.944ZM132.901 132.064C132.932 131.859 132.929 131.67 132.892 131.494C132.856 131.315 132.789 131.158 132.691 131.023C132.595 130.885 132.47 130.771 132.319 130.68C132.168 130.587 131.993 130.523 131.792 130.489C131.592 130.454 131.406 130.456 131.235 130.494C131.061 130.529 130.908 130.595 130.774 130.694C130.642 130.79 130.531 130.916 130.443 131.074C130.355 131.228 130.296 131.407 130.265 131.611C130.233 131.815 130.236 132.005 130.273 132.181C130.311 132.356 130.378 132.513 130.474 132.651C130.572 132.786 130.698 132.899 130.852 132.99C131.004 133.08 131.18 133.143 131.38 133.177C131.58 133.212 131.766 133.211 131.936 133.176C132.107 133.141 132.259 133.076 132.391 132.98C132.524 132.882 132.635 132.755 132.723 132.601C132.81 132.447 132.87 132.268 132.901 132.064ZM129.986 130.249L129.326 130.136L129.273 130.482L129.263 130.48C129.191 130.333 129.097 130.212 128.98 130.117C128.859 130.022 128.716 129.96 128.548 129.931C128.387 129.904 128.236 129.91 128.095 129.95C127.951 129.99 127.832 130.082 127.739 130.229C127.68 130.104 127.594 129.987 127.479 129.88C127.36 129.772 127.213 129.702 127.035 129.672C126.9 129.649 126.773 129.644 126.653 129.657C126.533 129.67 126.426 129.706 126.333 129.764C126.24 129.823 126.161 129.907 126.097 130.018C126.033 130.125 125.989 130.261 125.964 130.426L125.701 132.136L126.401 132.256L126.623 130.808C126.636 130.723 126.652 130.642 126.67 130.568C126.688 130.493 126.717 130.43 126.755 130.379C126.793 130.328 126.844 130.292 126.908 130.269C126.969 130.245 127.049 130.242 127.147 130.259C127.246 130.276 127.323 130.31 127.38 130.36C127.433 130.406 127.473 130.464 127.5 130.533C127.524 130.598 127.536 130.671 127.537 130.752C127.535 130.83 127.528 130.908 127.516 130.987L127.298 132.41L127.998 132.53L128.218 131.097C128.229 131.021 128.242 130.948 128.257 130.876C128.271 130.8 128.297 130.734 128.333 130.676C128.365 130.617 128.414 130.575 128.479 130.549C128.541 130.519 128.627 130.513 128.739 130.532C128.772 130.538 128.815 130.554 128.868 130.58C128.919 130.602 128.967 130.639 129.013 130.691C129.056 130.739 129.09 130.806 129.114 130.891C129.139 130.973 129.141 131.077 129.122 131.202L128.895 132.684L129.594 132.805L129.986 130.249ZM123.281 129.098L122.769 129.01L122.697 129.48L123.209 129.568L123.015 130.833C122.997 130.952 122.965 131.027 122.92 131.06C122.874 131.093 122.793 131.099 122.674 131.079C122.635 131.072 122.597 131.064 122.562 131.054C122.526 131.045 122.492 131.034 122.461 131.022L122.377 131.565C122.435 131.585 122.499 131.603 122.571 131.619C122.643 131.635 122.713 131.648 122.782 131.66C122.891 131.679 122.996 131.688 123.097 131.689C123.194 131.692 123.284 131.679 123.366 131.649C123.445 131.618 123.511 131.567 123.566 131.496C123.621 131.424 123.658 131.324 123.678 131.195L123.909 129.688L124.333 129.761L124.405 129.291L123.981 129.218L124.099 128.452L123.399 128.332L123.281 129.098ZM122.585 127.979L121.886 127.859L121.682 129.189L121.667 129.186C121.601 129.023 121.504 128.896 121.376 128.807C121.249 128.714 121.119 128.656 120.988 128.633C120.801 128.601 120.644 128.601 120.518 128.634C120.388 128.662 120.282 128.717 120.199 128.797C120.117 128.874 120.052 128.977 120.005 129.104C119.956 129.227 119.919 129.368 119.895 129.526L119.654 131.098L120.354 131.218L120.575 129.775C120.608 129.564 120.664 129.413 120.746 129.322C120.828 129.228 120.952 129.195 121.12 129.224C121.31 129.257 121.44 129.338 121.507 129.468C121.576 129.595 121.59 129.788 121.55 130.049L121.344 131.388L122.044 131.508L122.585 127.979ZM117.646 129.16C117.706 128.988 117.786 128.863 117.886 128.786C117.982 128.707 118.116 128.683 118.286 128.712C118.398 128.731 118.489 128.767 118.558 128.82C118.625 128.868 118.677 128.925 118.714 128.989C118.748 129.052 118.771 129.117 118.781 129.183C118.788 129.248 118.789 129.306 118.784 129.356L117.646 129.16ZM118.716 129.801C118.672 130.026 118.589 130.181 118.468 130.265C118.347 130.349 118.188 130.374 117.991 130.341C117.85 130.316 117.734 130.261 117.642 130.174C117.552 130.084 117.501 129.998 117.49 129.915L116.874 129.809C116.926 130.132 117.043 130.377 117.227 130.544C117.41 130.711 117.646 130.819 117.935 130.869C118.136 130.903 118.321 130.903 118.492 130.868C118.663 130.83 118.814 130.761 118.943 130.661C119.073 130.562 119.182 130.435 119.27 130.281C119.354 130.127 119.412 129.95 119.442 129.753C119.471 129.562 119.467 129.378 119.43 129.203C119.393 129.027 119.326 128.87 119.229 128.732C119.133 128.59 119.011 128.472 118.864 128.375C118.714 128.278 118.542 128.213 118.348 128.18C118.131 128.143 117.935 128.153 117.761 128.211C117.588 128.266 117.439 128.355 117.316 128.48C117.189 128.603 117.088 128.752 117.015 128.925C116.941 129.098 116.895 129.285 116.878 129.485L118.716 129.801ZM115.389 126.744L114.62 126.612L112.789 128.727L112.779 128.725L113.142 126.358L112.417 126.234L111.876 129.762L112.65 129.895L114.476 127.784L114.486 127.786L114.124 130.148L114.848 130.273L115.389 126.744ZM110.844 128.276C110.828 128.379 110.803 128.477 110.768 128.573C110.734 128.665 110.687 128.747 110.629 128.818C110.568 128.885 110.495 128.935 110.409 128.968C110.323 129 110.221 129.006 110.103 128.986C109.985 128.966 109.89 128.926 109.818 128.866C109.743 128.806 109.688 128.734 109.654 128.65C109.616 128.563 109.595 128.47 109.59 128.371C109.586 128.268 109.591 128.166 109.607 128.064C109.623 127.962 109.648 127.863 109.683 127.768C109.718 127.672 109.765 127.591 109.826 127.523C109.884 127.456 109.957 127.406 110.047 127.374C110.133 127.338 110.235 127.33 110.354 127.35C110.472 127.371 110.567 127.412 110.638 127.475C110.71 127.535 110.764 127.607 110.802 127.691C110.836 127.775 110.856 127.868 110.861 127.97C110.865 128.072 110.86 128.174 110.844 128.276ZM111.544 128.397C111.575 128.192 111.572 128.002 111.535 127.827C111.498 127.648 111.431 127.491 111.334 127.356C111.237 127.218 111.113 127.104 110.962 127.013C110.811 126.92 110.635 126.856 110.435 126.821C110.234 126.787 110.049 126.789 109.878 126.827C109.704 126.862 109.55 126.928 109.417 127.027C109.284 127.123 109.174 127.249 109.086 127.406C108.998 127.56 108.939 127.74 108.907 127.944C108.876 128.148 108.879 128.338 108.916 128.514C108.953 128.689 109.02 128.846 109.117 128.984C109.214 129.119 109.34 129.232 109.495 129.323C109.646 129.413 109.822 129.476 110.022 129.51C110.223 129.544 110.408 129.544 110.579 129.509C110.75 129.474 110.901 129.409 111.034 129.313C111.167 129.215 111.277 129.088 111.365 128.934C111.453 128.78 111.512 128.601 111.544 128.397ZM105.867 128.731L106.532 128.845L106.586 128.489L106.601 128.491C106.667 128.655 106.766 128.782 106.897 128.872C107.028 128.962 107.168 129.02 107.315 129.045C107.503 129.077 107.661 129.079 107.79 129.051C107.916 129.022 108.02 128.968 108.103 128.891C108.186 128.811 108.252 128.709 108.301 128.586C108.348 128.458 108.383 128.316 108.407 128.157L108.648 126.586L107.949 126.466L107.727 127.909C107.695 128.12 107.638 128.272 107.556 128.366C107.475 128.457 107.35 128.488 107.183 128.459C106.992 128.427 106.863 128.347 106.795 128.22C106.727 128.09 106.713 127.895 106.753 127.635L106.958 126.296L106.258 126.175L105.867 128.731ZM105.727 126.084L105.062 125.97L105.008 126.326L104.993 126.323C104.927 126.16 104.828 126.033 104.697 125.943C104.566 125.849 104.427 125.79 104.279 125.765C104.092 125.732 103.935 125.733 103.809 125.765C103.68 125.793 103.574 125.848 103.49 125.928C103.408 126.005 103.343 126.108 103.297 126.235C103.248 126.358 103.211 126.499 103.186 126.657L102.946 128.229L103.645 128.349L103.867 126.906C103.899 126.695 103.956 126.544 104.037 126.453C104.119 126.359 104.244 126.327 104.411 126.355C104.602 126.388 104.731 126.469 104.799 126.599C104.867 126.726 104.881 126.92 104.841 127.18L104.636 128.519L105.336 128.639L105.727 126.084ZM100.482 125.889L99.8805 125.785C99.7918 125.77 99.7074 125.749 99.6273 125.722C99.5472 125.694 99.4787 125.657 99.4218 125.61C99.3655 125.56 99.3245 125.497 99.299 125.422C99.2702 125.346 99.2644 125.252 99.2816 125.14C99.2987 125.028 99.3323 124.941 99.3824 124.878C99.4291 124.815 99.4865 124.771 99.5545 124.745C99.6229 124.716 99.6993 124.703 99.7834 124.703C99.8676 124.704 99.954 124.712 100.043 124.728L100.644 124.831L100.482 125.889ZM101.51 124.361L99.9232 124.088C99.7031 124.051 99.5108 124.051 99.3463 124.091C99.1823 124.127 99.0446 124.189 98.9331 124.278C98.8184 124.367 98.7293 124.475 98.6659 124.603C98.5992 124.73 98.5547 124.866 98.5325 125.011C98.5108 125.153 98.5123 125.297 98.5371 125.443C98.5591 125.585 98.6113 125.718 98.6937 125.84C98.7728 125.962 98.8845 126.069 99.0288 126.162C99.1736 126.251 99.3561 126.314 99.5762 126.352L100.389 126.492L100.195 127.757L100.969 127.89L101.51 124.361ZM98.1478 124.783L97.4825 124.669L97.4098 125.143L97.3999 125.141C97.3792 125.057 97.3459 124.976 97.3002 124.901C97.255 124.822 97.1997 124.754 97.1345 124.695C97.0698 124.633 96.9984 124.582 96.9204 124.542C96.8423 124.501 96.7589 124.473 96.6702 124.458C96.6242 124.45 96.572 124.45 96.5136 124.457L96.4136 125.109C96.4474 125.108 96.4876 125.11 96.5341 125.114C96.5811 125.116 96.626 125.12 96.6687 125.127C96.7968 125.149 96.902 125.189 96.9841 125.247C97.0662 125.306 97.1294 125.377 97.1736 125.463C97.2151 125.544 97.2397 125.636 97.2476 125.739C97.2554 125.842 97.2505 125.951 97.2328 126.066L97.0562 127.218L97.756 127.338L98.1478 124.783ZM95.5019 125.642C95.4862 125.744 95.461 125.843 95.4261 125.939C95.3917 126.031 95.3455 126.112 95.2874 126.184C95.2265 126.251 95.1531 126.301 95.0671 126.333C94.9812 126.366 94.8791 126.372 94.7609 126.352C94.6426 126.332 94.5476 126.292 94.4758 126.232C94.4007 126.172 94.346 126.1 94.3116 126.016C94.2745 125.929 94.2534 125.835 94.2483 125.736C94.2438 125.634 94.2493 125.532 94.265 125.43C94.2806 125.328 94.3059 125.229 94.3408 125.133C94.3756 125.038 94.4235 124.957 94.4844 124.889C94.542 124.821 94.6154 124.771 94.7046 124.739C94.7911 124.704 94.8934 124.696 95.0117 124.716C95.13 124.736 95.2247 124.778 95.296 124.841C95.3678 124.901 95.4225 124.973 95.4601 125.057C95.4945 125.14 95.514 125.233 95.5185 125.336C95.5231 125.438 95.5175 125.54 95.5019 125.642ZM96.2016 125.762C96.233 125.558 96.2301 125.368 96.1929 125.193C96.1562 125.014 96.0893 124.857 95.992 124.722C95.8952 124.584 95.7711 124.469 95.6197 124.379C95.4688 124.286 95.2932 124.222 95.0928 124.187C94.8924 124.153 94.7066 124.155 94.5355 124.193C94.3617 124.227 94.2082 124.294 94.075 124.393C93.9423 124.488 93.8319 124.615 93.7437 124.772C93.656 124.926 93.5965 125.105 93.5652 125.31C93.5339 125.514 93.5368 125.704 93.574 125.879C93.6111 126.055 93.6781 126.212 93.7749 126.35C93.8722 126.485 93.9982 126.598 94.1529 126.689C94.3042 126.779 94.4801 126.841 94.6805 126.876C94.8809 126.91 95.0664 126.91 95.237 126.875C95.4076 126.84 95.5592 126.775 95.6919 126.679C95.825 126.58 95.9355 126.454 96.0231 126.3C96.1108 126.146 96.1703 125.967 96.2016 125.762ZM92.6033 123.425L93.3031 123.545L93.3917 122.967L92.692 122.847L92.6033 123.425ZM93.2241 126.864C93.1859 126.871 93.1356 126.869 93.0732 126.859C93.0009 126.846 92.9408 126.821 92.8928 126.782C92.841 126.746 92.8224 126.68 92.837 126.585L93.2424 123.941L92.5427 123.82L92.132 126.499C92.1117 126.631 92.1091 126.747 92.124 126.848C92.1357 126.948 92.1712 127.035 92.2306 127.109C92.2862 127.187 92.3692 127.25 92.4796 127.299C92.5895 127.352 92.7332 127.394 92.9106 127.424C92.9928 127.438 93.0677 127.444 93.1354 127.442L93.2241 126.864ZM90.0662 124.425C90.1264 124.253 90.2062 124.128 90.3058 124.05C90.402 123.972 90.5356 123.947 90.7064 123.977C90.8181 123.996 90.9087 124.032 90.9782 124.084C91.0449 124.133 91.097 124.189 91.1344 124.253C91.1685 124.317 91.1907 124.381 91.2008 124.447C91.2076 124.513 91.2089 124.57 91.2046 124.62L90.0662 124.425ZM91.1364 125.065C91.0917 125.291 91.0089 125.446 90.8881 125.53C90.7673 125.614 90.6084 125.639 90.4113 125.605C90.27 125.581 90.1537 125.525 90.0625 125.439C89.9718 125.349 89.921 125.262 89.9101 125.179L89.2941 125.073C89.3457 125.397 89.4632 125.642 89.6467 125.809C89.8302 125.975 90.0665 126.084 90.3556 126.133C90.556 126.168 90.7415 126.167 90.912 126.132C91.0831 126.094 91.2336 126.025 91.3635 125.926C91.4934 125.826 91.6022 125.7 91.6898 125.546C91.7742 125.391 91.8316 125.215 91.8619 125.017C91.8912 124.826 91.8873 124.643 91.8501 124.467C91.8129 124.292 91.746 124.135 91.6492 123.997C91.5529 123.855 91.4312 123.736 91.2841 123.64C91.1337 123.543 90.9616 123.478 90.7678 123.445C90.551 123.407 90.3555 123.418 90.1814 123.476C90.0078 123.531 89.8592 123.62 89.7356 123.744C89.6088 123.868 89.5085 124.016 89.4347 124.19C89.3609 124.363 89.3154 124.55 89.2983 124.75L91.1364 125.065ZM87.2327 123.832C87.3237 123.546 87.5186 123.429 87.8176 123.481C87.9293 123.5 88.0189 123.542 88.0864 123.608C88.1544 123.67 88.2067 123.747 88.2433 123.838C88.2772 123.925 88.2964 124.02 88.301 124.122C88.306 124.221 88.3012 124.318 88.2866 124.413C88.2724 124.506 88.2482 124.598 88.2138 124.69C88.1794 124.782 88.1348 124.864 88.08 124.936C88.0224 125.004 87.952 125.056 87.8689 125.092C87.7857 125.129 87.69 125.138 87.5816 125.119C87.414 125.09 87.293 125.022 87.2184 124.915C87.1411 124.803 87.103 124.667 87.1043 124.505L86.4291 124.389C86.4231 124.736 86.5149 125.017 86.7044 125.232C86.894 125.448 87.1579 125.584 87.4963 125.642C87.6869 125.675 87.8674 125.674 88.038 125.639C88.2058 125.6 88.3544 125.533 88.4838 125.436C88.6131 125.34 88.7212 125.219 88.8078 125.071C88.895 124.92 88.9532 124.749 88.9825 124.558C89.0129 124.361 89.013 124.173 88.9829 123.995C88.95 123.814 88.8871 123.653 88.7941 123.512C88.7016 123.367 88.5801 123.247 88.4298 123.15C88.2794 123.053 88.1007 122.987 87.8938 122.951C87.7426 122.925 87.5951 122.92 87.451 122.936C87.3037 122.951 87.1695 122.991 87.0484 123.055C86.9246 123.114 86.8189 123.199 86.7312 123.309C86.644 123.416 86.5829 123.551 86.5477 123.714L87.2327 123.832ZM85.3885 122.592L84.876 122.504L84.8041 122.974L85.3166 123.062L85.1226 124.327C85.1044 124.445 85.0725 124.521 85.0271 124.554C84.9816 124.587 84.8997 124.593 84.7814 124.572C84.742 124.566 84.7045 124.558 84.6688 124.548C84.6332 124.539 84.5995 124.528 84.5676 124.516L84.4843 125.059C84.5419 125.079 84.6066 125.097 84.6784 125.113C84.7501 125.128 84.8205 125.142 84.8895 125.154C84.9979 125.173 85.1027 125.182 85.2037 125.183C85.301 125.186 85.3908 125.173 85.4729 125.143C85.5517 125.112 85.6186 125.061 85.6734 124.989C85.7282 124.918 85.7655 124.818 85.7852 124.689L86.0163 123.182L86.4401 123.254L86.5121 122.785L86.0883 122.712L86.2058 121.946L85.506 121.826L85.3885 122.592Z" fill="black"/>
</g>
<path d="M235.274 161.637H160.049C153.551 161.637 147.446 164.887 143.655 170.422C139.865 175.957 138.978 183.015 141.194 189.413L150.351 215.361C154.585 227.498 151.631 241.157 142.868 250.145L142.818 250.196C137.009 256.391 128.788 259.895 120.172 259.895C111.902 259.895 103.828 256.391 97.4277 250.094C91.3231 243.798 87.9754 235.47 87.9754 226.685C87.9754 222.775 88.6154 218.967 89.9446 215.311L99.1015 189.312C101.317 182.964 100.382 175.906 96.5908 170.371C92.8492 164.836 86.6954 161.586 80.1969 161.586H4.92308C2.21539 161.586 0 163.871 0 166.664C0 169.457 2.21539 171.742 4.92308 171.742H80.1477C83.4954 171.742 86.5477 173.316 88.4677 176.211C90.4369 179.054 90.88 182.609 89.7477 185.859L80.5908 211.756C78.8677 216.479 77.9815 221.506 77.9815 226.634C77.9815 238.111 82.3631 248.977 90.3385 257.254L90.3877 257.305C98.6092 265.481 109.145 270 119.975 270C131.2 270 142.031 265.328 149.662 257.204C161.083 245.423 164.923 227.599 159.409 211.807L150.252 185.859C149.12 182.558 149.563 179.054 151.532 176.211C153.502 173.367 156.505 171.742 159.852 171.742H235.077C237.785 171.742 240 169.457 240 166.664C240 163.871 237.982 161.637 235.274 161.637Z" fill="#A15326"/>
<path d="M95.3106 239.228C97.0337 242.173 99.2491 244.864 102.351 247.708C102.449 247.809 102.548 247.911 102.646 247.962C107.864 252.024 114.314 254.157 120.664 254.157C125.341 254.157 129.969 253.039 134.104 250.805C144.197 245.27 150.154 233.337 148.628 221.709C147.544 214.143 143.704 207.744 139.963 201.6C136.074 195.202 132.431 189.159 132.874 182.964C132.874 182.913 132.874 182.863 132.874 182.812C133.071 177.632 136.172 172.656 139.52 168.086C139.52 168.086 139.52 168.035 139.569 168.035C141.292 165.648 143.114 163.16 144.886 160.824C148.923 155.391 153.157 149.805 156.603 143.763C160.837 136.45 165.514 125.177 163.84 112.533C163.544 110.096 161.477 108.319 159.015 108.319C156.504 108.319 154.437 110.096 154.141 112.635C152.369 127.158 140.603 138.481 129.181 149.45L128.246 150.313C121.944 156.305 114.855 163.668 109.981 172.859C106.831 178.851 104.812 185.249 102.843 191.393C100.677 198.299 98.6091 204.799 95.1137 210.588C90.0429 218.916 90.0922 230.138 95.3106 239.228ZM103.483 216.021C107.618 209.166 109.932 201.752 112.197 194.593C114.068 188.601 115.889 182.913 118.597 177.734C122.683 170.066 128.837 163.566 134.498 158.184C133.514 159.453 132.578 160.774 131.692 162.043C127.409 167.933 123.421 174.433 123.126 182.355C122.486 191.85 127.163 199.569 131.692 207.033C135.04 212.518 138.191 217.748 138.929 223.181C139.914 230.493 135.975 238.364 129.526 241.868C123.175 245.321 114.708 244.61 108.8 240.091C106.535 237.958 104.96 236.079 103.778 234.048C100.431 228.259 100.332 221.15 103.483 216.021Z" fill="#A15326"/>
<defs>
<clipPath id="clip0_411_956">
<rect width="64" height="80" fill="white" transform="matrix(-0.985581 -0.169225 -0.151556 0.988452 149.093 50.9368)"/>
</clipPath>
</defs>
</svg>
