<svg width="246" height="276" viewBox="0 0 246 276" fill="none" xmlns="http://www.w3.org/2000/svg">
<path fill-rule="evenodd" clip-rule="evenodd" d="M152.645 23.8213C154.329 23.7855 155.908 25.1646 156.077 26.8178L158.28 47.4778L183.909 107.46L193.492 124.44C194.359 125.957 193.758 128.126 192.225 129.014L188.747 131.012C191.085 139.982 196.459 141.936 200.947 141.158C205.566 140.357 209.361 136.669 207.809 130.223C205.94 122.516 206.773 117.037 208.39 113.453C209.199 111.661 210.208 110.326 211.035 109.458C211.523 108.946 211.936 108.603 212.27 108.354C216.259 104.42 221.155 103.163 225.837 103.15C232.799 103.129 239.362 105.799 242.042 106.251C243.854 106.489 245.264 108.413 244.932 110.194C244.601 111.975 242.594 113.258 240.809 112.875C233.542 111.648 223.137 106.908 216.962 113.19C216.77 113.391 216.553 113.568 216.318 113.716C216.318 113.716 216.293 113.716 215.942 114.084C215.592 114.452 215.118 115.087 214.646 116.134C213.701 118.229 212.825 121.999 214.424 128.593C216.779 138.36 210.119 146.384 202.057 147.782C194.629 149.069 186.174 144.667 182.7 134.481L180.774 135.585C179.221 136.488 176.987 135.91 176.101 134.376L166.359 117.396L128.047 64.8259L123.024 61.3038C123.006 61.287 122.988 61.2685 122.971 61.2517L111.291 52.3673C109.544 51.0247 109.782 47.8974 111.715 46.7949L150.991 24.2949C151.491 24.0021 152.066 23.8371 152.645 23.8213ZM149.848 32.7057C139.764 38.5387 129.635 44.2938 119.509 50.0538L127.119 55.889L130.661 58.4124L151.317 46.5315L149.848 32.7057Z" fill="#649973"/>
<path fill-rule="evenodd" clip-rule="evenodd" d="M129.039 0.00281333C131.28 0.0369629 133.467 0.393037 135.561 1.07567C142.223 3.24634 147.663 8.56706 151.407 16.1097L152.125 17.3502C152.566 18.1113 152.686 19.0499 152.45 19.9012C152.215 20.7525 151.627 21.5061 150.853 21.9494C137.195 29.8111 123.55 37.6011 109.872 45.4308C109.098 45.8747 108.145 46.0022 107.284 45.7773C106.424 45.5524 105.665 44.978 105.224 44.2163L104.498 42.9646C99.9186 35.9046 98.1397 28.4939 99.6625 21.6476C101.193 14.7689 106.041 8.77046 113.489 4.50865C113.547 4.47534 113.607 4.44362 113.667 4.41367L113.822 4.33728L113.921 4.28882C118.996 1.3837 124.151 -0.071525 129.039 0.00281333Z" fill="#649973"/>
<path d="M117.915 197.311L25.046 207.435C24.3962 207.505 24.0506 207.997 23.9072 208.329C23.7517 208.689 23.7101 209.101 23.7553 209.49C23.8006 209.879 23.9357 210.271 24.1693 210.589C24.3843 210.881 24.8343 211.289 25.486 211.218L118.356 201.094C119.006 201.023 119.351 200.53 119.494 200.199C119.65 199.839 119.692 199.427 119.646 199.037C119.601 198.646 119.465 198.254 119.23 197.936C119.012 197.642 118.562 197.24 117.915 197.311Z" fill="#649973" stroke="#649973" stroke-width="2"/>
<path d="M27.0978 225.075L27.0978 225.075L27.0915 225.076C26.4456 225.151 26.1021 225.64 25.959 225.972C25.8039 226.332 25.7621 226.743 25.8074 227.133C25.8526 227.522 25.9877 227.914 26.2214 228.231C26.4364 228.523 26.8863 228.931 27.538 228.86L54.0726 225.968C54.7227 225.897 55.0679 225.404 55.211 225.073C55.3665 224.713 55.4085 224.301 55.3631 223.911C55.3177 223.521 55.1828 223.129 54.9486 222.811C54.7324 222.517 54.2824 222.112 53.6324 222.183L27.0978 225.075Z" fill="#649973" stroke="#649973" stroke-width="2"/>
<path d="M79.9627 219.313L66.6954 220.759C66.0453 220.83 65.7001 221.323 65.557 221.654C65.4016 222.014 65.3596 222.426 65.405 222.816C65.4503 223.206 65.5852 223.598 65.8194 223.916C66.0356 224.209 66.4856 224.615 67.1356 224.544L80.4029 223.098C81.053 223.027 81.3983 222.534 81.5413 222.202C81.6968 221.842 81.7388 221.431 81.6934 221.04C81.648 220.65 81.5125 220.258 81.2782 219.94C81.0626 219.648 80.6128 219.242 79.9627 219.313Z" fill="#649973" stroke="#649973" stroke-width="2"/>
<path d="M75.5841 237.654L29.1497 242.716C28.4997 242.787 28.1541 243.279 28.0107 243.612C27.8553 243.972 27.8139 244.384 27.8592 244.773C27.9045 245.163 28.0396 245.554 28.2732 245.872C28.4882 246.164 28.9382 246.572 29.5899 246.501L76.0243 241.439C76.6744 241.368 77.0197 240.876 77.1627 240.544C77.3182 240.184 77.3602 239.773 77.3148 239.382C77.2694 238.992 77.1339 238.599 76.8996 238.282C76.684 237.99 76.2342 237.584 75.5841 237.654Z" fill="#649973" stroke="#649973" stroke-width="2"/>
<rect x="-3.88461" y="-3.09792" width="136.483" height="83.381" rx="18.5" transform="matrix(0.994134 -0.108157 0.115755 0.993278 6.33581 193.691)" stroke="#649973" stroke-width="7"/>
<path d="M70.6593 161.421C69.9996 163.529 71.1833 165.743 73.3031 166.364C75.423 166.986 77.6763 165.781 78.336 163.673L70.6593 161.421ZM96.976 100.181C95.9436 98.2502 93.5133 97.5374 91.5478 98.5886L59.5188 115.719C57.5534 116.77 56.797 119.187 57.8295 121.118C58.862 123.048 61.2923 123.761 63.2577 122.71L91.7279 107.483L106.683 135.446C107.716 137.376 110.146 138.089 112.112 137.038C114.077 135.986 114.834 133.569 113.801 131.639L96.976 100.181ZM78.336 163.673L97.2556 103.21L89.5789 100.958L70.6593 161.421L78.336 163.673Z" fill="#649973"/>
</svg>
