<svg width="102" height="66" viewBox="0 0 102 66" fill="none" xmlns="http://www.w3.org/2000/svg">
<path d="M10.9743 50.8285V52.021V53.209H10.4478L10.3668 52.327H8.18429V51.697H10.3668L10.4478 50.8285H10.9743ZM11.7078 48.43H12.0993L12.1713 50.4865L11.6448 50.5L11.1858 49.0465L11.6043 49.3525H8.14379V48.718H11.3253L11.7078 48.43ZM8.71079 48.718V54.388L9.54779 54.5995V55H6.95579V54.5995L7.79279 54.388V49.33L6.95579 49.123V48.718H8.71079ZM14.7594 54.496C15.0654 54.496 15.3249 54.439 15.5379 54.325C15.7509 54.211 15.9129 54.037 16.0239 53.803C16.1349 53.566 16.1904 53.2645 16.1904 52.8985C16.1904 52.4995 16.1394 52.1665 16.0374 51.8995C15.9384 51.6295 15.7884 51.427 15.5874 51.292C15.3864 51.157 15.1329 51.0895 14.8269 51.0895C14.5209 51.0895 14.2614 51.1465 14.0484 51.2605C13.8354 51.3715 13.6719 51.5455 13.5579 51.7825C13.4469 52.0165 13.3914 52.3165 13.3914 52.6825C13.3914 53.0815 13.4409 53.416 13.5399 53.686C13.6419 53.953 13.7949 54.1555 13.9989 54.2935C14.2029 54.4285 14.4564 54.496 14.7594 54.496ZM14.7594 55.09C14.2974 55.09 13.8984 54.9955 13.5624 54.8065C13.2264 54.6175 12.9669 54.352 12.7839 54.01C12.6039 53.665 12.5139 53.263 12.5139 52.804C12.5139 52.339 12.6084 51.934 12.7974 51.589C12.9894 51.244 13.2579 50.9755 13.6029 50.7835C13.9509 50.5915 14.3589 50.4955 14.8269 50.4955C15.2889 50.4955 15.6879 50.59 16.0239 50.779C16.3599 50.968 16.6179 51.2335 16.7979 51.5755C16.9779 51.9175 17.0679 52.3195 17.0679 52.7815C17.0679 53.2435 16.9734 53.6485 16.7844 53.9965C16.5954 54.3415 16.3269 54.61 15.9789 54.802C15.6339 54.994 15.2274 55.09 14.7594 55.09ZM20.8935 50.509C21.0375 50.509 21.153 50.551 21.24 50.635C21.327 50.716 21.3705 50.83 21.3705 50.977C21.3705 51.154 21.3405 51.292 21.2805 51.391C21.2205 51.487 21.15 51.535 21.069 51.535C20.943 51.535 20.8185 51.529 20.6955 51.517C20.5725 51.505 20.4495 51.493 20.3265 51.481C20.2035 51.469 20.0805 51.463 19.9575 51.463C19.8855 51.463 19.8135 51.469 19.7415 51.481C19.6695 51.493 19.5945 51.514 19.5165 51.544C19.4415 51.571 19.362 51.6115 19.278 51.6655L19.1475 51.508C19.3845 51.304 19.59 51.1375 19.764 51.0085C19.938 50.8765 20.091 50.7745 20.223 50.7025C20.355 50.6305 20.4735 50.581 20.5785 50.554C20.6865 50.524 20.7915 50.509 20.8935 50.509ZM19.44 51.4225V54.4465L20.25 54.6355V55H17.874V54.6355L18.6075 54.4465V51.643C18.5685 51.613 18.5085 51.574 18.4275 51.526C18.3495 51.478 18.258 51.424 18.153 51.364C18.051 51.304 17.9445 51.244 17.8335 51.184V51.0175L19.089 50.4775H19.242L19.44 51.4225ZM27.3523 52.1605L27.2128 52.687C26.7388 52.756 26.3578 52.828 26.0698 52.903C25.7848 52.975 25.5673 53.053 25.4173 53.137C25.2673 53.221 25.1668 53.314 25.1158 53.416C25.0648 53.515 25.0393 53.629 25.0393 53.758C25.0393 53.974 25.1053 54.1375 25.2373 54.2485C25.3693 54.3595 25.5628 54.415 25.8178 54.415C26.0068 54.415 26.1778 54.379 26.3308 54.307C26.4868 54.235 26.6098 54.139 26.6998 54.019C26.7898 53.896 26.8348 53.7595 26.8348 53.6095V51.985C26.8348 51.673 26.7658 51.4435 26.6278 51.2965C26.4928 51.1465 26.2498 51.0715 25.8988 51.0715C25.7308 51.0715 25.5748 51.082 25.4308 51.103C25.2868 51.121 25.1503 51.148 25.0213 51.184L25.3363 50.887C25.3123 51.001 25.2883 51.1045 25.2643 51.1975C25.2403 51.2875 25.2148 51.37 25.1878 51.445C25.1608 51.517 25.1308 51.586 25.0978 51.652C25.0468 51.754 24.9808 51.82 24.8998 51.85C24.8218 51.877 24.7288 51.8905 24.6208 51.8905C24.4588 51.8905 24.3343 51.859 24.2473 51.796C24.1633 51.73 24.1213 51.652 24.1213 51.562C24.1213 51.46 24.1723 51.349 24.2743 51.229C24.3793 51.109 24.5233 50.9935 24.7063 50.8825C24.8893 50.7715 25.1053 50.6815 25.3543 50.6125C25.6033 50.5405 25.8733 50.5045 26.1643 50.5045C26.5333 50.5045 26.8273 50.557 27.0463 50.662C27.2653 50.767 27.4228 50.917 27.5188 51.112C27.6178 51.307 27.6673 51.538 27.6673 51.805V53.92C27.6673 54.031 27.6853 54.1225 27.7213 54.1945C27.7573 54.2635 27.8098 54.3145 27.8788 54.3475C27.9508 54.3805 28.0378 54.397 28.1398 54.397C28.2088 54.397 28.2823 54.3895 28.3603 54.3745C28.4383 54.3595 28.5178 54.34 28.5988 54.316V54.6715C28.4608 54.8065 28.3108 54.907 28.1488 54.973C27.9898 55.039 27.8383 55.072 27.6943 55.072C27.5173 55.072 27.3658 55.03 27.2398 54.946C27.1138 54.859 27.0163 54.73 26.9473 54.559C26.8813 54.385 26.8438 54.166 26.8348 53.902L26.8708 53.8885C26.8318 54.1315 26.7508 54.343 26.6278 54.523C26.5048 54.703 26.3443 54.8425 26.1463 54.9415C25.9513 55.0405 25.7248 55.09 25.4668 55.09C25.0438 55.09 24.7138 54.988 24.4768 54.784C24.2428 54.58 24.1258 54.2905 24.1258 53.9155C24.1258 53.6995 24.1678 53.506 24.2518 53.335C24.3388 53.161 24.4963 53.005 24.7243 52.867C24.9553 52.726 25.2823 52.5985 25.7053 52.4845C26.1283 52.3705 26.6773 52.2625 27.3523 52.1605ZM32.8922 54.4465L33.6482 54.6355V55H31.3262V54.6355L32.0597 54.4465V50.311C32.0597 49.99 32.1122 49.711 32.2172 49.474C32.3252 49.234 32.4737 49.036 32.6627 48.88C32.8547 48.721 33.0782 48.6025 33.3332 48.5245C33.5882 48.4435 33.8657 48.403 34.1657 48.403C34.4357 48.403 34.6682 48.4225 34.8632 48.4615C35.0582 48.5005 35.2367 48.5575 35.3987 48.6325H35.0972L35.6642 48.394H35.8307L35.7497 49.2715V54.4465L36.4562 54.6355V55H34.1837V54.6355L34.9172 54.4465V49.3525C34.8242 49.2295 34.7012 49.132 34.5482 49.06C34.3952 48.985 34.2167 48.9475 34.0127 48.9475C33.7817 48.9475 33.5822 48.985 33.4142 49.06C33.2462 49.132 33.1172 49.2445 33.0272 49.3975C32.9372 49.5505 32.8922 49.7485 32.8922 49.9915V54.4465ZM34.2737 50.5855L34.2512 51.211H32.2622L32.0597 51.319L31.2137 51.0715V50.8195L32.1317 50.5045L32.4782 50.5855H34.2737ZM39.404 54.496C39.71 54.496 39.9695 54.439 40.1825 54.325C40.3955 54.211 40.5575 54.037 40.6685 53.803C40.7795 53.566 40.835 53.2645 40.835 52.8985C40.835 52.4995 40.784 52.1665 40.682 51.8995C40.583 51.6295 40.433 51.427 40.232 51.292C40.031 51.157 39.7775 51.0895 39.4715 51.0895C39.1655 51.0895 38.906 51.1465 38.693 51.2605C38.48 51.3715 38.3165 51.5455 38.2025 51.7825C38.0915 52.0165 38.036 52.3165 38.036 52.6825C38.036 53.0815 38.0855 53.416 38.1845 53.686C38.2865 53.953 38.4395 54.1555 38.6435 54.2935C38.8475 54.4285 39.101 54.496 39.404 54.496ZM39.404 55.09C38.942 55.09 38.543 54.9955 38.207 54.8065C37.871 54.6175 37.6115 54.352 37.4285 54.01C37.2485 53.665 37.1585 53.263 37.1585 52.804C37.1585 52.339 37.253 51.934 37.442 51.589C37.634 51.244 37.9025 50.9755 38.2475 50.7835C38.5955 50.5915 39.0035 50.4955 39.4715 50.4955C39.9335 50.4955 40.3325 50.59 40.6685 50.779C41.0045 50.968 41.2625 51.2335 41.4425 51.5755C41.6225 51.9175 41.7125 52.3195 41.7125 52.7815C41.7125 53.2435 41.618 53.6485 41.429 53.9965C41.24 54.3415 40.9715 54.61 40.6235 54.802C40.2785 54.994 39.872 55.09 39.404 55.09ZM43.909 53.488C43.909 53.677 43.939 53.83 43.999 53.947C44.062 54.064 44.164 54.1495 44.305 54.2035C44.446 54.2545 44.632 54.28 44.863 54.28C45.064 54.28 45.2665 54.256 45.4705 54.208C45.6775 54.16 45.8545 54.1 46.0015 54.028L46.096 54.226C45.862 54.415 45.6655 54.568 45.5065 54.685C45.3505 54.799 45.214 54.886 45.097 54.946C44.983 55.003 44.872 55.0405 44.764 55.0585C44.656 55.0795 44.533 55.09 44.395 55.09C43.939 55.09 43.6045 54.9745 43.3915 54.7435C43.1815 54.5095 43.0765 54.163 43.0765 53.704V51.2515L42.298 50.9545V50.5855L43.9945 50.536L43.909 51.184V53.488ZM46.2265 55.0855L45.9565 54.2755V51.2515L45.205 50.9545V50.5855L46.87 50.536L46.7935 51.184V54.037C46.8205 54.052 46.8655 54.0775 46.9285 54.1135C46.9915 54.1465 47.062 54.1825 47.14 54.2215C47.221 54.2605 47.2975 54.298 47.3695 54.334C47.4445 54.367 47.506 54.3925 47.554 54.4105V54.586L46.3795 55.0855H46.2265ZM51.1542 50.509C51.2982 50.509 51.4137 50.551 51.5007 50.635C51.5877 50.716 51.6312 50.83 51.6312 50.977C51.6312 51.154 51.6012 51.292 51.5412 51.391C51.4812 51.487 51.4107 51.535 51.3297 51.535C51.2037 51.535 51.0792 51.529 50.9562 51.517C50.8332 51.505 50.7102 51.493 50.5872 51.481C50.4642 51.469 50.3412 51.463 50.2182 51.463C50.1462 51.463 50.0742 51.469 50.0022 51.481C49.9302 51.493 49.8552 51.514 49.7772 51.544C49.7022 51.571 49.6227 51.6115 49.5387 51.6655L49.4082 51.508C49.6452 51.304 49.8507 51.1375 50.0247 51.0085C50.1987 50.8765 50.3517 50.7745 50.4837 50.7025C50.6157 50.6305 50.7342 50.581 50.8392 50.554C50.9472 50.524 51.0522 50.509 51.1542 50.509ZM49.7007 51.4225V54.4465L50.5107 54.6355V55H48.1347V54.6355L48.8682 54.4465V51.643C48.8292 51.613 48.7692 51.574 48.6882 51.526C48.6102 51.478 48.5187 51.424 48.4137 51.364C48.3117 51.304 48.2052 51.244 48.0942 51.184V51.0175L49.3497 50.4775H49.5027L49.7007 51.4225ZM53.2798 49.582C53.0818 49.582 52.9198 49.531 52.7938 49.429C52.6708 49.327 52.6093 49.18 52.6093 48.988C52.6093 48.796 52.6708 48.649 52.7938 48.547C52.9198 48.445 53.0818 48.394 53.2798 48.394C53.4808 48.394 53.6428 48.445 53.7658 48.547C53.8888 48.649 53.9503 48.796 53.9503 48.988C53.9503 49.18 53.8888 49.327 53.7658 49.429C53.6428 49.531 53.4808 49.582 53.2798 49.582ZM53.8288 50.4955L53.7748 51.4315V54.4465L54.4813 54.6355V55H52.2088V54.6355L52.9423 54.4465V51.562C52.9093 51.538 52.8478 51.5035 52.7578 51.4585C52.6708 51.4105 52.5733 51.361 52.4653 51.31C52.3573 51.256 52.2568 51.2065 52.1638 51.1615V50.923L53.6128 50.4955H53.8288ZM57.1558 50.4955C57.3688 50.4955 57.5728 50.5135 57.7678 50.5495C57.9658 50.5825 58.1878 50.638 58.4338 50.716L58.5508 51.8815H58.0378L57.5428 50.77L58.1593 51.238C57.9673 51.157 57.7783 51.097 57.5923 51.058C57.4093 51.019 57.2398 50.9995 57.0838 50.9995C56.7448 50.9995 56.4883 51.0505 56.3143 51.1525C56.1403 51.2545 56.0533 51.4015 56.0533 51.5935C56.0533 51.7855 56.1103 51.931 56.2243 52.03C56.3413 52.126 56.4943 52.1965 56.6833 52.2415C56.8723 52.2865 57.0778 52.33 57.2998 52.372C57.4678 52.405 57.6358 52.4455 57.8038 52.4935C57.9718 52.5385 58.1263 52.606 58.2673 52.696C58.4083 52.783 58.5208 52.906 58.6048 53.065C58.6888 53.221 58.7308 53.425 58.7308 53.677C58.7308 53.98 58.6543 54.2365 58.5013 54.4465C58.3483 54.6535 58.1233 54.811 57.8263 54.919C57.5293 55.024 57.1633 55.0765 56.7283 55.0765C56.5033 55.0765 56.2663 55.057 56.0173 55.018C55.7683 54.982 55.5583 54.9295 55.3873 54.8605L55.1893 53.614H55.7203L56.2828 54.847L55.7293 54.406C55.8403 54.448 55.9513 54.481 56.0623 54.505C56.1733 54.526 56.2843 54.541 56.3953 54.55C56.5063 54.556 56.6143 54.559 56.7193 54.559C57.1393 54.559 57.4528 54.499 57.6598 54.379C57.8668 54.259 57.9703 54.0775 57.9703 53.8345C57.9703 53.6635 57.9253 53.53 57.8353 53.434C57.7453 53.338 57.6268 53.266 57.4798 53.218C57.3328 53.17 57.1723 53.1325 56.9983 53.1055C56.8273 53.0755 56.6578 53.0425 56.4898 53.0065C56.2708 52.9585 56.0698 52.8925 55.8868 52.8085C55.7068 52.7215 55.5643 52.5955 55.4593 52.4305C55.3543 52.2625 55.3018 52.036 55.3018 51.751C55.3018 51.478 55.3768 51.2485 55.5268 51.0625C55.6768 50.8765 55.8913 50.7355 56.1703 50.6395C56.4493 50.5435 56.7778 50.4955 57.1558 50.4955ZM62.5307 54.6355L63.2417 54.4465V52.1605C63.2417 51.9625 63.2057 51.8005 63.1337 51.6745C63.0647 51.5485 62.9537 51.4555 62.8007 51.3955C62.6507 51.3325 62.4527 51.301 62.2067 51.301C61.9847 51.301 61.7627 51.328 61.5407 51.382C61.3217 51.433 61.1327 51.499 60.9737 51.58L60.8747 51.4135C61.1267 51.2095 61.3352 51.0475 61.5002 50.9275C61.6682 50.8045 61.8137 50.713 61.9367 50.653C62.0597 50.59 62.1782 50.548 62.2922 50.527C62.4092 50.506 62.5412 50.4955 62.6882 50.4955C63.1652 50.4955 63.5147 50.617 63.7367 50.86C63.9617 51.103 64.0742 51.4705 64.0742 51.9625V54.4465L64.8122 54.6355V55H62.5307V54.6355ZM61.7027 55H59.4302V54.6355L60.1637 54.4465V49.3885C60.1247 49.3645 60.0557 49.3315 59.9567 49.2895C59.8577 49.2475 59.7452 49.2025 59.6192 49.1545C59.4932 49.1035 59.3717 49.057 59.2547 49.015V48.727L60.9107 48.394H61.0772L60.9962 49.2715V54.4465L61.7027 54.6355V55ZM66.4634 49.582C66.2654 49.582 66.1034 49.531 65.9774 49.429C65.8544 49.327 65.7929 49.18 65.7929 48.988C65.7929 48.796 65.8544 48.649 65.9774 48.547C66.1034 48.445 66.2654 48.394 66.4634 48.394C66.6644 48.394 66.8264 48.445 66.9494 48.547C67.0724 48.649 67.1339 48.796 67.1339 48.988C67.1339 49.18 67.0724 49.327 66.9494 49.429C66.8264 49.531 66.6644 49.582 66.4634 49.582ZM67.0124 50.4955L66.9584 51.4315V54.4465L67.6649 54.6355V55H65.3924V54.6355L66.1259 54.4465V51.562C66.0929 51.538 66.0314 51.5035 65.9414 51.4585C65.8544 51.4105 65.7569 51.361 65.6489 51.31C65.5409 51.256 65.4404 51.2065 65.3474 51.1615V50.923L66.7964 50.4955H67.0124ZM69.8804 51.4225V54.4465L70.5914 54.6355V55H68.3144V54.6355L69.0479 54.4465V51.643C68.9999 51.607 68.9099 51.55 68.7779 51.472C68.6459 51.391 68.4779 51.295 68.2739 51.184V51.0175L69.5069 50.4775H69.6599L69.8804 51.4225ZM71.4194 54.6355L72.1259 54.4465V52.1605C72.1259 51.9625 72.0899 51.8005 72.0179 51.6745C71.9489 51.5485 71.8379 51.4555 71.6849 51.3955C71.5349 51.3325 71.3369 51.301 71.0909 51.301C70.8719 51.301 70.6514 51.328 70.4294 51.382C70.2074 51.433 70.0169 51.499 69.8579 51.58L69.7589 51.4135C70.0109 51.2095 70.2194 51.0475 70.3844 50.9275C70.5524 50.8045 70.6979 50.713 70.8209 50.653C70.9439 50.59 71.0639 50.548 71.1809 50.527C71.2979 50.506 71.4284 50.4955 71.5724 50.4955C72.0494 50.4955 72.3989 50.617 72.6209 50.86C72.8459 51.103 72.9584 51.4705 72.9584 51.9625V54.4465L73.6964 54.6355V55H71.4194V54.6355ZM76.2356 57.1645C75.8486 57.1645 75.5156 57.139 75.2366 57.088C74.9606 57.037 74.7341 56.9635 74.5571 56.8675C74.3801 56.7715 74.2496 56.6545 74.1656 56.5165C74.0846 56.3785 74.0441 56.2225 74.0441 56.0485C74.0441 55.9255 74.0756 55.8055 74.1386 55.6885C74.2016 55.5745 74.3036 55.471 74.4446 55.378C74.5856 55.288 74.7671 55.213 74.9891 55.153C75.2111 55.093 75.4811 55.0555 75.7991 55.0405H76.1366V55.1305C75.8306 55.1485 75.5906 55.192 75.4166 55.261C75.2456 55.33 75.1256 55.4185 75.0566 55.5265C74.9876 55.6375 74.9531 55.762 74.9531 55.9C74.9531 56.065 74.9966 56.2015 75.0836 56.3095C75.1736 56.4205 75.3146 56.5015 75.5066 56.5525C75.7016 56.6035 75.9566 56.629 76.2716 56.629C76.6496 56.629 76.9601 56.5975 77.2031 56.5345C77.4491 56.4745 77.6306 56.3845 77.7476 56.2645C77.8676 56.1475 77.9276 56.005 77.9276 55.837C77.9276 55.726 77.9066 55.63 77.8646 55.549C77.8256 55.468 77.7476 55.4005 77.6306 55.3465C77.5166 55.2925 77.3486 55.2505 77.1266 55.2205C76.9076 55.1935 76.6181 55.1785 76.2581 55.1755C75.8981 55.1695 75.5996 55.144 75.3626 55.099C75.1256 55.054 74.9396 54.9925 74.8046 54.9145C74.6696 54.8365 74.5736 54.7435 74.5166 54.6355C74.4626 54.5275 74.4356 54.4075 74.4356 54.2755C74.4356 54.0775 74.5331 53.9065 74.7281 53.7625C74.9261 53.6155 75.2456 53.518 75.6866 53.47L75.7361 53.5735C75.5651 53.5915 75.4376 53.6305 75.3536 53.6905C75.2726 53.7475 75.2321 53.8375 75.2321 53.9605C75.2321 54.0355 75.2471 54.1015 75.2771 54.1585C75.3071 54.2125 75.3716 54.2575 75.4706 54.2935C75.5696 54.3295 75.7211 54.358 75.9251 54.379C76.1291 54.397 76.4036 54.409 76.7486 54.415C77.0966 54.421 77.3966 54.448 77.6486 54.496C77.9036 54.541 78.1121 54.6115 78.2741 54.7075C78.4391 54.8035 78.5606 54.928 78.6386 55.081C78.7196 55.234 78.7601 55.4215 78.7601 55.6435C78.7601 55.9435 78.6626 56.2075 78.4676 56.4355C78.2756 56.6665 77.9906 56.845 77.6126 56.971C77.2376 57.1 76.7786 57.1645 76.2356 57.1645ZM76.2086 53.641C75.8306 53.641 75.5021 53.578 75.2231 53.452C74.9441 53.323 74.7296 53.1415 74.5796 52.9075C74.4296 52.6705 74.3546 52.3915 74.3546 52.0705C74.3546 51.7435 74.4296 51.463 74.5796 51.229C74.7296 50.992 74.9441 50.8105 75.2231 50.6845C75.5021 50.5585 75.8306 50.4955 76.2086 50.4955C76.4936 50.4955 76.7486 50.5315 76.9736 50.6035C77.1986 50.6755 77.3906 50.7805 77.5496 50.9185C77.7086 51.0535 77.8301 51.2185 77.9141 51.4135C78.0011 51.6055 78.0446 51.8245 78.0446 52.0705C78.0446 52.3915 77.9696 52.6705 77.8196 52.9075C77.6726 53.1445 77.4611 53.326 77.1851 53.452C76.9121 53.578 76.5866 53.641 76.2086 53.641ZM76.2446 53.11C76.5296 53.11 76.7651 53.029 76.9511 52.867C77.1401 52.702 77.2346 52.447 77.2346 52.102C77.2346 51.745 77.1491 51.4765 76.9781 51.2965C76.8101 51.1135 76.5491 51.022 76.1951 51.022C75.9071 51.022 75.6656 51.1045 75.4706 51.2695C75.2756 51.4315 75.1781 51.6865 75.1781 52.0345C75.1781 52.3885 75.2651 52.657 75.4391 52.84C75.6161 53.02 75.8846 53.11 76.2446 53.11ZM76.9511 50.995L76.7126 50.5765C76.9166 50.5855 77.1206 50.587 77.3246 50.581C77.5286 50.572 77.7206 50.5615 77.9006 50.5495C78.0836 50.5345 78.2456 50.5225 78.3866 50.5135C78.5276 50.5015 78.6386 50.4955 78.7196 50.4955C78.7766 50.4955 78.8201 50.521 78.8501 50.572C78.8801 50.62 78.8951 50.6995 78.8951 50.8105C78.8951 50.9455 78.8756 51.058 78.8366 51.148C78.7976 51.235 78.7526 51.2785 78.7016 51.2785C78.6446 51.2785 78.5786 51.2695 78.5036 51.2515C78.4286 51.2335 78.3296 51.211 78.2066 51.184C78.0836 51.157 77.9216 51.127 77.7206 51.094C77.5196 51.061 77.2631 51.028 76.9511 50.995ZM83.1318 54.4465L83.8383 54.6355V55H81.5658V54.6355L82.2993 54.4465V49.3885C82.2603 49.3645 82.1913 49.3315 82.0923 49.2895C81.9933 49.2475 81.8808 49.2025 81.7548 49.1545C81.6288 49.1035 81.5073 49.057 81.3903 49.015V48.727L83.0463 48.394H83.2128L83.1318 49.2715V54.4465ZM85.5708 49.582C85.3728 49.582 85.2108 49.531 85.0848 49.429C84.9618 49.327 84.9003 49.18 84.9003 48.988C84.9003 48.796 84.9618 48.649 85.0848 48.547C85.2108 48.445 85.3728 48.394 85.5708 48.394C85.7718 48.394 85.9338 48.445 86.0568 48.547C86.1798 48.649 86.2413 48.796 86.2413 48.988C86.2413 49.18 86.1798 49.327 86.0568 49.429C85.9338 49.531 85.7718 49.582 85.5708 49.582ZM86.1198 50.4955L86.0658 51.4315V54.4465L86.7723 54.6355V55H84.4998V54.6355L85.2333 54.4465V51.562C85.2003 51.538 85.1388 51.5035 85.0488 51.4585C84.9618 51.4105 84.8643 51.361 84.7563 51.31C84.6483 51.256 84.5478 51.2065 84.4548 51.1615V50.923L85.9038 50.4955H86.1198ZM88.3803 51.211L88.1778 51.319L87.3318 51.0715V50.8195L88.2498 50.5045L88.4073 50.5855H90.6258L90.6078 51.211H88.3803ZM89.0103 54.4465L89.8383 54.6355V55H87.4443V54.6355L88.1778 54.4465V50.311C88.1778 49.99 88.2303 49.7095 88.3353 49.4695C88.4433 49.2295 88.5948 49.03 88.7898 48.871C88.9848 48.712 89.2143 48.5935 89.4783 48.5155C89.7453 48.4345 90.0363 48.394 90.3513 48.394C90.6033 48.394 90.8148 48.4105 90.9858 48.4435C91.1598 48.4735 91.2978 48.5185 91.3998 48.5785C91.5048 48.6355 91.5798 48.7045 91.6248 48.7855C91.6728 48.8635 91.6968 48.9505 91.6968 49.0465C91.6968 49.2025 91.6458 49.3255 91.5438 49.4155C91.4448 49.5055 91.3188 49.5505 91.1658 49.5505C91.1088 49.5505 91.0518 49.5205 90.9948 49.4605C90.9408 49.4005 90.8763 49.3315 90.8013 49.2535C90.7263 49.1725 90.6318 49.102 90.5178 49.042C90.4068 48.982 90.2688 48.952 90.1038 48.952C89.8668 48.952 89.6673 48.9895 89.5053 49.0645C89.3433 49.1365 89.2203 49.249 89.1363 49.402C89.0523 49.555 89.0103 49.7515 89.0103 49.9915V54.4465ZM93.1986 50.4955C93.6366 50.4955 93.9906 50.5855 94.2606 50.7655C94.5336 50.9425 94.7346 51.202 94.8636 51.544C94.9956 51.886 95.0661 52.3045 95.0751 52.7995H91.7901L91.7721 52.264L94.4721 52.237L94.2021 52.354C94.1901 52.051 94.1421 51.805 94.0581 51.616C93.9771 51.424 93.8616 51.283 93.7116 51.193C93.5616 51.103 93.3801 51.058 93.1671 51.058C92.9061 51.058 92.6826 51.1135 92.4966 51.2245C92.3106 51.3355 92.1681 51.505 92.0691 51.733C91.9701 51.961 91.9206 52.255 91.9206 52.615C91.9206 53.014 91.9851 53.344 92.1141 53.605C92.2461 53.863 92.4396 54.055 92.6946 54.181C92.9526 54.304 93.2721 54.3655 93.6531 54.3655C93.8301 54.3655 93.9981 54.349 94.1571 54.316C94.3191 54.283 94.4721 54.2395 94.6161 54.1855C94.7601 54.1315 94.8966 54.073 95.0256 54.01L95.0571 54.397C94.8711 54.541 94.6746 54.6655 94.4676 54.7705C94.2636 54.8725 94.0596 54.9505 93.8556 55.0045C93.6516 55.0615 93.4566 55.09 93.2706 55.09C92.8326 55.09 92.4501 55.0015 92.1231 54.8245C91.7991 54.6475 91.5456 54.3925 91.3626 54.0595C91.1826 53.7265 91.0926 53.3245 91.0926 52.8535C91.0926 52.3825 91.1796 51.97 91.3536 51.616C91.5276 51.262 91.7721 50.9875 92.0871 50.7925C92.4021 50.5945 92.7726 50.4955 93.1986 50.4955Z" fill="#FFF0E8"/>
<path d="M25.398 44.8C22.598 44.8 19.998 44.0667 17.598 42.6C15.198 41.1333 13.2913 39.1867 11.878 36.76C10.4913 34.3067 9.79797 31.68 9.79797 28.88C9.79797 26.1067 10.5046 23.52 11.918 21.12C13.3313 18.6933 15.238 16.7733 17.638 15.36C20.038 13.92 22.638 13.2 25.438 13.2C28.2646 13.2 30.8646 13.9067 33.238 15.32C35.6113 16.7333 37.4913 18.6533 38.878 21.08C40.2913 23.48 40.998 26.08 40.998 28.88C40.998 31.76 40.2913 34.4267 38.878 36.88C37.4913 39.3067 35.598 41.24 33.198 42.68C30.8246 44.0933 28.2246 44.8 25.398 44.8ZM25.398 43.64C27.958 43.64 30.3313 42.9867 32.518 41.68C34.7046 40.3467 36.438 38.56 37.718 36.32C39.0246 34.0533 39.678 31.6 39.678 28.96C39.678 26.3467 39.038 23.92 37.758 21.68C36.478 19.44 34.7446 17.6667 32.558 16.36C30.3713 15.0267 27.998 14.36 25.438 14.36C22.8513 14.36 20.4646 15.0267 18.278 16.36C16.0913 17.6667 14.3446 19.44 13.038 21.68C11.758 23.92 11.118 26.3467 11.118 28.96C11.118 31.6 11.758 34.0533 13.038 36.32C14.3446 38.56 16.0913 40.3467 18.278 41.68C20.4646 42.9867 22.838 43.64 25.398 43.64ZM52.3189 44.56C48.9856 44.56 46.3989 43.1867 44.5589 40.44V38.28C45.2789 39.88 46.3189 41.1333 47.6789 42.04C49.0656 42.9467 50.7189 43.4 52.6389 43.4C53.9722 43.4 55.1989 43.1067 56.3189 42.52C57.4656 41.9333 58.3722 41.1067 59.0389 40.04C59.7056 38.9733 60.0389 37.7467 60.0389 36.36C60.0389 35.1067 59.8256 34.0267 59.3989 33.12C58.9722 32.2133 58.2656 31.3467 57.2789 30.52C56.2922 29.6667 54.8656 28.6667 52.9989 27.52L51.7189 26.72C50.5456 26 49.5989 25.36 48.8789 24.8C48.1589 24.24 47.5322 23.5867 46.9989 22.84C46.3056 21.8 45.9589 20.6 45.9589 19.24C45.9589 17.4267 46.5456 16.0133 47.7189 15C48.8922 13.9867 50.3856 13.48 52.1989 13.48C54.6522 13.48 56.5989 14.3867 58.0389 16.2V18.24C57.4256 17.12 56.5856 16.24 55.5189 15.6C54.4522 14.96 53.2789 14.64 51.9989 14.64C50.6656 14.64 49.5456 15.0533 48.6389 15.88C47.7322 16.7067 47.2789 17.8133 47.2789 19.2C47.2789 20.56 47.6922 21.7333 48.5189 22.72C49.3722 23.68 50.7989 24.7333 52.7989 25.88C55.2522 27.32 57.1589 28.6267 58.5189 29.8C59.4789 30.68 60.1722 31.6533 60.5989 32.72C61.0522 33.7867 61.2789 34.9733 61.2789 36.28C61.2789 37.9333 60.8922 39.3867 60.1189 40.64C59.3456 41.8933 58.2789 42.8667 56.9189 43.56C55.5589 44.2267 54.0256 44.56 52.3189 44.56ZM80.197 44.8C77.397 44.8 74.8237 44.12 72.477 42.76C70.1304 41.3733 68.2637 39.48 66.877 37.08C65.517 34.6533 64.837 31.9333 64.837 28.92C64.837 26.0133 65.5437 23.36 66.957 20.96C68.397 18.56 70.3037 16.6667 72.677 15.28C75.077 13.8933 77.6237 13.2 80.317 13.2C82.1837 13.2 83.6637 13.3733 84.757 13.72C85.8504 14.04 87.117 14.6133 88.557 15.44V16.92C87.197 15.9867 85.9304 15.3333 84.757 14.96C83.6104 14.56 82.1704 14.36 80.437 14.36C77.797 14.36 75.3837 15.04 73.197 16.4C71.037 17.7333 69.317 19.5333 68.037 21.8C66.7837 24.04 66.157 26.4533 66.157 29.04C66.157 31.6533 66.797 34.08 68.077 36.32C69.357 38.56 71.0504 40.3467 73.157 41.68C75.2904 42.9867 77.5837 43.64 80.037 43.64C81.797 43.64 83.3304 43.44 84.637 43.04C85.9437 42.6133 87.2504 41.96 88.557 41.08V42.56C87.277 43.3333 85.957 43.8933 84.597 44.24C83.2637 44.6133 81.797 44.8 80.197 44.8Z" fill="#FFF0E8"/>
</svg>
