<svg width="77" height="127" viewBox="0 0 77 127" fill="none" xmlns="http://www.w3.org/2000/svg">
<path d="M57.1257 125.372C57.7163 126.305 58.9524 126.581 59.8865 125.99L75.1094 116.357C76.0435 115.766 76.322 114.531 75.7314 113.599C75.1408 112.666 73.9047 112.39 72.9706 112.981L59.4391 121.543L50.884 108.038C50.2933 107.106 49.0573 106.829 48.1231 107.42C47.189 108.012 46.9105 109.247 47.5011 110.179L57.1257 125.372ZM0.46609 3.63456C58.237 44.2845 62.0391 100.919 56.8649 123.865L60.7693 124.739C66.2414 100.472 62.0695 42.0882 2.77374 0.365357L0.46609 3.63456Z" fill="#FFF0E8"/>
</svg>
