<?xml version="1.0" encoding="UTF-8"?>
<svg id="Layer_1" data-name="Layer 1" xmlns="http://www.w3.org/2000/svg" viewBox="0 0 504 504">
  <path d="m4.35,240.71c-2.8,3.09-4.35,7.11-4.35,11.29s1.55,8.19,4.35,11.28c4.5,4.97,111.87,121.7,247.65,121.7s243.14-116.73,247.65-121.7c2.8-3.09,4.35-7.11,4.35-11.28s-1.55-8.19-4.35-11.29c-4.5-4.97-111.86-121.69-247.65-121.69S8.86,235.74,4.35,240.71h0Zm247.65,102.04c-24.07,0-47.15-9.56-64.17-26.58s-26.58-40.11-26.58-64.18,9.56-47.15,26.58-64.17,40.11-26.58,64.17-26.58,47.16,9.56,64.18,26.58,26.58,40.1,26.58,64.18c-.02,24.06-9.59,47.13-26.61,64.14-17.02,17.02-40.09,26.59-64.15,26.61h0Zm-97.22-168.16c-17.56,21.98-27.13,49.27-27.13,77.4s9.57,55.43,27.13,77.41c-42.12-19.27-80.74-45.43-114.25-77.41,33.51-31.98,72.12-58.14,114.25-77.4Zm194.45,154.8c17.56-21.98,27.13-49.27,27.13-77.4s-9.57-55.43-27.13-77.4c42.12,19.27,80.73,45.42,114.25,77.4-33.51,31.98-72.12,58.14-114.24,77.4h0Z"/>
  <path d="m305.31,243.35c4.78,29.44-15.22,57.18-44.66,61.96s-57.18-15.22-61.96-44.66,15.21-57.18,44.66-61.96c29.44-4.78,57.18,15.21,61.96,44.66"/>
  <path d="m266.03,59.75V14c0-7.73-6.27-14-14-14s-14,6.27-14,14v45.75c0,7.73,6.27,14,14,14s14-6.27,14-14Z"/>
  <path d="m397.63,108.36c7.2,2.82,15.32-.73,18.14-7.93l16.78-42.86h0c2.8-7.2-.76-15.29-7.95-18.11-7.19-2.81-15.29.72-18.12,7.9l-16.78,42.86c-1.36,3.46-1.28,7.31.21,10.71,1.49,3.4,4.27,6.07,7.72,7.43h0Z"/>
  <path d="m106.37,108.36c3.46-1.36,6.23-4.03,7.72-7.43,1.49-3.4,1.56-7.25.21-10.71l-16.78-42.86c-2.83-7.18-10.94-10.71-18.12-7.9-7.19,2.82-10.74,10.91-7.95,18.11l16.78,42.86c2.82,7.2,10.94,10.75,18.14,7.93h0Z"/>
  <path d="m238.03,444.25v45.75c0,7.73,6.27,14,14,14s14-6.27,14-14v-45.75c0-7.73-6.27-14-14-14s-14,6.27-14,14Z"/>
  <path d="m397.63,395.64c-3.46,1.36-6.23,4.03-7.72,7.43-1.49,3.4-1.57,7.25-.21,10.71l16.78,42.86h0c2.83,7.18,10.94,10.71,18.13,7.9,7.19-2.82,10.74-10.91,7.95-18.11l-16.78-42.86c-2.82-7.2-10.94-10.75-18.14-7.93h0Z"/>
  <path d="m88.23,403.57l-16.78,42.86c-2.79,7.2.76,15.29,7.95,18.11,7.18,2.81,15.29-.72,18.12-7.9l16.78-42.86h0c1.36-3.46,1.28-7.32-.2-10.72-1.49-3.41-4.27-6.08-7.73-7.43-3.46-1.35-7.32-1.28-10.72.21-3.4,1.49-6.07,4.27-7.43,7.73h0Z"/>
</svg>