<?xml version="1.0" encoding="UTF-8"?>
<svg id="Layer_1" data-name="Layer 1" xmlns="http://www.w3.org/2000/svg"

stroke="white"
 viewBox="0 0 464.86 373.4">
  <path d="m100.8,54.09c-15.25,0-29.89,6.06-40.67,16.85-10.79,10.79-16.84,25.42-16.84,40.68,0,15.26,6.07,29.89,16.87,40.67,10.79,10.78,25.43,16.84,40.68,16.82,15.26,0,29.88-6.08,40.66-16.88,10.78-10.8,16.82-25.43,16.81-40.69-.01-15.25-6.08-29.86-16.86-40.63s-25.4-16.82-40.65-16.82h0Zm0,98.17c-10.8,0-21.15-4.29-28.79-11.93-7.64-7.63-11.93-17.99-11.93-28.79s4.29-21.15,11.93-28.79c7.63-7.63,17.99-11.93,28.79-11.93s21.16,4.29,28.79,11.93,11.93,17.99,11.93,28.79-4.29,21.15-11.93,28.79c-7.63,7.64-17.99,11.93-28.79,11.93Z"/>
  <path d="m363.94,169.06c15.26.02,29.89-6.04,40.69-16.81s16.87-25.41,16.88-40.66c0-15.25-6.04-29.89-16.83-40.68-10.78-10.79-25.41-16.86-40.67-16.86-15.25,0-29.89,6.05-40.68,16.84-10.79,10.79-16.85,25.42-16.85,40.68.01,15.24,6.07,29.85,16.84,40.63,10.77,10.78,25.37,16.85,40.61,16.88h0Zm0-98.17c10.8-.02,21.17,4.27,28.82,11.9,7.65,7.63,11.95,17.99,11.95,28.79,0,10.81-4.29,21.17-11.93,28.81-7.64,7.64-18,11.93-28.8,11.92-10.8,0-21.16-4.3-28.8-11.95-7.63-7.65-11.91-18.01-11.9-28.82.02-10.78,4.3-21.11,11.93-28.73,7.62-7.62,17.95-11.91,28.73-11.92h0Z"/>
  <path d="m367.13,188.17h-6.33c-16.46.37-32.61,4.59-47.15,12.32-23.17-15.75-50.39-24.46-78.4-25.09-2.82-.14-5.64-.14-8.46,0-27.5.59-54.27,9-77.17,24.25-14.19-7.09-29.78-10.91-45.64-11.2h-6.33C50.45,189.51,0,219.53,0,299.72c0,12.88,11.82,22.4,35.11,28.73h0c20.05,4.79,40.6,7.17,61.21,7.11,4.82,11.93,19.71,21.28,44.8,28h0c29.55,6.96,59.86,10.25,90.22,9.8,21.11,0,120.34-1.96,134.4-37.57,20.16,0,99.12-2.74,99.12-35.89-.06-80.42-50.57-110.38-97.72-111.73h0ZM94.75,318.75c-51.85-.89-77.95-12.43-77.95-19.04,0-83.44,56.9-94.08,81.65-94.75h5.15c10.95.26,21.77,2.42,31.98,6.39-22.06,21.11-39.2,54.54-40.82,107.41h0Zm136.3,37.63c-71.46,0-119.67-15.34-119.67-29.79,0-121.8,88.7-133.73,116.14-134.4h7.17c34.89.95,115.98,15.96,115.98,134.4,0,14.45-48.05,29.79-119.62,29.79h0Zm136.25-37.63c-1.57-52.14-18.31-85.46-39.82-106.4h0c10.84-4.48,22.43-6.91,34.16-7.17h5.15c24.47.67,81.43,11.2,81.43,94.75-.22,6.49-27.22,18.36-80.92,18.81h0Z"/>
  <path d="m231,0C210.72,0,191.27,8.06,176.94,22.4c-14.34,14.34-22.39,33.8-22.38,54.08.01,20.28,8.08,39.72,22.43,54.05,14.35,14.33,33.8,22.37,54.09,22.35,20.28-.02,39.72-8.1,54.04-22.46,14.32-14.35,22.35-33.82,22.32-54.1-.03-20.25-8.09-39.67-22.43-53.98C270.68,8.04,251.26,0,231,0h0Zm0,136.02h0c-15.82,0-30.98-6.28-42.17-17.46-11.18-11.18-17.47-26.34-17.47-42.16,0-15.82,6.27-30.98,17.45-42.17,11.18-11.19,26.34-17.48,42.15-17.49,15.82-.01,30.98,6.26,42.18,17.43,11.19,11.18,17.49,26.34,17.5,42.15.05,15.85-6.21,31.07-17.4,42.3-11.19,11.23-26.38,17.55-42.23,17.57v-.17Z"/>
</svg>