<?xml version="1.0" encoding="utf-8"?>
<!-- Generator: Adobe Illustrator 27.5.0, SVG Export Plug-In . SVG Version: 6.00 Build 0)  -->
<svg version="1.1" id="Layer_1" xmlns="http://www.w3.org/2000/svg" xmlns:xlink="http://www.w3.org/1999/xlink" x="0px" y="0px"
	 viewBox="0 0 369.6 532" style="enable-background:new 0 0 369.6 532;" xml:space="preserve">
<g>
	<path d="M184.8,0c-17.9,0-34.2,9.5-43.1,24.6C108.6,79.5,0,265.4,0,347.2C0,449.1,82.9,532,184.8,532s184.8-82.9,184.8-184.8
		c0-81.8-108.1-267.7-141.7-323.1C219,9.5,202.7,0,184.8,0L184.8,0z M148.4,258.2c-0.6,0.6-51,82.3-14,137.8
		c7.8,11.8,4.5,27.4-6.7,34.7c-4.5,2.8-9,4.5-14,4.5c-7.8,0-16.2-3.9-20.7-11.2c-55.4-82.3,10.1-188.2,12.9-192.6
		c7.3-11.8,23-15.1,34.7-7.8C152.3,230.7,155.7,246.4,148.4,258.2L148.4,258.2z"/>
</g>
</svg>
