<?xml version="1.0" encoding="UTF-8"?>
<svg id="Layer_1" data-name="Layer 1" xmlns="http://www.w3.org/2000/svg" viewBox="0 0 420.51 347.6">
  <path d="m368.95,347.6c-.74,0-1.47-.4-1.85-1.11-.55-1.02-.17-2.29.85-2.84,12.5-6.73,22.97-16.05,31.12-27.7.66-.95,1.97-1.18,2.93-.52.95.66,1.18,1.97.52,2.92-8.54,12.2-19.49,21.96-32.57,29-.32.17-.66.25-1,.25h0Zm-44.3-15.44c-3.49,0-7-.29-10.52-.85-17.07-2.77-32.04-12.03-42.14-26.05-8.15-11.32-11.41-25.12-9.17-38.89,2.24-13.77,9.7-25.84,21.02-33.98,9.14-6.59,20.31-9.22,31.42-7.41,11.12,1.81,20.88,7.84,27.46,16.98,5.33,7.41,7.47,16.44,6,25.45-1.46,9.01-6.35,16.91-13.75,22.24-.93.67-2.25.47-2.93-.48-.68-.94-.46-2.25.48-2.93,6.49-4.68,10.77-11.61,12.06-19.51,1.29-7.9-.59-15.83-5.27-22.32-5.93-8.23-14.71-13.66-24.72-15.29-10.01-1.62-20.06.74-28.3,6.68-10.4,7.5-17.27,18.59-19.32,31.25s.94,25.36,8.44,35.76c9.45,13.12,23.45,21.77,39.4,24.37,15.95,2.59,31.97-1.19,45.09-10.64,34.08-24.56,41.83-72.27,17.28-106.36-26.99-37.46-67.35-36.81-114.05-36.04-6.82.11-13.78.22-20.85.22H2.1c-1.16,0-2.1-.95-2.1-2.11s.94-2.1,2.1-2.1h240.18c7.05,0,13.99-.11,20.79-.22,47.85-.79,89.25-1.45,117.53,37.79,25.91,35.96,17.72,86.3-18.24,112.21-11.13,8.03-24.23,12.23-37.7,12.23h0Zm88.39-37.15c-.22,0-.45-.04-.67-.11-1.1-.37-1.69-1.56-1.32-2.66,6.63-19.52,6.99-40.52,1.04-60.74h0c-2.05-6.94-4.84-13.71-8.3-20.13-.55-1.02-.17-2.29.85-2.84,1.01-.54,2.3-.17,2.84.85,3.59,6.67,6.5,13.71,8.62,20.93,6.2,21.05,5.82,42.93-1.08,63.28-.3.88-1.12,1.43-1.99,1.43h0Zm-191.93-159.45c-4.94,0-9.98-.08-15.12-.16-5.3-.09-10.72-.18-16.23-.18H2.11c-1.16,0-2.1-.94-2.1-2.1s.94-2.1,2.1-2.1h187.65c5.54,0,10.97.09,16.3.18,36.37.59,67.78,1.1,88.72-27.97,9.23-12.8,12.91-28.43,10.38-44-2.53-15.57-10.98-29.23-23.77-38.45-10.15-7.32-22.55-10.24-34.89-8.23-12.35,2.01-23.18,8.7-30.48,18.85-11.95,16.57-8.18,39.77,8.39,51.71,13.07,9.41,31.36,6.45,40.79-6.62,3.59-4.97,5.02-11.05,4.04-17.1-.98-6.05-4.27-11.36-9.24-14.95-.95-.68-1.16-1.99-.48-2.93.68-.94,2.01-1.15,2.93-.48,12.15,8.75,14.91,25.75,6.16,37.9-10.77,14.95-31.7,18.35-46.65,7.58-18.45-13.29-22.64-39.12-9.36-57.57,7.97-11.06,19.77-18.35,33.22-20.54,13.44-2.2,26.96,1,38.01,8.96,13.71,9.88,22.76,24.5,25.47,41.18,2.71,16.68-1.23,33.42-11.11,47.13-19.17,26.62-45.95,29.88-77.07,29.88h0Zm105.21-33.77c-.37,0-.73-.09-1.07-.29-1-.59-1.33-1.88-.74-2.88,3.5-5.91,6.14-12.23,7.86-18.79.3-1.12,1.46-1.79,2.56-1.5,1.12.3,1.79,1.44,1.5,2.57-1.82,6.93-4.61,13.61-8.3,19.85-.4.66-1.1,1.03-1.81,1.03h0Zm10.38-41.98c-1.11,0-2.04-.87-2.09-1.98-1.23-22.6-13.23-42.76-32.09-53.92-1-.59-1.32-1.88-.73-2.88.59-1,1.88-1.33,2.88-.74,20.07,11.88,32.82,33.3,34.14,57.3.07,1.16-.82,2.15-1.98,2.21-.04,0-.07,0-.11,0h0Z"/>
</svg>