<?xml version="1.0" encoding="UTF-8"?>
<svg id="Layer_1" data-name="Layer 1" xmlns="http://www.w3.org/2000/svg" viewBox="0 0 409.5 480.87">
  <path d="m203.93,438.1c-31.61,0-57.04-24.99-60.48-59.45-1.59-16.24-1.09-72.9,20.34-139.45,12.41-38.5,29.8-74.27,51.73-106.2,26.8-38.99,60.43-72.52,100.02-99.53L364.54,0l-33.85,48.73c-74.7,107.46-69.56,228.27-66.83,293.12.66,15.31,1.15,27.4.6,36.42-2.3,34.12-28.27,59.83-60.54,59.83h0Zm78.7-350.27c-44.95,42.38-77.88,95.38-98.05,158.05-20.18,62.67-20.78,116.65-19.36,130.59,2.35,23.41,18.27,39.76,38.72,39.76s37.19-16.95,38.66-39.38c.49-7.82,0-19.41-.6-34.07-2.41-57.37-6.62-156.73,40.63-254.95h0Z"/>
  <path d="m204.75,480.87c-52.23,0-99.8-47.63-99.8-99.91,0-10.55.93-20.67,1.75-29.59,1.53-16.62,2.79-30.95-2.73-37.02-3.61-3.94-11.48-5.96-23.46-5.96H0v-21.88h80.5c18.87,0,31.45,4.16,39.59,13.07,12.03,13.18,10.34,31.94,8.37,53.76-.82,8.86-1.64,18.05-1.64,27.62,0,40.14,37.9,78.04,77.93,78.04,33.69,0,68.52-28.38,76.12-61.96l21.33,4.81c-4.65,20.62-17.23,40.25-35.33,55.23-18.54,15.37-40.63,23.79-62.12,23.79h0Z"/>
  <path d="m304.55,380.95h-21.88c0-7-.49-14-.98-20.51l21.82-1.75c.55,7,1.04,14.49,1.04,22.26h0Z"/>
  <path d="m280.16,342.51c-1.09-14.82-1.31-31.66,9.41-43.2,8.15-8.8,20.67-12.85,39.43-12.85h80.5v21.88h-80.5c-11.92,0-19.8,1.97-23.41,5.91-4.27,4.59-4.54,14-3.61,26.74l-21.82,1.53Z"/>
  <path d="m88.05,238.93c-15.91,0-28.82-12.91-28.82-28.82s12.91-28.82,28.82-28.82,28.82,12.91,28.82,28.82-12.91,28.82-28.82,28.82h0Zm0-35.77c-3.83,0-6.95,3.12-6.95,6.95s3.12,6.95,6.95,6.95,6.95-3.12,6.95-6.95-3.12-6.95-6.95-6.95Z"/>
  <path d="m185.06,103.14c-12.09,0-21.93-9.84-21.93-21.93s9.84-21.93,21.93-21.93,21.93,9.84,21.93,21.93-9.84,21.93-21.93,21.93Z"/>
  <path d="m346.88,204.26c-12.09,0-21.93-9.84-21.93-21.93s9.84-21.93,21.93-21.93,21.93,9.84,21.93,21.93-9.84,21.93-21.93,21.93Z"/>
</svg>