<svg width="343" height="118" viewBox="0 0 343 118" fill="none" xmlns="http://www.w3.org/2000/svg">
<path d="M83.5215 94.684L83.4735 97.876L83.5215 101.056H82.7055L82.3215 98.416L76.4655 98.392V97.36L82.3215 97.324L82.7055 94.684H83.5215ZM85.1655 89.2H85.2975L86.1375 94.36L85.5975 94.468L83.5215 90.628L85.1535 90.88H76.0935V89.8H83.7975L85.1655 89.2ZM77.6775 89.8V104.932L79.5975 105.544V106H73.7655V105.544L75.6855 104.932V90.868L73.7655 90.256V89.8H77.6775ZM91.7578 105.364C92.3818 105.364 92.9298 105.212 93.4018 104.908C93.8818 104.596 94.2578 104.12 94.5298 103.48C94.8018 102.832 94.9378 102.016 94.9378 101.032C94.9378 99.976 94.8018 99.092 94.5298 98.38C94.2658 97.66 93.8898 97.116 93.4018 96.748C92.9218 96.372 92.3538 96.184 91.6978 96.184C91.0738 96.184 90.5218 96.34 90.0418 96.652C89.5698 96.956 89.1978 97.428 88.9258 98.068C88.6538 98.708 88.5178 99.524 88.5178 100.516C88.5178 101.564 88.6498 102.448 88.9138 103.168C89.1858 103.888 89.5658 104.436 90.0538 104.812C90.5418 105.18 91.1098 105.364 91.7578 105.364ZM91.6978 106.24C90.6818 106.24 89.7778 106.012 88.9858 105.556C88.2018 105.1 87.5898 104.468 87.1498 103.66C86.7098 102.852 86.4898 101.924 86.4898 100.876C86.4898 99.804 86.7178 98.848 87.1738 98.008C87.6378 97.168 88.2658 96.508 89.0578 96.028C89.8578 95.548 90.7578 95.308 91.7578 95.308C92.7898 95.308 93.6938 95.536 94.4698 95.992C95.2538 96.448 95.8658 97.08 96.3058 97.888C96.7538 98.688 96.9778 99.616 96.9778 100.672C96.9778 101.744 96.7458 102.7 96.2818 103.54C95.8178 104.38 95.1858 105.04 94.3858 105.52C93.5938 106 92.6978 106.24 91.6978 106.24ZM105.587 95.38C105.995 95.38 106.291 95.48 106.475 95.68C106.659 95.872 106.751 96.124 106.751 96.436C106.751 96.804 106.631 97.1 106.391 97.324C106.159 97.548 105.843 97.66 105.443 97.66C105.267 97.66 105.087 97.628 104.903 97.564C104.727 97.5 104.539 97.436 104.339 97.372C104.147 97.308 103.935 97.276 103.703 97.276C103.511 97.276 103.303 97.304 103.079 97.36C102.863 97.416 102.647 97.496 102.431 97.6C102.215 97.704 102.027 97.824 101.867 97.96L101.627 97.528C102.115 97.144 102.555 96.82 102.947 96.556C103.347 96.284 103.707 96.06 104.027 95.884C104.355 95.708 104.647 95.58 104.903 95.5C105.159 95.42 105.387 95.38 105.587 95.38ZM102.083 97.504V105.016L103.955 105.568V106H98.4711V105.568L100.283 105.016V97.672C100.179 97.56 100.043 97.46 99.8751 97.372C99.7151 97.284 99.5191 97.192 99.2871 97.096C99.0631 97 98.8031 96.9 98.5071 96.796V96.496L101.747 95.296H101.975L102.083 97.504ZM119.126 99.316L119.318 100.12C118.35 100.352 117.562 100.584 116.954 100.816C116.346 101.048 115.87 101.284 115.526 101.524C115.19 101.764 114.954 102.02 114.818 102.292C114.69 102.564 114.626 102.86 114.626 103.18C114.626 103.74 114.79 104.168 115.118 104.464C115.454 104.76 115.858 104.908 116.33 104.908C116.714 104.908 117.062 104.812 117.374 104.62C117.694 104.428 117.95 104.176 118.142 103.864C118.334 103.544 118.43 103.196 118.43 102.82V98.368C118.43 97.768 118.274 97.292 117.962 96.94C117.658 96.588 117.158 96.412 116.462 96.412C116.198 96.412 115.906 96.448 115.586 96.52C115.266 96.592 114.962 96.704 114.674 96.856L115.286 96.304C115.262 96.536 115.226 96.772 115.178 97.012C115.138 97.244 115.086 97.452 115.022 97.636C114.966 97.82 114.89 97.964 114.794 98.068C114.674 98.204 114.514 98.304 114.314 98.368C114.122 98.432 113.93 98.464 113.738 98.464C113.482 98.464 113.278 98.408 113.126 98.296C112.982 98.176 112.91 98.024 112.91 97.84C112.91 97.584 113.038 97.316 113.294 97.036C113.55 96.748 113.882 96.48 114.29 96.232C114.706 95.984 115.166 95.784 115.67 95.632C116.182 95.48 116.694 95.404 117.206 95.404C117.926 95.404 118.506 95.512 118.946 95.728C119.394 95.944 119.718 96.264 119.918 96.688C120.126 97.104 120.23 97.616 120.23 98.224V103.888C120.23 104.136 120.266 104.344 120.338 104.512C120.41 104.672 120.514 104.796 120.65 104.884C120.794 104.964 120.97 105.004 121.178 105.004C121.37 105.004 121.574 104.968 121.79 104.896C122.014 104.816 122.23 104.712 122.438 104.584V105.112C122.086 105.512 121.722 105.796 121.346 105.964C120.97 106.132 120.618 106.216 120.29 106.216C119.89 106.216 119.554 106.128 119.282 105.952C119.01 105.776 118.802 105.524 118.658 105.196C118.514 104.86 118.442 104.464 118.442 104.008L118.514 103.9C118.402 104.356 118.202 104.76 117.914 105.112C117.634 105.464 117.294 105.74 116.894 105.94C116.494 106.14 116.066 106.24 115.61 106.24C114.786 106.24 114.106 106.012 113.57 105.556C113.034 105.1 112.766 104.44 112.766 103.576C112.766 103.12 112.854 102.708 113.03 102.34C113.214 101.964 113.538 101.612 114.002 101.284C114.466 100.956 115.114 100.632 115.946 100.312C116.778 99.992 117.838 99.66 119.126 99.316ZM131.909 105.016L133.925 105.568V106H128.297V105.568L130.109 105.016V95.164C130.109 94.068 130.281 93.128 130.625 92.344C130.977 91.56 131.429 90.924 131.981 90.436C132.541 89.94 133.141 89.576 133.781 89.344C134.429 89.104 135.049 88.984 135.641 88.984C136.249 88.984 136.789 89.04 137.261 89.152C137.741 89.264 138.149 89.448 138.485 89.704L137.333 89.752L138.785 88.888H139.013L138.905 90.82V105.016L140.741 105.568V106H135.281V105.568L137.093 105.016V91.228C137.053 90.844 136.853 90.54 136.493 90.316C136.133 90.092 135.641 89.98 135.017 89.98C134.465 89.98 133.953 90.104 133.481 90.352C133.009 90.592 132.629 90.992 132.341 91.552C132.053 92.112 131.909 92.876 131.909 93.844V105.016ZM135.197 95.548L134.993 96.676H130.601L130.121 96.952L128.069 96.64V96.268L130.289 95.536L130.853 95.548H135.197ZM147.258 105.364C147.882 105.364 148.43 105.212 148.902 104.908C149.382 104.596 149.758 104.12 150.03 103.48C150.302 102.832 150.438 102.016 150.438 101.032C150.438 99.976 150.302 99.092 150.03 98.38C149.766 97.66 149.39 97.116 148.902 96.748C148.422 96.372 147.854 96.184 147.198 96.184C146.574 96.184 146.022 96.34 145.542 96.652C145.07 96.956 144.698 97.428 144.426 98.068C144.154 98.708 144.018 99.524 144.018 100.516C144.018 101.564 144.15 102.448 144.414 103.168C144.686 103.888 145.066 104.436 145.554 104.812C146.042 105.18 146.61 105.364 147.258 105.364ZM147.198 106.24C146.182 106.24 145.278 106.012 144.486 105.556C143.702 105.1 143.09 104.468 142.65 103.66C142.21 102.852 141.99 101.924 141.99 100.876C141.99 99.804 142.218 98.848 142.674 98.008C143.138 97.168 143.766 96.508 144.558 96.028C145.358 95.548 146.258 95.308 147.258 95.308C148.29 95.308 149.194 95.536 149.97 95.992C150.754 96.448 151.366 97.08 151.806 97.888C152.254 98.688 152.478 99.616 152.478 100.672C152.478 101.744 152.246 102.7 151.782 103.54C151.318 104.38 150.686 105.04 149.886 105.52C149.094 106 148.198 106.24 147.198 106.24ZM157.199 102.568C157.199 103.064 157.267 103.46 157.403 103.756C157.547 104.044 157.783 104.256 158.111 104.392C158.447 104.52 158.899 104.584 159.467 104.584C160.019 104.584 160.551 104.48 161.063 104.272C161.583 104.064 161.951 103.804 162.167 103.492L162.599 103.936C162.175 104.368 161.783 104.732 161.423 105.028C161.063 105.324 160.715 105.564 160.379 105.748C160.051 105.924 159.715 106.048 159.371 106.12C159.027 106.2 158.659 106.24 158.267 106.24C157.283 106.24 156.559 105.932 156.095 105.316C155.631 104.7 155.399 103.776 155.399 102.544V96.7L153.647 96.016V95.548L157.307 95.38L157.199 96.676V102.568ZM162.131 106.204L161.963 104.008V96.7L160.211 96.016V95.548L163.907 95.38L163.787 96.676V104.368C163.859 104.448 163.955 104.524 164.075 104.596C164.203 104.668 164.339 104.74 164.483 104.812C164.635 104.884 164.783 104.948 164.927 105.004C165.079 105.052 165.219 105.088 165.347 105.112V105.46L162.347 106.204H162.131ZM173.532 95.38C173.94 95.38 174.236 95.48 174.42 95.68C174.604 95.872 174.696 96.124 174.696 96.436C174.696 96.804 174.576 97.1 174.336 97.324C174.104 97.548 173.788 97.66 173.388 97.66C173.212 97.66 173.032 97.628 172.848 97.564C172.672 97.5 172.484 97.436 172.284 97.372C172.092 97.308 171.88 97.276 171.648 97.276C171.456 97.276 171.248 97.304 171.024 97.36C170.808 97.416 170.592 97.496 170.376 97.6C170.16 97.704 169.972 97.824 169.812 97.96L169.572 97.528C170.06 97.144 170.5 96.82 170.892 96.556C171.292 96.284 171.652 96.06 171.972 95.884C172.3 95.708 172.592 95.58 172.848 95.5C173.104 95.42 173.332 95.38 173.532 95.38ZM170.028 97.504V105.016L171.9 105.568V106H166.416V105.568L168.228 105.016V97.672C168.124 97.56 167.988 97.46 167.82 97.372C167.66 97.284 167.464 97.192 167.232 97.096C167.008 97 166.748 96.9 166.452 96.796V96.496L169.692 95.296H169.92L170.028 97.504ZM178.138 91.804C177.706 91.804 177.354 91.664 177.082 91.384C176.81 91.096 176.674 90.748 176.674 90.34C176.674 89.94 176.81 89.6 177.082 89.32C177.354 89.04 177.706 88.9 178.138 88.9C178.57 88.9 178.918 89.04 179.182 89.32C179.454 89.6 179.59 89.94 179.59 90.34C179.59 90.748 179.454 91.096 179.182 91.384C178.918 91.664 178.57 91.804 178.138 91.804ZM179.23 95.296L179.17 97.276V105.016L181.018 105.568V106H175.558V105.568L177.37 105.016V97.54C177.282 97.452 177.142 97.352 176.95 97.24C176.766 97.12 176.554 97.004 176.314 96.892C176.082 96.772 175.842 96.672 175.594 96.592V96.232L179.038 95.296H179.23ZM186.035 95.308C186.499 95.308 186.919 95.356 187.295 95.452C187.671 95.54 188.091 95.7 188.555 95.932L188.747 98.812H188.255L187.031 95.86L187.859 96.868C187.547 96.612 187.251 96.424 186.971 96.304C186.699 96.176 186.387 96.112 186.035 96.112C185.427 96.112 184.947 96.248 184.595 96.52C184.243 96.792 184.067 97.168 184.067 97.648C184.067 98.04 184.167 98.36 184.367 98.608C184.575 98.856 184.859 99.076 185.219 99.268C185.579 99.46 185.983 99.656 186.431 99.856C186.767 100.008 187.091 100.176 187.403 100.36C187.715 100.544 187.987 100.76 188.219 101.008C188.459 101.256 188.651 101.548 188.795 101.884C188.939 102.22 189.011 102.624 189.011 103.096C189.011 103.76 188.843 104.328 188.507 104.8C188.171 105.272 187.719 105.632 187.151 105.88C186.583 106.12 185.935 106.24 185.207 106.24C184.727 106.24 184.299 106.204 183.923 106.132C183.547 106.06 183.171 105.94 182.795 105.772L182.243 102.784H182.795L184.439 105.88L183.071 104.968C183.367 105.112 183.619 105.224 183.827 105.304C184.035 105.376 184.227 105.424 184.403 105.448C184.579 105.472 184.759 105.484 184.943 105.484C185.695 105.484 186.295 105.328 186.743 105.016C187.199 104.704 187.427 104.236 187.427 103.612C187.427 103.276 187.351 102.996 187.199 102.772C187.055 102.54 186.855 102.34 186.599 102.172C186.343 102.004 186.059 101.848 185.747 101.704C185.435 101.552 185.119 101.4 184.799 101.248C184.367 101.04 183.983 100.808 183.647 100.552C183.319 100.288 183.059 99.964 182.867 99.58C182.675 99.196 182.579 98.728 182.579 98.176C182.579 97.568 182.731 97.052 183.035 96.628C183.339 96.204 183.751 95.88 184.271 95.656C184.799 95.424 185.387 95.308 186.035 95.308ZM197.359 105.568L199.195 105.016V99.112C199.195 98.672 199.103 98.292 198.919 97.972C198.735 97.652 198.463 97.404 198.103 97.228C197.743 97.052 197.295 96.964 196.759 96.964C196.127 96.964 195.539 97.08 194.995 97.312C194.451 97.544 194.067 97.816 193.843 98.128L193.411 97.756C193.859 97.3 194.275 96.916 194.659 96.604C195.051 96.284 195.427 96.032 195.787 95.848C196.155 95.656 196.527 95.52 196.903 95.44C197.279 95.352 197.675 95.308 198.091 95.308C199.083 95.308 199.815 95.62 200.287 96.244C200.767 96.86 201.007 97.84 201.007 99.184V105.016L202.831 105.568V106H197.359V105.568ZM195.823 106H190.363V105.568L192.175 105.016V91.252C192.071 91.132 191.935 91.012 191.767 90.892C191.599 90.772 191.391 90.648 191.143 90.52C190.903 90.384 190.627 90.252 190.315 90.124V89.884L193.867 88.888H194.095L193.987 91.42V105.016L195.823 105.568V106ZM206.263 91.804C205.831 91.804 205.479 91.664 205.207 91.384C204.935 91.096 204.799 90.748 204.799 90.34C204.799 89.94 204.935 89.6 205.207 89.32C205.479 89.04 205.831 88.9 206.263 88.9C206.695 88.9 207.043 89.04 207.307 89.32C207.579 89.6 207.715 89.94 207.715 90.34C207.715 90.748 207.579 91.096 207.307 91.384C207.043 91.664 206.695 91.804 206.263 91.804ZM207.355 95.296L207.295 97.276V105.016L209.143 105.568V106H203.683V105.568L205.495 105.016V97.54C205.407 97.452 205.267 97.352 205.075 97.24C204.891 97.12 204.679 97.004 204.439 96.892C204.207 96.772 203.967 96.672 203.719 96.592V96.232L207.163 95.296H207.355ZM213.692 97.504V105.016L215.528 105.568V106H210.08V105.568L211.892 105.016V97.672C211.764 97.544 211.572 97.416 211.316 97.288C211.06 97.152 210.66 96.988 210.116 96.796V96.496L213.14 95.296H213.368L213.692 97.504ZM217.064 105.568L218.9 105.016V99.112C218.9 98.672 218.808 98.292 218.624 97.972C218.44 97.652 218.168 97.404 217.808 97.228C217.448 97.052 217 96.964 216.464 96.964C215.832 96.964 215.244 97.08 214.7 97.312C214.164 97.544 213.78 97.816 213.548 98.128L213.116 97.756C213.564 97.3 213.98 96.916 214.364 96.604C214.756 96.284 215.132 96.032 215.492 95.848C215.86 95.656 216.232 95.52 216.608 95.44C216.984 95.352 217.38 95.308 217.796 95.308C218.788 95.308 219.52 95.62 219.992 96.244C220.472 96.86 220.712 97.84 220.712 99.184V105.016L222.536 105.568V106H217.064V105.568ZM227.846 112.276C227.07 112.276 226.378 112.212 225.77 112.084C225.162 111.956 224.65 111.768 224.234 111.52C223.818 111.28 223.502 110.988 223.286 110.644C223.078 110.3 222.974 109.904 222.974 109.456C222.974 109.136 223.054 108.832 223.214 108.544C223.382 108.256 223.642 107.984 223.994 107.728C224.354 107.48 224.81 107.252 225.362 107.044C225.914 106.844 226.582 106.66 227.366 106.492H227.99V106.78C227.158 106.916 226.502 107.104 226.022 107.344C225.55 107.592 225.214 107.88 225.014 108.208C224.814 108.536 224.714 108.896 224.714 109.288C224.714 109.744 224.834 110.136 225.074 110.464C225.322 110.792 225.698 111.04 226.202 111.208C226.706 111.384 227.342 111.472 228.11 111.472C228.878 111.472 229.546 111.36 230.114 111.136C230.682 110.912 231.122 110.608 231.434 110.224C231.754 109.848 231.914 109.44 231.914 109C231.914 108.68 231.838 108.408 231.686 108.184C231.542 107.968 231.306 107.784 230.978 107.632C230.658 107.488 230.234 107.372 229.706 107.284C229.178 107.196 228.53 107.128 227.762 107.08C227.01 107.024 226.394 106.924 225.914 106.78C225.434 106.644 225.058 106.468 224.786 106.252C224.514 106.044 224.322 105.808 224.21 105.544C224.106 105.28 224.054 105 224.054 104.704C224.054 104.152 224.306 103.688 224.81 103.312C225.322 102.928 226.01 102.644 226.874 102.46L227.162 102.676C226.714 102.732 226.374 102.868 226.142 103.084C225.91 103.3 225.794 103.58 225.794 103.924C225.794 104.116 225.83 104.292 225.902 104.452C225.974 104.612 226.114 104.752 226.322 104.872C226.53 104.992 226.842 105.096 227.258 105.184C227.682 105.264 228.242 105.328 228.938 105.376C229.658 105.424 230.306 105.516 230.882 105.652C231.458 105.78 231.95 105.96 232.358 106.192C232.766 106.432 233.078 106.728 233.294 107.08C233.51 107.432 233.618 107.86 233.618 108.364C233.618 109.036 233.386 109.668 232.922 110.26C232.466 110.86 231.806 111.344 230.942 111.712C230.086 112.088 229.054 112.276 227.846 112.276ZM227.93 102.916C227.138 102.916 226.418 102.752 225.77 102.424C225.13 102.096 224.622 101.648 224.246 101.08C223.87 100.504 223.682 99.852 223.682 99.124C223.682 98.372 223.87 97.712 224.246 97.144C224.622 96.568 225.13 96.12 225.77 95.8C226.418 95.472 227.138 95.308 227.93 95.308C228.53 95.308 229.086 95.4 229.598 95.584C230.118 95.768 230.57 96.032 230.954 96.376C231.346 96.72 231.65 97.124 231.866 97.588C232.082 98.044 232.19 98.548 232.19 99.1C232.19 99.844 232.002 100.504 231.626 101.08C231.25 101.656 230.738 102.108 230.09 102.436C229.45 102.756 228.73 102.916 227.93 102.916ZM228.062 102.148C228.758 102.14 229.298 101.872 229.682 101.344C230.066 100.808 230.25 100.084 230.234 99.172C230.218 98.204 229.99 97.444 229.55 96.892C229.11 96.332 228.526 96.056 227.798 96.064C227.118 96.072 226.582 96.34 226.19 96.868C225.806 97.396 225.618 98.12 225.626 99.04C225.642 100 225.87 100.76 226.31 101.32C226.75 101.88 227.334 102.156 228.062 102.148ZM229.418 96.112L229.022 95.464C229.598 95.544 230.11 95.584 230.558 95.584C231.006 95.576 231.406 95.548 231.758 95.5C232.11 95.452 232.43 95.404 232.718 95.356C233.006 95.308 233.278 95.284 233.534 95.284C233.798 95.284 233.998 95.36 234.134 95.512C234.278 95.656 234.35 95.88 234.35 96.184C234.35 96.496 234.246 96.76 234.038 96.976C233.83 97.184 233.586 97.288 233.306 97.288C233.09 97.288 232.878 97.228 232.67 97.108C232.47 96.988 232.238 96.852 231.974 96.7C231.71 96.548 231.374 96.412 230.966 96.292C230.558 96.172 230.042 96.112 229.418 96.112ZM243.57 105.016L245.406 105.568V106H239.946V105.568L241.758 105.016V91.252C241.654 91.132 241.518 91.012 241.35 90.892C241.182 90.772 240.974 90.648 240.726 90.52C240.486 90.384 240.21 90.252 239.898 90.124V89.884L243.45 88.888H243.678L243.57 90.82V105.016ZM248.966 91.804C248.534 91.804 248.182 91.664 247.91 91.384C247.638 91.096 247.502 90.748 247.502 90.34C247.502 89.94 247.638 89.6 247.91 89.32C248.182 89.04 248.534 88.9 248.966 88.9C249.398 88.9 249.746 89.04 250.01 89.32C250.282 89.6 250.418 89.94 250.418 90.34C250.418 90.748 250.282 91.096 250.01 91.384C249.746 91.664 249.398 91.804 248.966 91.804ZM250.058 95.296L249.998 97.276V105.016L251.846 105.568V106H246.386V105.568L248.198 105.016V97.54C248.11 97.452 247.97 97.352 247.778 97.24C247.594 97.12 247.382 97.004 247.142 96.892C246.91 96.772 246.67 96.672 246.422 96.592V96.232L249.866 95.296H250.058ZM255.172 96.676L254.692 96.952L252.64 96.64V96.268L254.86 95.536L255.424 95.548H259.816L259.6 96.676H255.172ZM256.48 105.016L258.532 105.568V106H252.868V105.568L254.68 105.016V95.164C254.68 94.052 254.856 93.1 255.208 92.308C255.56 91.516 256.032 90.868 256.624 90.364C257.224 89.86 257.888 89.488 258.616 89.248C259.352 89.008 260.096 88.888 260.848 88.888C261.248 88.888 261.592 88.92 261.88 88.984C262.168 89.048 262.4 89.136 262.576 89.248C262.76 89.36 262.892 89.488 262.972 89.632C263.06 89.776 263.104 89.932 263.104 90.1C263.104 90.412 262.996 90.672 262.78 90.88C262.564 91.088 262.3 91.192 261.988 91.192C261.732 91.192 261.512 91.132 261.328 91.012C261.144 90.892 260.96 90.756 260.776 90.604C260.6 90.452 260.4 90.316 260.176 90.196C259.952 90.076 259.676 90.016 259.348 90.016C258.852 90.016 258.384 90.136 257.944 90.376C257.512 90.616 257.16 91.016 256.888 91.576C256.616 92.128 256.48 92.88 256.48 93.832V105.016ZM265.339 95.308C266.123 95.308 266.799 95.48 267.367 95.824C267.943 96.168 268.403 96.672 268.747 97.336C269.091 97.992 269.303 98.8 269.383 99.76H261.967L261.991 98.968L268.207 98.716L267.379 99.208C267.323 98.6 267.207 98.072 267.031 97.624C266.855 97.176 266.611 96.832 266.299 96.592C265.995 96.344 265.607 96.22 265.135 96.22C264.567 96.22 264.067 96.376 263.635 96.688C263.211 97 262.879 97.46 262.639 98.068C262.407 98.676 262.291 99.416 262.291 100.288C262.291 101.224 262.463 102.028 262.807 102.7C263.159 103.372 263.647 103.884 264.271 104.236C264.903 104.588 265.639 104.764 266.479 104.764C266.799 104.764 267.111 104.724 267.415 104.644C267.727 104.556 268.031 104.428 268.327 104.26C268.623 104.092 268.907 103.884 269.179 103.636L269.467 103.948C269.059 104.476 268.639 104.912 268.207 105.256C267.783 105.592 267.335 105.84 266.863 106C266.391 106.16 265.883 106.24 265.339 106.24C264.395 106.24 263.555 106.016 262.819 105.568C262.083 105.112 261.503 104.484 261.079 103.684C260.655 102.884 260.443 101.964 260.443 100.924C260.443 99.9 260.639 98.964 261.031 98.116C261.423 97.26 261.983 96.58 262.711 96.076C263.447 95.564 264.323 95.308 265.339 95.308Z" fill="#FFF0E8"/>
<path d="M113.155 75.92C106.435 75.92 100.195 74.16 94.4351 70.64C88.6751 67.12 84.0991 62.448 80.7071 56.624C77.3791 50.736 75.7151 44.432 75.7151 37.712C75.7151 31.056 77.4111 24.848 80.8031 19.088C84.1951 13.264 88.7711 8.656 94.5311 5.264C100.291 1.808 106.531 0.0799961 113.251 0.0799961C120.035 0.0799961 126.275 1.776 131.971 5.168C137.667 8.56 142.179 13.168 145.507 18.992C148.899 24.752 150.595 30.992 150.595 37.712C150.595 44.624 148.899 51.024 145.507 56.912C142.179 62.736 137.635 67.376 131.875 70.832C126.179 74.224 119.939 75.92 113.155 75.92ZM113.155 73.136C119.299 73.136 124.995 71.568 130.243 68.432C135.491 65.232 139.651 60.944 142.723 55.568C145.859 50.128 147.427 44.24 147.427 37.904C147.427 31.632 145.891 25.808 142.819 20.432C139.747 15.056 135.587 10.8 130.339 7.664C125.091 4.46399 119.395 2.86399 113.251 2.86399C107.043 2.86399 101.315 4.46399 96.0671 7.664C90.8191 10.8 86.6271 15.056 83.4911 20.432C80.4191 25.808 78.8831 31.632 78.8831 37.904C78.8831 44.24 80.4191 50.128 83.4911 55.568C86.6271 60.944 90.8191 65.232 96.0671 68.432C101.315 71.568 107.011 73.136 113.155 73.136ZM177.765 75.344C169.765 75.344 163.557 72.048 159.141 65.456V60.272C160.869 64.112 163.365 67.12 166.629 69.296C169.957 71.472 173.925 72.56 178.533 72.56C181.733 72.56 184.677 71.856 187.365 70.448C190.117 69.04 192.293 67.056 193.893 64.496C195.493 61.936 196.293 58.992 196.293 55.664C196.293 52.656 195.781 50.064 194.757 47.888C193.733 45.712 192.037 43.632 189.669 41.648C187.301 39.6 183.877 37.2 179.397 34.448L176.325 32.528C173.509 30.8 171.237 29.264 169.509 27.92C167.781 26.576 166.277 25.008 164.997 23.216C163.333 20.72 162.501 17.84 162.501 14.576C162.501 10.224 163.909 6.832 166.725 4.4C169.541 1.968 173.125 0.751999 177.477 0.751999C183.365 0.751999 188.037 2.928 191.493 7.27999V12.176C190.021 9.488 188.005 7.376 185.445 5.84C182.885 4.304 180.069 3.536 176.997 3.536C173.797 3.536 171.109 4.528 168.933 6.512C166.757 8.496 165.669 11.152 165.669 14.48C165.669 17.744 166.661 20.56 168.645 22.928C170.693 25.232 174.117 27.76 178.917 30.512C184.805 33.968 189.381 37.104 192.645 39.92C194.949 42.032 196.613 44.368 197.637 46.928C198.725 49.488 199.269 52.336 199.269 55.472C199.269 59.44 198.341 62.928 196.485 65.936C194.629 68.944 192.069 71.28 188.805 72.944C185.541 74.544 181.861 75.344 177.765 75.344ZM244.673 75.92C237.953 75.92 231.777 74.288 226.145 71.024C220.513 67.696 216.033 63.152 212.705 57.392C209.441 51.568 207.809 45.04 207.809 37.808C207.809 30.832 209.505 24.464 212.897 18.704C216.353 12.944 220.929 8.4 226.625 5.07199C232.385 1.744 238.497 0.0799961 244.961 0.0799961C249.441 0.0799961 252.993 0.495996 255.617 1.328C258.241 2.09599 261.281 3.47199 264.737 5.456V9.008C261.473 6.768 258.433 5.2 255.617 4.304C252.865 3.344 249.409 2.86399 245.249 2.86399C238.913 2.86399 233.121 4.49599 227.873 7.75999C222.689 10.96 218.561 15.28 215.489 20.72C212.481 26.096 210.977 31.888 210.977 38.096C210.977 44.368 212.513 50.192 215.585 55.568C218.657 60.944 222.721 65.232 227.777 68.432C232.897 71.568 238.401 73.136 244.289 73.136C248.513 73.136 252.193 72.656 255.329 71.696C258.465 70.672 261.601 69.104 264.737 66.992V70.544C261.665 72.4 258.497 73.744 255.233 74.576C252.033 75.472 248.513 75.92 244.673 75.92Z" fill="#FFF0E8"/>
</svg>
