<?xml version="1.0" encoding="utf-8"?>
<!-- Generator: Adobe Illustrator 27.5.0, SVG Export Plug-In . SVG Version: 6.00 Build 0)  -->
<svg version="1.1" id="Layer_1" xmlns="http://www.w3.org/2000/svg" xmlns:xlink="http://www.w3.org/1999/xlink" x="0px" y="0px"
	 viewBox="0 0 414.4 448" style="enable-background:new 0 0 414.4 448;" xml:space="preserve">
<g>
	<path d="M294,2.3c45.7,34.9,125.9,115.5,120.1,222.3c-1.5,27.9-24,58.3-43.1,75.8c-22,19.8-49.8,34.9-77.9,43.9
		c-14.5,18.9-25.1,41.1-37.5,59.2c2.7,10,5.1,20.3,7,31.3c1.1,5.8-3.2,12-9,13c-5.8,1.1-12-3.2-13-9c-7.6-43.2-20.7-76.2-39-101.9
		c-19.8-14.8-43.7-20.2-67.6-22.8c-24.5-2.6-47.9-1.8-67-9.1v0.2c-0.1-0.1-0.2-0.1-0.4-0.2c-19.5-6.9-29.1-22.1-36.1-36.6
		c-7.1-14.6-13-29.6-27.8-45c-5-5.2-3.1-15.1,3.5-18c24.3-10.8,46.6-24.1,72.6-29.6c27.7-6.5,65.3,1.2,91,19.6
		c40.8,31.2,64.1,73.8,52,132.7c9.7,14.3,18.1,30.4,25,48.5c9.9-15.2,18.1-29.8,25-43.9c-23.1-36-39.3-72.4-45.5-107.5
		c-11.3-97.8,17.8-152.1,50.8-219.1c1.6-3.2,4.9-5.5,8.5-6C288.8-0.4,291.6,1.1,294,2.3L294,2.3z M290.9,29.4
		c-29.7,60.2-52,106.9-42.2,192.7c4.2,25.7,15.6,55,34.1,85.6c15.9-42.1,18.2-80.9,8.4-120.2c-1.8-6.8,4.5-14.4,11.6-14
		c4.7,0.3,9.1,4,10.2,8.6c11,43.9,8,87.8-9.4,134.1c19.1-8.1,37.6-18.9,52.5-32.4c19.9-17.9,33.2-39.1,35.7-60.4
		C396.5,135.5,333.9,65.2,290.9,29.4L290.9,29.4z M83.7,198C66.2,201.7,48,210.8,28,220.2c10.6,14.2,17.9,28,22.9,38.5
		c6.5,13.6,10.6,20.9,23.5,25.4c22,5.9,40.7,7,62,7.9c7.4,0.8,15,1.8,22.8,3.3c-12.3-8.4-25.7-15.6-40.4-21.7
		c-5-1.8-8.2-7.6-7.1-12.8c4.3-7.5,8.5-9.7,15.7-7.8c28.8,12,53.9,28.3,74.7,50.2c2.4-39.1-14.1-65.5-45.3-89.4
		C135.5,199.4,109.6,192.6,83.7,198L83.7,198z"/>
</g>
</svg>
