<svg width="13" height="11" viewBox="0 0 13 11" fill="none" xmlns="http://www.w3.org/2000/svg">
<path d="M1.91396 3.74332L1.91396 3.74328C1.91386 3.32851 2.07856 2.93074 2.37173 2.63745L1.91396 3.74332ZM1.91396 3.74332C1.91418 4.15806 2.07907 4.55573 2.37248 4.84881L2.47776 4.74341M1.91396 3.74332L2.47776 4.74341M2.47776 4.74341L2.37248 4.84881C2.66585 5.14186 3.06362 5.30647 3.4784 5.30615M2.47776 4.74341L4.58384 4.84731M4.58384 4.84731L4.58382 4.84733C4.29078 5.1408 3.89321 5.30594 3.4784 5.30615M4.58384 4.84731C4.87679 4.55381 5.04117 4.15594 5.04077 3.74128L4.58384 4.84731ZM3.4784 5.30615L3.47833 5.15615L3.47845 5.30615C3.47843 5.30615 3.47842 5.30615 3.4784 5.30615ZM2.87605 4.34277L2.87599 4.34272C2.71647 4.18328 2.62686 3.96696 2.62686 3.7414C2.62686 3.51584 2.71646 3.29951 2.87602 3.13995C3.03549 2.98048 3.25184 2.89079 3.47737 2.89079C3.70301 2.89079 3.91934 2.98048 4.07882 3.13995C4.23837 3.2995 4.32797 3.51584 4.32797 3.7414C4.32797 3.96696 4.23837 4.18328 4.07884 4.34272L4.07879 4.34277C3.91935 4.50229 3.70304 4.5919 3.47737 4.5919C3.2518 4.5919 3.03549 4.5023 2.87605 4.34277ZM3.47737 2.17935C3.0627 2.17935 2.66492 2.34415 2.37174 2.63745L5.04077 3.74125C5.04045 3.3268 4.87553 2.92956 4.58236 2.63669C4.28919 2.34381 3.89183 2.17935 3.47739 2.17935H3.47737Z" fill="#FFF0E8" stroke="#FFF0E8" stroke-width="0.3"/>
<path d="M11.5089 3.74283L11.5089 3.74287C11.5086 4.15761 11.3436 4.55529 11.0501 4.84827C10.7715 5.12633 10.3989 5.28865 10.007 5.30407L10.0056 5.30542L9.94375 5.3053C9.52957 5.30446 9.13258 5.13944 8.83984 4.8464L8.83984 4.8464C8.54712 4.55337 8.38242 4.15625 8.3821 3.74201L8.3821 3.7419C8.3821 3.32714 8.54681 2.92945 8.84021 2.63617C9.13348 2.343 9.53125 2.17829 9.94594 2.17849L11.5089 3.74283ZM11.5089 3.74283C11.5091 3.3282 11.3447 2.93031 11.0515 2.63691L11.5089 3.74283ZM10.5463 3.14129L10.5463 3.14127C10.3881 2.98334 10.1741 2.89409 9.95071 2.89273L9.94428 2.89274C9.7191 2.89308 9.50326 2.9826 9.34406 3.1418L9.34406 3.1418C9.18486 3.301 9.09524 3.51693 9.0949 3.74206L10.5463 3.14129ZM10.5463 3.14129C10.7061 3.30077 10.7959 3.51709 10.796 3.74279M10.5463 3.14129L10.796 3.74279M9.94507 4.59373L9.94513 4.59373C10.1708 4.5939 10.3873 4.50422 10.5469 4.34467L9.94507 4.59373ZM9.94507 4.59373C9.71933 4.59365 9.50293 4.50388 9.34348 4.34411M9.94507 4.59373L9.34348 4.34411M10.796 3.74279C10.7961 3.96853 10.7065 4.18504 10.5469 4.34467L10.796 3.74279ZM9.34348 4.34411C9.18403 4.18434 9.09467 3.96785 9.0949 3.74211L9.34348 4.34411ZM11.0515 2.63689C10.7584 2.3435 10.3607 2.17861 9.94598 2.17849L11.0515 2.63689Z" fill="#FFF0E8" stroke="#FFF0E8" stroke-width="0.3"/>
<path d="M4.5882 9.38086C5.08803 9.51524 5.80958 9.60865 6.67825 9.60865L4.5882 9.38086ZM4.5882 9.38086C4.33724 9.31339 4.14972 9.23756 4.02853 9.16294M4.5882 9.38086L4.02853 9.16294M4.02853 9.16294C3.89614 9.08143 3.88731 9.03021 3.88731 9.02646M4.02853 9.16294L3.88731 9.02646M3.88731 9.02646C3.88731 7.57163 4.41398 6.79843 4.99876 6.3807M3.88731 9.02646L4.99876 6.3807M4.99876 6.3807C5.59172 5.95711 6.26879 5.88162 6.5934 5.87347M4.99876 6.3807L6.5934 5.87347M6.5934 5.87347H6.76563C7.1803 5.88505 7.85508 5.98063 8.42375 6.41176C8.98531 6.8375 9.468 7.60932 9.468 9.02646C9.468 9.03042 9.45911 9.08163 9.32723 9.16303C9.20639 9.2376 9.01932 9.31341 8.76871 9.38087C8.26958 9.51524 7.54836 9.60865 6.67829 9.60865L6.5934 5.87347ZM1.82361 9.21663L1.83162 9.18712L1.82801 9.21778C2.30181 9.33085 2.78662 9.39068 3.27346 9.39629C3.35567 9.53997 3.48545 9.6622 3.65125 9.76594C3.85169 9.89135 4.11276 9.99493 4.42936 10.0797L4.43722 10.0504L4.43368 10.0808C5.17166 10.2546 5.92822 10.3368 6.68636 10.3257C6.9495 10.3256 7.69768 10.3135 8.4268 10.1901C8.79132 10.1284 9.15878 10.0377 9.4606 9.90272C9.72262 9.78554 9.95688 9.62527 10.0829 9.40156C10.374 9.39736 10.9223 9.37213 11.4239 9.26332C11.7041 9.20252 11.9822 9.11309 12.1939 8.97817C12.4073 8.84214 12.5742 8.64451 12.5742 8.37012V8.37001C12.5735 7.34869 12.2513 6.62855 11.7611 6.16004C11.2734 5.69383 10.635 5.49173 10.0269 5.47432L9.91055 5.47099L9.90956 5.47443H9.86705V5.4744L9.86371 5.47447C9.46579 5.48335 9.0749 5.57879 8.71813 5.75378C8.14193 5.382 7.47363 5.17648 6.78696 5.16078C6.71416 5.15721 6.64127 5.15721 6.56839 5.16078C5.89339 5.17564 5.23582 5.37441 4.66622 5.7349C4.31877 5.57475 3.94154 5.48825 3.55839 5.48136L3.55839 5.48134H3.55569H3.40017V5.4813L3.3968 5.48138C2.7876 5.49509 2.14899 5.6958 1.66146 6.16086C1.17153 6.62821 0.85 7.3474 0.85 8.36589C0.85 8.57774 0.950051 8.75539 1.122 8.89552C1.28939 9.03194 1.52799 9.13632 1.82361 9.21663ZM9.31531 6.28314C9.50147 6.2276 9.69453 6.19712 9.8894 6.19276H10.0123C10.2989 6.20088 10.7613 6.26719 11.1496 6.56262C11.5271 6.8498 11.8588 7.37211 11.8654 8.34192C11.8555 8.35109 11.8383 8.36439 11.8111 8.38066C11.7427 8.42152 11.6316 8.46891 11.473 8.51399C11.1814 8.5969 10.7477 8.6669 10.1705 8.68133C10.1116 7.57762 9.77362 6.80895 9.31531 6.28314ZM11.8743 8.33263C11.8748 8.33189 11.875 8.33152 11.8751 8.33152L11.8743 8.33263ZM3.54425 6.18723C3.71839 6.19147 3.89111 6.21665 4.0587 6.26204C3.59032 6.79129 3.24556 7.56326 3.18501 8.68005C2.63093 8.66097 2.2146 8.59068 1.93513 8.50855C1.78253 8.4637 1.67653 8.417 1.61217 8.377C1.58722 8.36148 1.57175 8.34895 1.56293 8.34048C1.56861 7.36945 1.90034 6.84611 2.27883 6.55819C2.66767 6.26239 3.13143 6.1954 3.4215 6.18723H3.54425ZM1.55437 8.33098C1.55439 8.33098 1.55459 8.33125 1.55492 8.33178L1.55437 8.33098Z" fill="#FFF0E8" stroke="#FFF0E8" stroke-width="0.3"/>
<path d="M5.24225 1.44454L5.24225 1.44453C5.62271 1.06388 6.13885 0.850025 6.67706 0.850025C7.21456 0.850025 7.73009 1.06336 8.11043 1.44317L5.24225 1.44454ZM5.24225 1.44454C4.86181 1.82519 4.64814 2.34143 4.64846 2.87967C4.64846 2.87967 4.64846 2.87967 4.64846 2.87967M5.24225 1.44454L4.64846 2.87967M6.67905 4.90725H6.67905C6.14085 4.90775 5.6245 4.69443 5.24372 4.31408C4.86283 3.93383 4.64877 3.41777 4.64846 2.87967M6.67905 4.90725L4.64846 2.87967M6.67905 4.90725C7.21717 4.90673 7.73313 4.69235 8.11325 4.31128M6.67905 4.90725L8.11325 4.31128M4.64846 2.87967L4.79846 2.87958L4.64846 2.87967ZM8.11325 4.31128C8.49328 3.93033 8.70644 3.41387 8.70559 2.87561M8.11325 4.31128L8.70559 2.87561M8.70559 2.87561C8.70485 2.33812 8.49079 1.82291 8.11044 1.44318L8.55559 2.87585L8.70559 2.87564C8.70559 2.87563 8.70559 2.87562 8.70559 2.87561ZM6.67706 4.19705V4.19292C6.32814 4.19292 5.99353 4.05435 5.74681 3.80764L5.7468 3.80762C5.50007 3.56098 5.36142 3.22646 5.36134 2.87765C5.36125 2.52871 5.49965 2.1941 5.74627 1.9473L5.74628 1.94729C5.99283 1.70047 6.32736 1.56167 6.67615 1.5615H6.67619C7.02507 1.56124 7.35967 1.69961 7.60659 1.94609C7.8535 2.19266 7.9924 2.52711 7.99266 2.87589L7.99266 2.87621C7.9937 3.22594 7.85556 3.56169 7.60873 3.80949C7.36191 4.05723 7.02672 4.19668 6.67706 4.19705Z" fill="#FFF0E8" stroke="#FFF0E8" stroke-width="0.3"/>
</svg>
