<svg width="136" height="137" viewBox="0 0 136 137" fill="none" xmlns="http://www.w3.org/2000/svg">
<path d="M0 0V32.7937H32.7937V0H0ZM28.1089 28.1089H4.68481V4.68481H28.1089V28.1089Z" fill="#FFF0E8"/>
<path d="M23.4241 9.36914H9.36963V23.4236H23.4241V9.36914Z" fill="#FFF0E8"/>
<path d="M103.066 0V32.7937H135.86V0H103.066ZM131.175 28.1089H107.751V4.68481H131.175V28.1089Z" fill="#FFF0E8"/>
<path d="M126.49 9.36914H112.436V23.4236H126.49V9.36914Z" fill="#FFF0E8"/>
<path d="M0 103.066V135.86H32.7937V103.066H0ZM28.1089 131.175H4.68481V107.751H28.1089V131.175Z" fill="#FFF0E8"/>
<path d="M23.4241 112.436H9.36963V126.49H23.4241V112.436Z" fill="#FFF0E8"/>
<mask id="mask0_283_1899" style="mask-type:luminance" maskUnits="userSpaceOnUse" x="0" y="0" width="137" height="137">
<path d="M42.3039 0H37.4785V4.82535H42.3039V0Z" fill="white"/>
<path d="M46.9887 0H42.1633V4.82535H46.9887V0Z" fill="white"/>
<path d="M56.3583 0H51.533V4.82535H56.3583V0Z" fill="white"/>
<path d="M61.0431 0H56.2178V4.82535H61.0431V0Z" fill="white"/>
<path d="M70.4125 0H65.5872V4.82535H70.4125V0Z" fill="white"/>
<path d="M75.0973 0H70.272V4.82535H75.0973V0Z" fill="white"/>
<path d="M84.467 0H79.6416V4.82535H84.467V0Z" fill="white"/>
<path d="M89.152 0H84.3267V4.82535H89.152V0Z" fill="white"/>
<path d="M42.3036 4.68359H37.4783V9.50895H42.3036V4.68359Z" fill="white"/>
<path d="M46.9887 4.68359H42.1633V9.50895H46.9887V4.68359Z" fill="white"/>
<path d="M51.6735 4.68359H46.8481V9.50895H51.6735V4.68359Z" fill="white"/>
<path d="M70.4128 4.68359H65.5874V9.50895H70.4128V4.68359Z" fill="white"/>
<path d="M75.0976 4.68359H70.2722V9.50895H75.0976V4.68359Z" fill="white"/>
<path d="M79.7824 4.68359H74.957V9.50895H79.7824V4.68359Z" fill="white"/>
<path d="M84.4672 4.68359H79.6418V9.50895H84.4672V4.68359Z" fill="white"/>
<path d="M42.3039 9.36914H37.4785V14.1945H42.3039V9.36914Z" fill="white"/>
<path d="M56.3583 9.36914H51.533V14.1945H56.3583V9.36914Z" fill="white"/>
<path d="M65.7277 9.36914H60.9023V14.1945H65.7277V9.36914Z" fill="white"/>
<path d="M70.4128 9.36914H65.5874V14.1945H70.4128V9.36914Z" fill="white"/>
<path d="M75.0976 9.36914H70.2722V14.1945H75.0976V9.36914Z" fill="white"/>
<path d="M79.7824 9.36914H74.957V14.1945H79.7824V9.36914Z" fill="white"/>
<path d="M89.152 9.36914H84.3267V14.1945H89.152V9.36914Z" fill="white"/>
<path d="M93.8368 9.36914H89.0115V14.1945H93.8368V9.36914Z" fill="white"/>
<path d="M98.5216 9.36914H93.6963V14.1945H98.5216V9.36914Z" fill="white"/>
<path d="M51.6735 14.0566H46.8481V18.882H51.6735V14.0566Z" fill="white"/>
<path d="M56.3583 14.0566H51.533V18.882H56.3583V14.0566Z" fill="white"/>
<path d="M65.7279 14.0566H60.9026V18.882H65.7279V14.0566Z" fill="white"/>
<path d="M79.7824 14.0566H74.957V18.882H79.7824V14.0566Z" fill="white"/>
<path d="M84.4672 14.0566H79.6418V18.882H84.4672V14.0566Z" fill="white"/>
<path d="M46.9887 18.7402H42.1633V23.5656H46.9887V18.7402Z" fill="white"/>
<path d="M51.6735 18.7402H46.8481V23.5656H51.6735V18.7402Z" fill="white"/>
<path d="M56.3583 18.7402H51.533V23.5656H56.3583V18.7402Z" fill="white"/>
<path d="M70.4128 18.7402H65.5874V23.5656H70.4128V18.7402Z" fill="white"/>
<path d="M84.4672 18.7402H79.6418V23.5656H84.4672V18.7402Z" fill="white"/>
<path d="M89.1518 18.7402H84.3264V23.5656H89.1518V18.7402Z" fill="white"/>
<path d="M93.8366 18.7402H89.0112V23.5656H93.8366V18.7402Z" fill="white"/>
<path d="M42.3036 23.4219H37.4783V28.2472H42.3036V23.4219Z" fill="white"/>
<path d="M46.9887 23.4219H42.1633V28.2472H46.9887V23.4219Z" fill="white"/>
<path d="M51.6735 23.4219H46.8481V28.2472H51.6735V23.4219Z" fill="white"/>
<path d="M70.4128 23.4219H65.5874V28.2472H70.4128V23.4219Z" fill="white"/>
<path d="M79.7824 23.4219H74.957V28.2472H79.7824V23.4219Z" fill="white"/>
<path d="M84.4672 23.4219H79.6418V28.2472H84.4672V23.4219Z" fill="white"/>
<path d="M42.3036 28.1094H37.4783V32.9347H42.3036V28.1094Z" fill="white"/>
<path d="M51.6735 28.1094H46.8481V32.9347H51.6735V28.1094Z" fill="white"/>
<path d="M61.0429 28.1094H56.2175V32.9347H61.0429V28.1094Z" fill="white"/>
<path d="M70.4128 28.1094H65.5874V32.9347H70.4128V28.1094Z" fill="white"/>
<path d="M79.7824 28.1094H74.957V32.9347H79.7824V28.1094Z" fill="white"/>
<path d="M89.1518 28.1094H84.3264V32.9347H89.1518V28.1094Z" fill="white"/>
<path d="M98.5214 28.1094H93.696V32.9347H98.5214V28.1094Z" fill="white"/>
<path d="M42.3036 32.793H37.4783V37.6183H42.3036V32.793Z" fill="white"/>
<path d="M46.9887 32.793H42.1633V37.6183H46.9887V32.793Z" fill="white"/>
<path d="M51.6735 32.793H46.8481V37.6183H51.6735V32.793Z" fill="white"/>
<path d="M70.4128 32.793H65.5874V37.6183H70.4128V32.793Z" fill="white"/>
<path d="M79.7824 32.793H74.957V37.6183H79.7824V32.793Z" fill="white"/>
<path d="M84.4672 32.793H79.6418V37.6183H84.4672V32.793Z" fill="white"/>
<path d="M89.1518 32.793H84.3264V37.6183H89.1518V32.793Z" fill="white"/>
<path d="M93.8366 32.793H89.0112V37.6183H93.8366V32.793Z" fill="white"/>
<path d="M14.195 37.4785H9.36963V42.3039H14.195V37.4785Z" fill="white"/>
<path d="M18.8798 37.4785H14.0544V42.3039H18.8798V37.4785Z" fill="white"/>
<path d="M23.5646 37.4785H18.7393V42.3039H23.5646V37.4785Z" fill="white"/>
<path d="M32.9342 37.4785H28.1089V42.3039H32.9342V37.4785Z" fill="white"/>
<path d="M42.3039 37.4785H37.4785V42.3039H42.3039V37.4785Z" fill="white"/>
<path d="M46.9887 37.4785H42.1633V42.3039H46.9887V37.4785Z" fill="white"/>
<path d="M56.3583 37.4785H51.533V42.3039H56.3583V37.4785Z" fill="white"/>
<path d="M61.0431 37.4785H56.2178V42.3039H61.0431V37.4785Z" fill="white"/>
<path d="M79.7821 37.4785H74.9568V42.3039H79.7821V37.4785Z" fill="white"/>
<path d="M98.5216 37.4785H93.6963V42.3039H98.5216V37.4785Z" fill="white"/>
<path d="M103.206 37.4785H98.3811V42.3039H103.206V37.4785Z" fill="white"/>
<path d="M107.891 37.4785H103.066V42.3039H107.891V37.4785Z" fill="white"/>
<path d="M112.576 37.4785H107.75V42.3039H112.576V37.4785Z" fill="white"/>
<path d="M126.63 37.4785H121.805V42.3039H126.63V37.4785Z" fill="white"/>
<path d="M131.315 37.4785H126.49V42.3039H131.315V37.4785Z" fill="white"/>
<path d="M136 37.4785H131.175V42.3039H136V37.4785Z" fill="white"/>
<path d="M4.82535 42.1621H0V46.9875H4.82535V42.1621Z" fill="white"/>
<path d="M9.51017 42.1621H4.68481V46.9875H9.51017V42.1621Z" fill="white"/>
<path d="M28.2492 42.1621H23.4238V46.9875H28.2492V42.1621Z" fill="white"/>
<path d="M37.6188 42.1621H32.7935V46.9875H37.6188V42.1621Z" fill="white"/>
<path d="M42.3036 42.1621H37.4783V46.9875H42.3036V42.1621Z" fill="white"/>
<path d="M51.6735 42.1621H46.8481V46.9875H51.6735V42.1621Z" fill="white"/>
<path d="M56.3583 42.1621H51.533V46.9875H56.3583V42.1621Z" fill="white"/>
<path d="M75.0976 42.1621H70.2722V46.9875H75.0976V42.1621Z" fill="white"/>
<path d="M89.1518 42.1621H84.3264V46.9875H89.1518V42.1621Z" fill="white"/>
<path d="M98.5214 42.1621H93.696V46.9875H98.5214V42.1621Z" fill="white"/>
<path d="M112.576 42.1621H107.75V46.9875H112.576V42.1621Z" fill="white"/>
<path d="M117.261 42.1621H112.435V46.9875H117.261V42.1621Z" fill="white"/>
<path d="M121.945 42.1621H117.12V46.9875H121.945V42.1621Z" fill="white"/>
<path d="M136 42.1621H131.175V46.9875H136V42.1621Z" fill="white"/>
<path d="M4.82535 46.8477H0V51.673H4.82535V46.8477Z" fill="white"/>
<path d="M9.51017 46.8477H4.68481V51.673H9.51017V46.8477Z" fill="white"/>
<path d="M14.195 46.8477H9.36963V51.673H14.195V46.8477Z" fill="white"/>
<path d="M28.2492 46.8477H23.4238V51.673H28.2492V46.8477Z" fill="white"/>
<path d="M32.934 46.8477H28.1086V51.673H32.934V46.8477Z" fill="white"/>
<path d="M37.6188 46.8477H32.7935V51.673H37.6188V46.8477Z" fill="white"/>
<path d="M46.9887 46.8477H42.1633V51.673H46.9887V46.8477Z" fill="white"/>
<path d="M51.6735 46.8477H46.8481V51.673H51.6735V46.8477Z" fill="white"/>
<path d="M61.0431 46.8477H56.2178V51.673H61.0431V46.8477Z" fill="white"/>
<path d="M75.0976 46.8477H70.2722V51.673H75.0976V46.8477Z" fill="white"/>
<path d="M84.4672 46.8477H79.6418V51.673H84.4672V46.8477Z" fill="white"/>
<path d="M89.1518 46.8477H84.3264V51.673H89.1518V46.8477Z" fill="white"/>
<path d="M98.5214 46.8477H93.696V51.673H98.5214V46.8477Z" fill="white"/>
<path d="M103.206 46.8477H98.3809V51.673H103.206V46.8477Z" fill="white"/>
<path d="M107.891 46.8477H103.066V51.673H107.891V46.8477Z" fill="white"/>
<path d="M18.8798 51.5312H14.0544V56.3566H18.8798V51.5312Z" fill="white"/>
<path d="M23.5644 51.5312H18.739V56.3566H23.5644V51.5312Z" fill="white"/>
<path d="M46.9887 51.5312H42.1633V56.3566H46.9887V51.5312Z" fill="white"/>
<path d="M51.6735 51.5312H46.8481V56.3566H51.6735V51.5312Z" fill="white"/>
<path d="M61.0429 51.5312H56.2175V56.3566H61.0429V51.5312Z" fill="white"/>
<path d="M65.7279 51.5312H60.9026V56.3566H65.7279V51.5312Z" fill="white"/>
<path d="M79.7824 51.5312H74.957V56.3566H79.7824V51.5312Z" fill="white"/>
<path d="M84.4672 51.5312H79.6418V56.3566H84.4672V51.5312Z" fill="white"/>
<path d="M89.1518 51.5312H84.3264V56.3566H89.1518V51.5312Z" fill="white"/>
<path d="M93.8366 51.5312H89.0112V56.3566H93.8366V51.5312Z" fill="white"/>
<path d="M98.5214 51.5312H93.696V56.3566H98.5214V51.5312Z" fill="white"/>
<path d="M103.206 51.5312H98.3809V56.3566H103.206V51.5312Z" fill="white"/>
<path d="M107.891 51.5312H103.066V56.3566H107.891V51.5312Z" fill="white"/>
<path d="M112.576 51.5312H107.751V56.3566H112.576V51.5312Z" fill="white"/>
<path d="M121.946 51.5312H117.12V56.3566H121.946V51.5312Z" fill="white"/>
<path d="M131.315 51.5312H126.49V56.3566H131.315V51.5312Z" fill="white"/>
<path d="M9.51017 56.2188H4.68481V61.0441H9.51017V56.2188Z" fill="white"/>
<path d="M14.195 56.2188H9.36963V61.0441H14.195V56.2188Z" fill="white"/>
<path d="M18.8796 56.2188H14.0542V61.0441H18.8796V56.2188Z" fill="white"/>
<path d="M23.5646 56.2188H18.7393V61.0441H23.5646V56.2188Z" fill="white"/>
<path d="M28.2494 56.2188H23.4241V61.0441H28.2494V56.2188Z" fill="white"/>
<path d="M32.9342 56.2188H28.1089V61.0441H32.9342V56.2188Z" fill="white"/>
<path d="M56.3583 56.2188H51.533V61.0441H56.3583V56.2188Z" fill="white"/>
<path d="M70.4128 56.2188H65.5874V61.0441H70.4128V56.2188Z" fill="white"/>
<path d="M75.0976 56.2188H70.2722V61.0441H75.0976V56.2188Z" fill="white"/>
<path d="M89.152 56.2188H84.3267V61.0441H89.152V56.2188Z" fill="white"/>
<path d="M98.5216 56.2188H93.6963V61.0441H98.5216V56.2188Z" fill="white"/>
<path d="M103.206 56.2188H98.3809V61.0441H103.206V56.2188Z" fill="white"/>
<path d="M112.576 56.2188H107.751V61.0441H112.576V56.2188Z" fill="white"/>
<path d="M126.63 56.2188H121.805V61.0441H126.63V56.2188Z" fill="white"/>
<path d="M131.315 56.2188H126.49V61.0441H131.315V56.2188Z" fill="white"/>
<path d="M136 56.2188H131.175V61.0441H136V56.2188Z" fill="white"/>
<path d="M9.51017 60.9043H4.68481V65.7296H9.51017V60.9043Z" fill="white"/>
<path d="M14.195 60.9043H9.36963V65.7296H14.195V60.9043Z" fill="white"/>
<path d="M18.8798 60.9043H14.0544V65.7296H18.8798V60.9043Z" fill="white"/>
<path d="M28.2497 60.9043H23.4243V65.7296H28.2497V60.9043Z" fill="white"/>
<path d="M37.6188 60.9043H32.7935V65.7296H37.6188V60.9043Z" fill="white"/>
<path d="M46.9887 60.9043H42.1633V65.7296H46.9887V60.9043Z" fill="white"/>
<path d="M51.6735 60.9043H46.8481V65.7296H51.6735V60.9043Z" fill="white"/>
<path d="M70.4128 60.9043H65.5874V65.7296H70.4128V60.9043Z" fill="white"/>
<path d="M75.0976 60.9043H70.2722V65.7296H75.0976V60.9043Z" fill="white"/>
<path d="M84.4672 60.9043H79.6418V65.7296H84.4672V60.9043Z" fill="white"/>
<path d="M89.1518 60.9043H84.3264V65.7296H89.1518V60.9043Z" fill="white"/>
<path d="M93.8366 60.9043H89.0112V65.7296H93.8366V60.9043Z" fill="white"/>
<path d="M98.5214 60.9043H93.696V65.7296H98.5214V60.9043Z" fill="white"/>
<path d="M103.206 60.9043H98.3809V65.7296H103.206V60.9043Z" fill="white"/>
<path d="M107.891 60.9043H103.066V65.7296H107.891V60.9043Z" fill="white"/>
<path d="M117.261 60.9043H112.436V65.7296H117.261V60.9043Z" fill="white"/>
<path d="M121.946 60.9043H117.12V65.7296H121.946V60.9043Z" fill="white"/>
<path d="M131.315 60.9043H126.49V65.7296H131.315V60.9043Z" fill="white"/>
<path d="M136 60.9043H131.175V65.7296H136V60.9043Z" fill="white"/>
<path d="M9.51017 65.5879H4.68481V70.4132H9.51017V65.5879Z" fill="white"/>
<path d="M28.2497 65.5879H23.4243V70.4132H28.2497V65.5879Z" fill="white"/>
<path d="M32.9345 65.5879H28.1091V70.4132H32.9345V65.5879Z" fill="white"/>
<path d="M37.6188 65.5879H32.7935V70.4132H37.6188V65.5879Z" fill="white"/>
<path d="M56.3583 65.5879H51.533V70.4132H56.3583V65.5879Z" fill="white"/>
<path d="M61.0429 65.5879H56.2175V70.4132H61.0429V65.5879Z" fill="white"/>
<path d="M70.4128 65.5879H65.5874V70.4132H70.4128V65.5879Z" fill="white"/>
<path d="M79.7824 65.5879H74.957V70.4132H79.7824V65.5879Z" fill="white"/>
<path d="M84.4672 65.5879H79.6418V70.4132H84.4672V65.5879Z" fill="white"/>
<path d="M89.1518 65.5879H84.3264V70.4132H89.1518V65.5879Z" fill="white"/>
<path d="M98.5214 65.5879H93.696V70.4132H98.5214V65.5879Z" fill="white"/>
<path d="M103.206 65.5879H98.3809V70.4132H103.206V65.5879Z" fill="white"/>
<path d="M112.576 65.5879H107.751V70.4132H112.576V65.5879Z" fill="white"/>
<path d="M14.195 70.2715H9.36963V75.0968H14.195V70.2715Z" fill="white"/>
<path d="M42.3036 70.2715H37.4783V75.0968H42.3036V70.2715Z" fill="white"/>
<path d="M46.9887 70.2715H42.1633V75.0968H46.9887V70.2715Z" fill="white"/>
<path d="M51.6735 70.2715H46.8481V75.0968H51.6735V70.2715Z" fill="white"/>
<path d="M65.7279 70.2715H60.9026V75.0968H65.7279V70.2715Z" fill="white"/>
<path d="M70.4128 70.2715H65.5874V75.0968H70.4128V70.2715Z" fill="white"/>
<path d="M75.0976 70.2715H70.2722V75.0968H75.0976V70.2715Z" fill="white"/>
<path d="M79.7824 70.2715H74.957V75.0968H79.7824V70.2715Z" fill="white"/>
<path d="M84.4672 70.2715H79.6418V75.0968H84.4672V70.2715Z" fill="white"/>
<path d="M107.891 70.2715H103.066V75.0968H107.891V70.2715Z" fill="white"/>
<path d="M117.261 70.2715H112.436V75.0968H117.261V70.2715Z" fill="white"/>
<path d="M121.946 70.2715H117.12V75.0968H121.946V70.2715Z" fill="white"/>
<path d="M136 70.2715H131.175V75.0968H136V70.2715Z" fill="white"/>
<path d="M4.82535 74.957H0V79.7824H4.82535V74.957Z" fill="white"/>
<path d="M23.5646 74.957H18.7393V79.7824H23.5646V74.957Z" fill="white"/>
<path d="M28.2494 74.957H23.4241V79.7824H28.2494V74.957Z" fill="white"/>
<path d="M32.9342 74.957H28.1089V79.7824H32.9342V74.957Z" fill="white"/>
<path d="M42.3039 74.957H37.4785V79.7824H42.3039V74.957Z" fill="white"/>
<path d="M51.6735 74.957H46.8481V79.7824H51.6735V74.957Z" fill="white"/>
<path d="M61.0429 74.957H56.2175V79.7824H61.0429V74.957Z" fill="white"/>
<path d="M70.4128 74.957H65.5874V79.7824H70.4128V74.957Z" fill="white"/>
<path d="M79.7824 74.957H74.957V79.7824H79.7824V74.957Z" fill="white"/>
<path d="M84.467 74.957H79.6416V79.7824H84.467V74.957Z" fill="white"/>
<path d="M89.152 74.957H84.3267V79.7824H89.152V74.957Z" fill="white"/>
<path d="M98.5216 74.957H93.6963V79.7824H98.5216V74.957Z" fill="white"/>
<path d="M117.261 74.957H112.436V79.7824H117.261V74.957Z" fill="white"/>
<path d="M121.946 74.957H117.12V79.7824H121.946V74.957Z" fill="white"/>
<path d="M126.63 74.957H121.805V79.7824H126.63V74.957Z" fill="white"/>
<path d="M136 74.957H131.175V79.7824H136V74.957Z" fill="white"/>
<path d="M4.82535 79.6406H0V84.466H4.82535V79.6406Z" fill="white"/>
<path d="M18.8798 79.6406H14.0544V84.466H18.8798V79.6406Z" fill="white"/>
<path d="M23.5646 79.6406H18.7393V84.466H23.5646V79.6406Z" fill="white"/>
<path d="M28.2492 79.6406H23.4238V84.466H28.2492V79.6406Z" fill="white"/>
<path d="M56.3583 79.6406H51.533V84.466H56.3583V79.6406Z" fill="white"/>
<path d="M61.0431 79.6406H56.2178V84.466H61.0431V79.6406Z" fill="white"/>
<path d="M70.4128 79.6406H65.5874V84.466H70.4128V79.6406Z" fill="white"/>
<path d="M75.0976 79.6406H70.2722V84.466H75.0976V79.6406Z" fill="white"/>
<path d="M79.7824 79.6406H74.957V84.466H79.7824V79.6406Z" fill="white"/>
<path d="M84.4672 79.6406H79.6418V84.466H84.4672V79.6406Z" fill="white"/>
<path d="M89.1518 79.6406H84.3264V84.466H89.1518V79.6406Z" fill="white"/>
<path d="M98.5214 79.6406H93.696V84.466H98.5214V79.6406Z" fill="white"/>
<path d="M103.206 79.6406H98.3809V84.466H103.206V79.6406Z" fill="white"/>
<path d="M112.576 79.6406H107.75V84.466H112.576V79.6406Z" fill="white"/>
<path d="M117.261 79.6406H112.435V84.466H117.261V79.6406Z" fill="white"/>
<path d="M121.945 79.6406H117.12V84.466H121.945V79.6406Z" fill="white"/>
<path d="M131.315 79.6406H126.49V84.466H131.315V79.6406Z" fill="white"/>
<path d="M136 79.6406H131.175V84.466H136V79.6406Z" fill="white"/>
<path d="M4.82535 84.3262H0V89.1515H4.82535V84.3262Z" fill="white"/>
<path d="M14.195 84.3262H9.36963V89.1515H14.195V84.3262Z" fill="white"/>
<path d="M18.8798 84.3262H14.0544V89.1515H18.8798V84.3262Z" fill="white"/>
<path d="M23.5646 84.3262H18.7393V89.1515H23.5646V84.3262Z" fill="white"/>
<path d="M28.2492 84.3262H23.4238V89.1515H28.2492V84.3262Z" fill="white"/>
<path d="M32.934 84.3262H28.1086V89.1515H32.934V84.3262Z" fill="white"/>
<path d="M42.3036 84.3262H37.4783V89.1515H42.3036V84.3262Z" fill="white"/>
<path d="M51.6735 84.3262H46.8481V89.1515H51.6735V84.3262Z" fill="white"/>
<path d="M56.3583 84.3262H51.533V89.1515H56.3583V84.3262Z" fill="white"/>
<path d="M61.0431 84.3262H56.2178V89.1515H61.0431V84.3262Z" fill="white"/>
<path d="M84.4672 84.3262H79.6418V89.1515H84.4672V84.3262Z" fill="white"/>
<path d="M98.5214 84.3262H93.696V89.1515H98.5214V84.3262Z" fill="white"/>
<path d="M107.891 84.3262H103.066V89.1515H107.891V84.3262Z" fill="white"/>
<path d="M112.576 84.3262H107.75V89.1515H112.576V84.3262Z" fill="white"/>
<path d="M121.945 84.3262H117.12V89.1515H121.945V84.3262Z" fill="white"/>
<path d="M4.82535 89.0098H0V93.8351H4.82535V89.0098Z" fill="white"/>
<path d="M14.195 89.0098H9.36963V93.8351H14.195V89.0098Z" fill="white"/>
<path d="M18.8798 89.0098H14.0544V93.8351H18.8798V89.0098Z" fill="white"/>
<path d="M23.5646 89.0098H18.7393V93.8351H23.5646V89.0098Z" fill="white"/>
<path d="M28.2492 89.0098H23.4238V93.8351H28.2492V89.0098Z" fill="white"/>
<path d="M42.3036 89.0098H37.4783V93.8351H42.3036V89.0098Z" fill="white"/>
<path d="M46.9887 89.0098H42.1633V93.8351H46.9887V89.0098Z" fill="white"/>
<path d="M56.3583 89.0098H51.533V93.8351H56.3583V89.0098Z" fill="white"/>
<path d="M61.0431 89.0098H56.2178V93.8351H61.0431V89.0098Z" fill="white"/>
<path d="M75.0976 89.0098H70.2722V93.8351H75.0976V89.0098Z" fill="white"/>
<path d="M79.7824 89.0098H74.957V93.8351H79.7824V89.0098Z" fill="white"/>
<path d="M84.4672 89.0098H79.6418V93.8351H84.4672V89.0098Z" fill="white"/>
<path d="M89.1518 89.0098H84.3264V93.8351H89.1518V89.0098Z" fill="white"/>
<path d="M93.8366 89.0098H89.0112V93.8351H93.8366V89.0098Z" fill="white"/>
<path d="M107.891 89.0098H103.066V93.8351H107.891V89.0098Z" fill="white"/>
<path d="M112.576 89.0098H107.75V93.8351H112.576V89.0098Z" fill="white"/>
<path d="M121.945 89.0098H117.12V93.8351H121.945V89.0098Z" fill="white"/>
<path d="M136 89.0098H131.175V93.8351H136V89.0098Z" fill="white"/>
<path d="M4.82535 93.6973H0V98.5226H4.82535V93.6973Z" fill="white"/>
<path d="M18.8798 93.6973H14.0544V98.5226H18.8798V93.6973Z" fill="white"/>
<path d="M23.5644 93.6973H18.739V98.5226H23.5644V93.6973Z" fill="white"/>
<path d="M28.2497 93.6973H23.4243V98.5226H28.2497V93.6973Z" fill="white"/>
<path d="M32.9345 93.6973H28.1091V98.5226H32.9345V93.6973Z" fill="white"/>
<path d="M37.6188 93.6973H32.7935V98.5226H37.6188V93.6973Z" fill="white"/>
<path d="M51.6735 93.6973H46.8481V98.5226H51.6735V93.6973Z" fill="white"/>
<path d="M56.3583 93.6973H51.533V98.5226H56.3583V93.6973Z" fill="white"/>
<path d="M61.0429 93.6973H56.2175V98.5226H61.0429V93.6973Z" fill="white"/>
<path d="M65.7279 93.6973H60.9026V98.5226H65.7279V93.6973Z" fill="white"/>
<path d="M75.0976 93.6973H70.2722V98.5226H75.0976V93.6973Z" fill="white"/>
<path d="M84.4672 93.6973H79.6418V98.5226H84.4672V93.6973Z" fill="white"/>
<path d="M98.5214 93.6973H93.696V98.5226H98.5214V93.6973Z" fill="white"/>
<path d="M103.206 93.6973H98.3809V98.5226H103.206V93.6973Z" fill="white"/>
<path d="M107.891 93.6973H103.066V98.5226H107.891V93.6973Z" fill="white"/>
<path d="M112.576 93.6973H107.751V98.5226H112.576V93.6973Z" fill="white"/>
<path d="M117.261 93.6973H112.436V98.5226H117.261V93.6973Z" fill="white"/>
<path d="M121.946 93.6973H117.12V98.5226H121.946V93.6973Z" fill="white"/>
<path d="M126.631 93.6973H121.805V98.5226H126.631V93.6973Z" fill="white"/>
<path d="M42.3036 98.3809H37.4783V103.206H42.3036V98.3809Z" fill="white"/>
<path d="M56.3583 98.3809H51.533V103.206H56.3583V98.3809Z" fill="white"/>
<path d="M89.1518 98.3809H84.3264V103.206H89.1518V98.3809Z" fill="white"/>
<path d="M93.8366 98.3809H89.0112V103.206H93.8366V98.3809Z" fill="white"/>
<path d="M98.5214 98.3809H93.696V103.206H98.5214V98.3809Z" fill="white"/>
<path d="M117.261 98.3809H112.436V103.206H117.261V98.3809Z" fill="white"/>
<path d="M121.946 98.3809H117.12V103.206H121.946V98.3809Z" fill="white"/>
<path d="M131.315 98.3809H126.49V103.206H131.315V98.3809Z" fill="white"/>
<path d="M136 98.3809H131.175V103.206H136V98.3809Z" fill="white"/>
<path d="M46.9887 103.066H42.1633V107.892H46.9887V103.066Z" fill="white"/>
<path d="M61.0429 103.066H56.2175V107.892H61.0429V103.066Z" fill="white"/>
<path d="M65.7277 103.066H60.9023V107.892H65.7277V103.066Z" fill="white"/>
<path d="M70.4128 103.066H65.5874V107.892H70.4128V103.066Z" fill="white"/>
<path d="M75.0976 103.066H70.2722V107.892H75.0976V103.066Z" fill="white"/>
<path d="M89.152 103.066H84.3267V107.892H89.152V103.066Z" fill="white"/>
<path d="M93.8368 103.066H89.0115V107.892H93.8368V103.066Z" fill="white"/>
<path d="M98.5216 103.066H93.6963V107.892H98.5216V103.066Z" fill="white"/>
<path d="M107.891 103.066H103.066V107.892H107.891V103.066Z" fill="white"/>
<path d="M117.261 103.066H112.436V107.892H117.261V103.066Z" fill="white"/>
<path d="M46.9887 107.75H42.1633V112.575H46.9887V107.75Z" fill="white"/>
<path d="M51.6735 107.75H46.8481V112.575H51.6735V107.75Z" fill="white"/>
<path d="M56.3583 107.75H51.533V112.575H56.3583V107.75Z" fill="white"/>
<path d="M65.7277 107.75H60.9023V112.575H65.7277V107.75Z" fill="white"/>
<path d="M70.4128 107.75H65.5874V112.575H70.4128V107.75Z" fill="white"/>
<path d="M79.7824 107.75H74.957V112.575H79.7824V107.75Z" fill="white"/>
<path d="M84.467 107.75H79.6416V112.575H84.467V107.75Z" fill="white"/>
<path d="M89.152 107.75H84.3267V112.575H89.152V107.75Z" fill="white"/>
<path d="M93.8368 107.75H89.0115V112.575H93.8368V107.75Z" fill="white"/>
<path d="M98.5216 107.75H93.6963V112.575H98.5216V107.75Z" fill="white"/>
<path d="M117.261 107.75H112.436V112.575H117.261V107.75Z" fill="white"/>
<path d="M121.946 107.75H117.12V112.575H121.946V107.75Z" fill="white"/>
<path d="M136 107.75H131.175V112.575H136V107.75Z" fill="white"/>
<path d="M42.3036 112.436H37.4783V117.261H42.3036V112.436Z" fill="white"/>
<path d="M51.6735 112.436H46.8481V117.261H51.6735V112.436Z" fill="white"/>
<path d="M65.7279 112.436H60.9026V117.261H65.7279V112.436Z" fill="white"/>
<path d="M70.4128 112.436H65.5874V117.261H70.4128V112.436Z" fill="white"/>
<path d="M84.4672 112.436H79.6418V117.261H84.4672V112.436Z" fill="white"/>
<path d="M89.1518 112.436H84.3264V117.261H89.1518V112.436Z" fill="white"/>
<path d="M98.5214 112.436H93.696V117.261H98.5214V112.436Z" fill="white"/>
<path d="M103.206 112.436H98.3809V117.261H103.206V112.436Z" fill="white"/>
<path d="M107.891 112.436H103.066V117.261H107.891V112.436Z" fill="white"/>
<path d="M112.576 112.436H107.751V117.261H112.576V112.436Z" fill="white"/>
<path d="M117.261 112.436H112.436V117.261H117.261V112.436Z" fill="white"/>
<path d="M121.946 112.436H117.12V117.261H121.946V112.436Z" fill="white"/>
<path d="M126.631 112.436H121.805V117.261H126.631V112.436Z" fill="white"/>
<path d="M131.315 112.436H126.49V117.261H131.315V112.436Z" fill="white"/>
<path d="M42.3036 117.119H37.4783V121.944H42.3036V117.119Z" fill="white"/>
<path d="M51.6735 117.119H46.8481V121.944H51.6735V117.119Z" fill="white"/>
<path d="M56.3583 117.119H51.533V121.944H56.3583V117.119Z" fill="white"/>
<path d="M61.0429 117.119H56.2175V121.944H61.0429V117.119Z" fill="white"/>
<path d="M89.1518 117.119H84.3264V121.944H89.1518V117.119Z" fill="white"/>
<path d="M93.8366 117.119H89.0112V121.944H93.8366V117.119Z" fill="white"/>
<path d="M98.5214 117.119H93.696V121.944H98.5214V117.119Z" fill="white"/>
<path d="M103.206 117.119H98.3809V121.944H103.206V117.119Z" fill="white"/>
<path d="M112.576 117.119H107.751V121.944H112.576V117.119Z" fill="white"/>
<path d="M42.3036 121.805H37.4783V126.63H42.3036V121.805Z" fill="white"/>
<path d="M46.9887 121.805H42.1633V126.63H46.9887V121.805Z" fill="white"/>
<path d="M51.6735 121.805H46.8481V126.63H51.6735V121.805Z" fill="white"/>
<path d="M65.7279 121.805H60.9026V126.63H65.7279V121.805Z" fill="white"/>
<path d="M79.7824 121.805H74.957V126.63H79.7824V121.805Z" fill="white"/>
<path d="M89.1518 121.805H84.3264V126.63H89.1518V121.805Z" fill="white"/>
<path d="M93.8366 121.805H89.0112V126.63H93.8366V121.805Z" fill="white"/>
<path d="M98.5214 121.805H93.696V126.63H98.5214V121.805Z" fill="white"/>
<path d="M103.206 121.805H98.3809V126.63H103.206V121.805Z" fill="white"/>
<path d="M107.891 121.805H103.066V126.63H107.891V121.805Z" fill="white"/>
<path d="M112.576 121.805H107.75V126.63H112.576V121.805Z" fill="white"/>
<path d="M117.261 121.805H112.435V126.63H117.261V121.805Z" fill="white"/>
<path d="M121.945 121.805H117.12V126.63H121.945V121.805Z" fill="white"/>
<path d="M126.631 121.805H121.805V126.63H126.631V121.805Z" fill="white"/>
<path d="M131.315 121.805H126.49V126.63H131.315V121.805Z" fill="white"/>
<path d="M51.6735 126.49H46.8481V131.316H51.6735V126.49Z" fill="white"/>
<path d="M56.3583 126.49H51.533V131.316H56.3583V126.49Z" fill="white"/>
<path d="M61.0431 126.49H56.2178V131.316H61.0431V126.49Z" fill="white"/>
<path d="M70.4128 126.49H65.5874V131.316H70.4128V126.49Z" fill="white"/>
<path d="M75.0976 126.49H70.2722V131.316H75.0976V126.49Z" fill="white"/>
<path d="M84.4672 126.49H79.6418V131.316H84.4672V126.49Z" fill="white"/>
<path d="M89.1518 126.49H84.3264V131.316H89.1518V126.49Z" fill="white"/>
<path d="M98.5214 126.49H93.696V131.316H98.5214V126.49Z" fill="white"/>
<path d="M107.891 126.49H103.066V131.316H107.891V126.49Z" fill="white"/>
<path d="M117.261 126.49H112.435V131.316H117.261V126.49Z" fill="white"/>
<path d="M131.315 126.49H126.49V131.316H131.315V126.49Z" fill="white"/>
<path d="M46.9887 131.176H42.1633V136.001H46.9887V131.176Z" fill="white"/>
<path d="M51.6735 131.176H46.8481V136.001H51.6735V131.176Z" fill="white"/>
<path d="M65.7279 131.176H60.9026V136.001H65.7279V131.176Z" fill="white"/>
<path d="M70.4128 131.176H65.5874V136.001H70.4128V131.176Z" fill="white"/>
<path d="M75.0976 131.176H70.2722V136.001H75.0976V131.176Z" fill="white"/>
<path d="M89.1518 131.176H84.3264V136.001H89.1518V131.176Z" fill="white"/>
<path d="M93.8366 131.176H89.0112V136.001H93.8366V131.176Z" fill="white"/>
<path d="M107.891 131.176H103.066V136.001H107.891V131.176Z" fill="white"/>
<path d="M117.261 131.176H112.435V136.001H117.261V131.176Z" fill="white"/>
<path d="M126.631 131.176H121.805V136.001H126.631V131.176Z" fill="white"/>
</mask>
<g mask="url(#mask0_283_1899)">
<path d="M145.229 -9.36914H-9.36963V145.23H145.229V-9.36914Z" fill="#FFF0E8"/>
</g>
</svg>
