<svg width="85" height="86" viewBox="0 0 85 86" fill="none" xmlns="http://www.w3.org/2000/svg">
<path d="M80.4572 42.8825C82.968 40.558 84.1852 37.0419 83.4414 33.5033C82.6976 29.9647 79.9824 27.3186 76.8571 26.2367C78.0697 23.1128 77.7196 19.448 75.5303 16.5465C73.341 13.645 69.825 12.4279 66.4201 12.9117C66.1977 9.5098 64.2729 6.34983 61.0228 4.74355C57.7727 3.13726 54.1079 3.48735 51.2094 5.41516C49.4123 2.51815 46.2974 0.52119 42.6371 0.479102C38.7153 0.434007 35.2894 2.74799 33.6831 5.99809C30.8327 3.74269 26.7862 3.17319 23.2355 4.96276C19.9479 6.62462 18.0816 9.74099 17.7811 13.1369C14.3867 12.7056 10.9728 13.9738 8.71743 16.8242C6.46202 19.6746 6.15697 23.4626 7.42966 26.4844C4.14949 27.4926 1.63414 30.2093 0.809195 33.7298C-0.0157448 37.2504 1.25093 40.795 3.83989 43.0475C1.32904 45.372 0.24265 48.8895 0.986419 52.4281C1.86091 55.9683 4.44537 58.6128 7.70299 59.5655C6.49038 62.6894 6.96969 66.4864 9.16046 69.2572C11.3512 72.028 14.998 73.2466 18.2722 72.7613C18.4946 76.1632 20.5501 79.3247 23.8017 80.8002C27.0518 82.4065 30.8489 81.9272 33.6166 79.9979C35.283 82.8934 38.5286 84.8919 42.0582 84.9324C45.7185 84.9745 48.88 82.919 50.4818 80.0611C53.3367 81.9243 56.9925 82.3586 60.2787 80.8274C63.5649 79.2963 65.5633 76.0507 65.7331 72.6533C69.126 73.2153 72.5399 71.9472 74.926 69.0982C77.1814 66.2478 77.6157 62.592 76.3445 59.4396C79.6247 58.4313 82.2693 55.8469 83.0942 52.3263C83.9192 48.8057 82.9139 45.2641 80.4572 42.8825ZM41.7773 75.2542C23.8678 75.0483 9.52563 60.2402 9.73157 42.3307C9.9375 24.4213 24.6149 10.0776 42.5243 10.2835C60.4338 10.4895 74.7775 25.1669 74.5715 43.0763C74.3656 60.9857 59.6867 75.4602 41.7773 75.2542Z" fill="#C88C6B"/>
<path d="M79.7779 42.1487L79.0033 42.8658L79.7612 43.6005C81.9525 45.7249 82.8695 48.9019 82.1206 52.0982C81.383 55.2459 79.0181 57.5716 76.0507 58.4837L75.0099 58.8036L75.4171 59.8135C76.5551 62.6357 76.1709 65.9055 74.1505 68.4668C71.9814 71.0496 68.9201 72.1676 65.8966 71.6668L64.7904 71.4836L64.7344 72.6034C64.582 75.6527 62.7868 78.5556 59.8564 79.921C56.9077 81.2949 53.6171 80.9132 51.0283 79.2236L50.1325 78.639L49.6094 79.5722C48.1753 82.1309 45.3417 83.9701 42.0697 83.9325C38.902 83.8961 35.9775 82.0953 34.4834 79.4991L33.9394 78.5539L33.0448 79.1775C30.5516 80.9154 27.142 81.3356 24.2448 79.9037L24.23 79.8964L24.2149 79.8896C21.3129 78.5727 19.4694 75.7452 19.2701 72.6961L19.1993 71.613L18.1256 71.7721C15.17 72.2102 11.8924 71.1001 9.94489 68.637C7.98036 66.1524 7.54709 62.7306 8.63522 59.9274L9.02953 58.9115L7.98367 58.6057C5.07898 57.7562 2.75604 55.3971 1.96145 52.2053C1.2933 48.9985 2.28359 45.851 4.51924 43.7813L5.33685 43.0243L4.49625 42.293C2.17504 40.2735 1.04604 37.1023 1.78282 33.958C2.52991 30.7697 4.79661 28.3399 7.72346 27.4402L8.78049 27.1153L8.35125 26.0962C7.20946 23.3853 7.48909 19.9882 9.50163 17.4447C11.5307 14.8803 14.5937 13.7399 17.6551 14.1289L18.6856 14.2598L18.7772 13.225C19.05 10.1422 20.7343 7.34783 23.6861 5.85551C26.8764 4.2478 30.5063 4.75963 33.0626 6.7823L34.0319 7.54928L34.5796 6.44116C36.0253 3.51586 39.1102 1.43861 42.6256 1.47904C45.9114 1.51682 48.7248 3.30698 50.3596 5.9423L50.9037 6.81945L51.7632 6.24781C54.3797 4.50752 57.6655 4.19974 60.5797 5.64003C63.4897 7.07824 65.2216 9.9084 65.4222 12.9769L65.4926 14.0535L66.5608 13.9017C69.6442 13.4636 72.7845 14.5677 74.732 17.1488C76.7007 19.758 77.0194 23.0549 75.9248 25.8749L75.5493 26.8423L76.5299 27.1817C79.3697 28.1647 81.8008 30.5595 82.4628 33.709C83.1322 36.8938 82.0382 40.0561 79.7779 42.1487ZM8.73163 42.3192C8.51941 60.7757 23.2989 76.0418 41.7658 76.2542C60.2327 76.4665 75.3592 61.5442 75.5715 43.0878C75.7838 24.6261 60.9975 9.49588 42.5358 9.2836C24.0742 9.07132 8.94392 23.8576 8.73163 42.3192Z" stroke="#FFF0E8" stroke-opacity="0.7" stroke-width="2"/>
<path d="M41.8166 71.8557C57.9168 72.0408 71.1186 59.1392 71.3037 43.039C71.4888 26.9389 58.5872 13.7371 42.487 13.552C26.3869 13.3669 13.1851 26.2685 13 42.3686C12.8149 58.4688 25.7165 71.6706 41.8166 71.8557Z" fill="#C88C6B"/>
<path d="M70.3037 43.0276C70.125 58.5754 57.376 71.0345 41.8281 70.8558C26.2803 70.677 13.8212 57.928 13.9999 42.3801C14.1787 26.8323 26.9277 14.3732 42.4755 14.5519C58.0234 14.7307 70.4825 27.4797 70.3037 43.0276Z" stroke="#FFF0E8" stroke-opacity="0.7" stroke-width="2"/>
<path d="M34.5058 52.4863V49.1625L42.2721 41.9714C42.9326 41.3322 43.4866 40.7569 43.934 40.2456C44.3886 39.7342 44.733 39.2335 44.9674 38.7434C45.2018 38.2463 45.319 37.7101 45.319 37.1348C45.319 36.4956 45.1734 35.9451 44.8822 35.4835C44.591 35.0147 44.1933 34.6561 43.689 34.4075C43.1847 34.1518 42.613 34.024 41.9738 34.024C41.3062 34.024 40.7238 34.1589 40.2267 34.4288C39.7295 34.6987 39.346 35.0858 39.0761 35.59C38.8062 36.0943 38.6713 36.6944 38.6713 37.3904H34.2927C34.2927 35.9629 34.6159 34.7235 35.2622 33.6724C35.9085 32.6213 36.814 31.8081 37.9788 31.2328C39.1436 30.6575 40.4859 30.3699 42.0058 30.3699C43.5683 30.3699 44.9284 30.6468 46.086 31.2008C47.2508 31.7477 48.1563 32.5076 48.8026 33.4806C49.449 34.4537 49.7721 35.5687 49.7721 36.8258C49.7721 37.6497 49.6088 38.4629 49.2821 39.2654C48.9624 40.068 48.3907 40.9593 47.5669 41.9395C46.743 42.9125 45.5818 44.0808 44.0832 45.4444L40.8978 48.5659V48.715H50.0598V52.4863H34.5058Z" fill="#FFF0E8"/>
</svg>
