<svg width="82" height="84" viewBox="0 0 82 84" fill="none" xmlns="http://www.w3.org/2000/svg">
<path d="M78.4122 41.7925C80.8592 39.5271 82.0454 36.1004 81.3205 32.6517C80.5957 29.2031 77.9495 26.6242 74.9036 25.5699C76.0853 22.5254 75.7442 18.9537 73.6105 16.1259C71.4769 13.2981 68.0502 12.112 64.7319 12.5835C64.5152 9.26808 62.6393 6.18844 59.4718 4.62298C56.3043 3.05752 52.7326 3.39871 49.9078 5.27752C48.1563 2.45415 45.1206 0.507943 41.5534 0.466924C37.7313 0.422975 34.3924 2.67814 32.827 5.84564C30.049 3.64756 26.1054 3.09253 22.645 4.83662C19.4409 6.45623 17.6221 9.4934 17.3292 12.8029C14.0211 12.3826 10.694 13.6186 8.49587 16.3965C6.29779 19.1745 6.0005 22.8663 7.24084 25.8112C4.04404 26.7938 1.59262 29.4414 0.788648 32.8725C-0.0153236 36.3036 1.21915 39.7581 3.74231 41.9533C1.29528 44.2187 0.236503 47.6469 0.961368 51.0955C1.81364 54.5457 4.3324 57.123 7.50722 58.0515C6.32543 61.096 6.79256 64.7965 8.92765 67.4969C11.0627 70.1972 14.6168 71.3849 17.8078 70.9119C18.0245 74.2273 20.0278 77.3084 23.1967 78.7465C26.3642 80.3119 30.0648 79.8448 32.7622 77.9645C34.3862 80.7864 37.5493 82.7341 40.9892 82.7737C44.5565 82.8147 47.6376 80.8114 49.1987 78.0261C51.981 79.842 55.5439 80.2652 58.7466 78.773C61.9492 77.2808 63.8969 74.1177 64.0624 70.8067C67.369 71.3544 70.6961 70.1184 73.0216 67.3419C75.2197 64.564 75.6429 61.0011 74.4041 57.9288C77.6009 56.9462 80.1782 54.4274 80.9822 50.9963C81.7862 47.5652 80.8065 44.1136 78.4122 41.7925ZM40.7154 73.3414C23.2612 73.1407 9.28354 58.709 9.48423 41.2548C9.68493 23.8006 23.9893 9.82145 41.4435 10.0221C58.8977 10.2228 72.8768 24.5272 72.6761 41.9814C72.4754 59.4356 58.1696 73.5421 40.7154 73.3414Z" fill="#A25326"/>
<path d="M77.7328 41.0587L76.9583 41.7758L77.7162 42.5105C79.8451 44.5744 80.7365 47.6613 80.0086 50.7682C79.292 53.8264 76.9942 56.0864 74.1103 56.9729L73.0694 57.2928L73.4766 58.3027C74.5823 61.0448 74.2091 64.2216 72.246 66.7105C70.1377 69.2208 67.1631 70.3066 64.2258 69.8201L63.1196 69.6369L63.0636 70.7568C62.9155 73.7197 61.1711 76.5401 58.3242 77.8666C55.4591 79.2015 52.2615 78.8309 49.7452 77.1887L48.8494 76.604L48.3263 77.5372C46.9329 80.0233 44.1796 81.8103 41.0007 81.7737C37.9227 81.7383 35.0807 79.9883 33.6289 77.4657L33.085 76.5206L32.1904 77.1442C29.7675 78.833 26.4544 79.2411 23.6398 77.85L23.625 77.8427L23.61 77.8359C20.7906 76.5564 18.9993 73.8093 18.8056 70.8467L18.7348 69.7636L17.6611 69.9227C14.7888 70.3485 11.6039 69.2693 9.71208 66.8767C7.80323 64.4624 7.38214 61.1372 8.43945 58.4133L8.83376 57.3975L7.7879 57.0917C4.966 56.2664 2.70876 53.9745 1.9364 50.8727C1.28715 47.7559 2.24982 44.6978 4.42166 42.6871L5.23927 41.9302L4.39868 41.1988C2.14327 39.2366 1.04647 36.1555 1.76228 33.1006C2.48839 30.0018 4.69116 27.6411 7.53464 26.7671L8.59166 26.4422L8.16243 25.423C7.05299 22.7889 7.32486 19.4881 9.28007 17.0171C11.2518 14.5251 14.2281 13.417 17.2031 13.795L18.2337 13.9259L18.3253 12.8911C18.5905 9.89455 20.2274 7.17927 23.0958 5.72923C26.1958 4.16717 29.7227 4.66456 32.2065 6.62984L33.1758 7.39683L33.7235 6.2887C35.1284 3.44601 38.1261 1.42758 41.5419 1.46686C44.7347 1.50357 47.4689 3.24298 49.058 5.80466L49.6021 6.68181L50.4616 6.11017C53.0045 4.41888 56.1971 4.12 59.0287 5.51946C61.8561 6.91684 63.5391 9.66669 63.734 12.6487L63.8044 13.7253L64.8726 13.5735C67.8694 13.1477 70.9204 14.2208 72.8123 16.7282C74.7253 19.2637 75.0351 22.4675 73.9713 25.208L73.5958 26.1754L74.5764 26.5148C77.3368 27.4704 79.6989 29.7979 80.3419 32.8574C80.9924 35.9523 79.9294 39.0252 77.7328 41.0587ZM8.4843 41.2433C8.27731 59.2445 22.6922 74.1343 40.7039 74.3414C58.7156 74.5485 73.4691 59.9941 73.6761 41.9929C73.8831 23.9864 59.4615 9.22926 41.455 9.02222C23.4485 8.81517 8.69135 23.2368 8.4843 41.2433Z" stroke="#FFF0E8" stroke-opacity="0.8" stroke-width="2"/>
<path d="M40.7538 70.0293C56.4447 70.2097 69.311 57.636 69.4914 41.9451C69.6718 26.2542 57.0981 13.388 41.4072 13.2075C25.7163 13.0271 12.8501 25.6008 12.6697 41.2917C12.4892 56.9826 25.0629 69.8489 40.7538 70.0293Z" fill="#A25326"/>
<path d="M68.4915 41.9336C68.3174 57.0723 55.904 69.2034 40.7653 69.0294C25.6267 68.8553 13.4955 56.4419 13.6696 41.3032C13.8437 26.1646 26.2571 14.0334 41.3957 14.2075C56.5344 14.3816 68.6655 26.795 68.4915 41.9336Z" stroke="#FFF0E8" stroke-opacity="0.8" stroke-width="2"/>
<path d="M40.7638 52.2124C39.1729 52.2124 37.7559 51.9389 36.5131 51.392C35.2773 50.8381 34.3007 50.0781 33.5834 49.1122C32.8731 48.1392 32.5074 47.017 32.4861 45.7457H37.1309C37.1594 46.2784 37.3334 46.7472 37.653 47.152C37.9797 47.5497 38.4129 47.8587 38.9527 48.0788C39.4925 48.299 40.0997 48.4091 40.7744 48.4091C41.4775 48.4091 42.099 48.2848 42.6388 48.0362C43.1785 47.7876 43.6011 47.4432 43.9065 47.0028C44.2119 46.5625 44.3646 46.0547 44.3646 45.4794C44.3646 44.897 44.2013 44.3821 43.8746 43.9347C43.555 43.4801 43.0933 43.125 42.4896 42.8693C41.893 42.6136 41.1828 42.4858 40.3589 42.4858H38.3241V39.098H40.3589C41.055 39.098 41.6693 38.9773 42.202 38.7358C42.7417 38.4943 43.1608 38.1605 43.4591 37.7344C43.7574 37.3011 43.9065 36.7969 43.9065 36.2216C43.9065 35.6747 43.7751 35.1953 43.5123 34.7834C43.2567 34.3643 42.8944 34.0376 42.4257 33.8033C41.964 33.5689 41.4243 33.4517 40.8064 33.4517C40.1814 33.4517 39.6096 33.5653 39.0912 33.7926C38.5727 34.0128 38.1572 34.3288 37.8447 34.7408C37.5322 35.1527 37.3653 35.6357 37.344 36.1896H32.9229C32.9442 34.9325 33.3028 33.8246 33.9988 32.8658C34.6949 31.907 35.6324 31.1577 36.8113 30.6179C37.9974 30.071 39.3362 29.7976 40.8277 29.7976C42.3334 29.7976 43.6508 30.071 44.7801 30.6179C45.9094 31.1648 46.7865 31.9034 47.4115 32.8338C48.0436 33.7571 48.3561 34.794 48.349 35.9446C48.3561 37.1662 47.9761 38.1854 47.2091 39.0021C46.4491 39.8189 45.4584 40.3374 44.2368 40.5575V40.728C45.8419 40.934 47.0635 41.4915 47.9015 42.4006C48.7467 43.3026 49.1658 44.4318 49.1586 45.7884C49.1658 47.0313 48.8071 48.1357 48.0827 49.1016C47.3653 50.0675 46.3746 50.8274 45.1104 51.3814C43.8461 51.9354 42.3973 52.2124 40.7638 52.2124Z" fill="#FFF0E8"/>
</svg>
