<svg width="113" height="114" viewBox="0 0 113 114" fill="none" xmlns="http://www.w3.org/2000/svg">
<path d="M107.313 57.1961C110.662 54.0957 112.285 49.406 111.293 44.6863C110.301 39.9665 106.68 36.4372 102.511 34.9942C104.128 30.8276 103.661 25.9395 100.741 22.0695C97.8214 18.1995 93.1318 16.5761 88.5904 17.2214C88.2938 12.684 85.7265 8.46933 81.3915 6.32688C77.0566 4.18443 72.1685 4.65138 68.3025 7.22267C65.9056 3.35868 61.751 0.695157 56.8689 0.63902C51.6381 0.578873 47.0686 3.66523 44.9262 8.00018C41.1243 4.99195 35.7272 4.23235 30.9914 6.61927C26.6063 8.83583 24.1172 12.9924 23.7163 17.5218C19.189 16.9466 14.6355 18.638 11.6273 22.4399C8.61908 26.2417 8.21222 31.2942 9.90971 35.3245C5.53467 36.6692 2.17972 40.2927 1.07942 44.9884C-0.0208707 49.6841 1.6686 54.4119 5.12172 57.4161C1.77279 60.5165 0.323773 65.2082 1.3158 69.928C2.48219 74.6497 5.9293 78.177 10.2743 79.4477C8.65691 83.6143 9.29621 88.6787 12.2182 92.3744C15.1403 96.07 20.0043 97.6954 24.3713 97.0481C24.6679 101.585 27.4096 105.802 31.7465 107.77C36.0815 109.913 41.1459 109.273 44.8376 106.7C47.0601 110.562 51.3891 113.228 56.0968 113.282C60.9789 113.338 65.1956 110.596 67.3321 106.784C71.1399 109.27 76.016 109.849 80.3991 107.807C84.7821 105.764 87.4476 101.435 87.6741 96.9041C92.1995 97.6536 96.7529 95.9622 99.9355 92.1623C102.944 88.3605 103.523 83.4844 101.827 79.2797C106.202 77.9349 109.73 74.4878 110.83 69.7921C111.93 65.0964 110.59 60.3727 107.313 57.1961ZM55.7221 100.373C31.8347 100.098 12.7053 80.3475 12.98 56.4602C13.2546 32.5728 32.8312 13.4414 56.7185 13.716C80.6059 13.9907 99.7373 33.5672 99.4627 57.4546C99.188 81.342 79.6094 100.648 55.7221 100.373Z" fill="#FC912E"/>
<path d="M106.294 56.0954L105.132 57.171L106.269 58.2731C109.148 61.0638 110.356 65.2406 109.37 69.4499C108.4 73.5863 105.293 76.6454 101.387 77.8459L99.8254 78.3258L100.436 79.8407C101.932 83.5499 101.428 87.847 98.7721 91.2152C95.9152 94.6157 91.8906 96.082 87.9192 95.4242L86.26 95.1494L86.176 96.8292C85.9756 100.838 83.615 104.653 79.7656 106.447C75.8888 108.253 71.5606 107.753 68.1519 105.528L66.8081 104.651L66.0236 106.051C64.1386 109.414 60.4136 111.831 56.1141 111.782C51.9491 111.734 48.1018 109.365 46.1377 105.952L45.3217 104.534L43.9798 105.47C40.7 107.756 36.2168 108.306 32.4111 106.426L32.3889 106.415L32.3664 106.404C28.5538 104.674 26.1301 100.958 25.8681 96.9503L25.7619 95.3256L24.1514 95.5643C20.2623 96.1408 15.9519 94.6781 13.3949 91.4441C10.8122 88.1776 10.242 83.676 11.6726 79.9905L12.2641 78.4667L10.6953 78.008C6.8797 76.8921 3.82487 73.7929 2.77834 69.5937C1.89976 65.3718 3.20459 61.2351 6.14075 58.5168L7.36717 57.3814L6.10627 56.2845C3.05477 53.6296 1.57181 49.462 2.53987 45.3306C3.52337 41.1333 6.50534 37.9401 10.3504 36.7583L11.936 36.2709L11.2921 34.7423C9.79096 31.1781 10.1597 26.7121 12.8036 23.3706C15.4724 19.9978 19.4995 18.4981 23.5273 19.0098L25.0731 19.2062L25.2105 17.654C25.5698 13.5944 27.7859 9.92083 31.6669 7.95854C35.8622 5.84424 40.6347 6.5173 43.9954 9.17648L45.4494 10.327L46.2709 8.66478C48.1726 4.81704 52.2304 2.08578 56.8516 2.13892C61.172 2.1886 64.8744 4.54192 67.0278 8.01338L67.844 9.3291L69.1332 8.47165C72.5763 6.18164 76.8958 5.77816 80.7269 7.67161C84.5517 9.56193 86.8297 13.2819 87.0936 17.3193L87.1991 18.9342L88.8014 18.7065C92.8605 18.1297 96.9866 19.5835 99.5441 22.973C102.133 26.4045 102.553 30.7407 101.113 34.4514L100.549 35.9025L102.02 36.4117C105.761 37.7064 108.956 40.8588 109.825 44.9948C110.706 49.1838 109.267 53.3428 106.294 56.0954ZM11.4801 56.4429C11.196 81.1508 30.9813 101.589 55.7048 101.873C80.4284 102.157 100.678 82.1797 100.963 57.4718C101.247 32.7561 81.4515 12.5003 56.7358 12.2161C32.02 11.9319 11.7643 31.7272 11.4801 56.4429Z" stroke="#FFF0E8" stroke-opacity="0.7" stroke-width="3"/>
<path d="M55.7748 95.8387C77.2489 96.0857 94.8573 78.8776 95.1042 57.4035C95.3511 35.9294 78.1431 18.321 56.669 18.074C35.1948 17.8271 17.5865 35.0352 17.3395 56.5093C17.0926 77.9834 34.3007 95.5918 55.7748 95.8387Z" fill="#FC912E"/>
<path d="M93.6043 57.3862C93.3669 78.032 76.4378 94.5762 55.792 94.3388C35.1463 94.1014 18.602 77.1723 18.8394 56.5265C19.0768 35.8808 36.006 19.3365 56.6517 19.5739C77.2975 19.8113 93.8417 36.7405 93.6043 57.3862Z" stroke="#FFF0E8" stroke-opacity="0.7" stroke-width="3"/>
<path d="M58.7649 41.4545V72H52.3068V47.5845H52.1278L45.1328 51.9695V46.2422L52.6946 41.4545H58.7649Z" fill="#FFF0E8"/>
</svg>
