<svg width="44" height="36" viewBox="0 0 44 36" fill="none" xmlns="http://www.w3.org/2000/svg">
<path d="M4.75918 11.078L4.75918 11.078C4.75881 9.66038 5.32173 8.30087 6.32374 7.2985C6.32374 7.2985 6.32374 7.2985 6.32374 7.29849L6.42982 7.40454L4.75918 11.078ZM4.75918 11.078C4.75991 12.4956 5.32351 13.8547 6.32625 14.8564L6.43226 14.7502M4.75918 11.078L6.43226 14.7502M6.43226 14.7502L6.32626 14.8564C7.32898 15.858 8.68848 16.4205 10.1061 16.4194L6.43226 14.7502ZM13.8841 14.8512L13.8841 14.8513C12.8825 15.8543 11.5237 16.4187 10.1061 16.4194L13.8841 14.8512ZM13.8841 14.8512C14.8854 13.8481 15.4472 12.4882 15.4458 11.071L13.8841 14.8512ZM7.60931 13.5644L7.60925 13.5643C6.94782 12.9032 6.5763 12.0063 6.5763 11.0712C6.5763 10.136 6.9478 9.23908 7.60928 8.57759C8.27041 7.91646 9.16734 7.54461 10.1025 7.54461C11.038 7.54461 11.9349 7.91644 12.5961 8.57759C13.2575 9.23905 13.629 10.136 13.629 11.0712C13.629 12.0063 13.2575 12.9032 12.5961 13.5643L12.596 13.5644C11.9349 14.2258 11.038 14.5973 10.1025 14.5973C9.1673 14.5973 8.27042 14.2258 7.60931 13.5644Z" fill="#FFF0E8" stroke="#FFF0E8" stroke-width="0.3"/>
<path d="M39.2124 11.0755V11.0755C39.2113 12.493 38.6473 13.8522 37.6442 14.8535C36.656 15.84 35.3213 16.4002 33.9263 16.4151L33.9258 16.4157L33.8635 16.4155C32.4478 16.4126 31.0909 15.8486 30.0903 14.847L30.1964 14.741L30.0903 14.847C29.0898 13.8454 28.5269 12.4881 28.5258 11.0723L28.5258 11.0722C28.5258 9.65464 29.0887 8.29549 30.0915 7.29311C30.0915 7.29311 30.0915 7.2931 30.0915 7.2931L30.1975 7.39919L39.2124 11.0755ZM39.2124 11.0755C39.2131 9.65826 38.651 8.29837 37.6489 7.2956M39.2124 11.0755L37.6489 7.2956M37.6489 7.2956C36.6473 6.29286 35.2882 5.72929 33.8706 5.72891L37.6489 7.2956ZM36.3599 8.58144L36.36 8.58146C37.0224 9.2426 37.3949 10.1395 37.3953 11.0753C37.3956 12.0112 37.0241 12.9088 36.3623 13.5707C35.7008 14.2321 34.8032 14.604 33.8674 14.6033H33.8673C32.9314 14.6029 32.0342 14.2308 31.3731 13.5683C30.712 12.9059 30.3415 12.0082 30.3425 11.0724C30.3439 10.139 30.7154 9.24371 31.3755 8.58362L31.3755 8.58361C32.0356 7.92353 32.9305 7.55238 33.864 7.551L33.8891 7.55096C34.8159 7.55618 35.7038 7.92626 36.3599 8.58144Z" fill="#FFF0E8" stroke="#FFF0E8" stroke-width="0.3"/>
<path d="M14.0801 32.1841C15.9591 32.6893 18.6469 33.0348 21.8637 33.0348L14.0801 32.1841ZM14.0801 32.1841C13.1395 31.9312 12.4091 31.6403 11.9175 31.3376M14.0801 32.1841L11.9175 31.3376M11.9175 31.3376C11.4146 31.028 11.2078 30.7356 11.2078 30.4945M11.9175 31.3376L11.2078 30.4945M11.2078 30.4945C11.2078 25.0371 13.1919 22.0666 15.4596 20.4467M11.2078 30.4945L15.4596 20.4467M15.4596 20.4467C17.7354 18.8209 20.3207 18.5384 21.547 18.5082M15.4596 20.4467L21.547 18.5082M21.547 18.5082H22.1904C23.7515 18.5511 26.3319 18.909 28.5196 20.5675C30.7002 22.2207 32.5154 25.1852 32.5154 30.4945C32.5154 30.7359 32.3091 31.0282 31.8076 31.3376C31.3172 31.6403 30.5884 31.9312 29.649 32.1841C27.7724 32.6893 25.0858 33.0348 21.8639 33.0348L21.547 18.5082ZM4.13136 30.8061L4.13893 30.7783L4.13552 30.8073C5.9255 31.2344 7.75897 31.4513 9.59889 31.4538C9.84372 31.9915 10.301 32.4627 10.9543 32.8715C11.6452 33.3038 12.5633 33.6714 13.7044 33.977L13.7118 33.9493L13.7084 33.9781C16.3889 34.6094 19.1369 34.9077 21.8907 34.8671C22.8478 34.8671 25.5732 34.8226 28.2215 34.3745C29.5457 34.1504 30.8584 33.8241 31.9232 33.3479C32.9443 32.8913 33.7634 32.2852 34.1255 31.4739C35.0952 31.4694 37.26 31.397 39.2156 30.9727C40.2273 30.7532 41.1956 30.437 41.9145 29.9788C42.6351 29.5194 43.1264 28.902 43.1264 28.0829V28.0828C43.1237 24.4186 41.9706 21.8848 40.2626 20.2523C38.557 18.6221 36.314 17.9055 34.1563 17.8438L34.0401 17.8404L34.039 17.8443L33.5804 17.8443L33.5771 17.8444C32.0974 17.8774 30.6452 18.2497 29.3326 18.9323C27.2334 17.5261 24.7759 16.7484 22.2488 16.6916C21.9908 16.6788 21.7326 16.6788 21.4743 16.6916C18.9919 16.7453 16.5753 17.4964 14.5006 18.8583C13.2204 18.2331 11.8183 17.8953 10.3931 17.8697V17.8697H10.3904H9.81902V17.8697L9.81564 17.8697C7.655 17.9184 5.41168 18.6298 3.7073 20.2556C2.00052 21.8837 0.85 24.4137 0.85 28.0673C0.85 28.7024 1.1442 29.2481 1.70169 29.7024C2.25462 30.153 3.07017 30.5178 4.13136 30.8061ZM10.3532 19.6611C11.2459 19.6823 12.1289 19.846 12.9688 20.1458C11.0478 22.0699 9.58126 25.0467 9.41122 29.6337C7.15332 29.5845 5.45669 29.3096 4.32288 28.9764C3.74286 28.8059 3.31596 28.6219 3.03754 28.4488C2.8981 28.3621 2.80139 28.2816 2.74119 28.2114C2.67988 28.14 2.66696 28.0921 2.66696 28.0673C2.66696 24.338 3.936 22.2622 5.45597 21.106C6.98296 19.9444 8.78825 19.6915 9.89179 19.6611H10.3532ZM34.3123 29.6348C34.1478 25.109 32.7138 22.1435 30.8396 20.2337C31.74 19.8894 32.6934 19.7025 33.6581 19.6814H34.1197C35.2106 19.7116 37.0109 19.9619 38.536 21.1223C40.0537 22.277 41.3237 24.3519 41.3245 28.0844C41.323 28.1078 41.3076 28.1552 41.2428 28.2262C41.1781 28.2971 41.0755 28.3785 40.9293 28.4659C40.6374 28.6404 40.1928 28.8262 39.5909 28.9974C38.4132 29.3322 36.6541 29.6049 34.3123 29.6348Z" fill="#FFF0E8" stroke="#FFF0E8" stroke-width="0.3"/>
<path d="M16.8709 2.91694L16.8709 2.91694C18.1936 1.59359 19.988 0.85009 21.8591 0.85009C23.7278 0.85009 25.5201 1.59179 26.8424 2.91224C28.1647 4.23241 28.9089 6.02358 28.9114 7.89224C28.9114 7.89225 28.9114 7.89226 28.9114 7.89227L28.7614 7.89248C28.7643 9.72393 28.0391 11.4813 26.746 12.7775C25.4525 14.0741 23.6969 14.8036 21.8659 14.8054C20.0345 14.8071 18.2776 14.0812 16.982 12.787C15.686 11.4932 14.9576 9.73721 14.9565 7.9062C14.9555 6.07484 15.6825 4.31824 16.977 3.02298C18.2715 1.72778 20.0278 1.00009 21.8591 1.00009C23.6881 1.00009 25.4422 1.72601 26.7364 3.01838L16.8709 2.91694ZM16.8709 2.91694C15.5482 4.24034 14.8054 6.03511 14.8065 7.90629M16.8709 2.91694L14.8065 7.90629M14.8065 7.90629C14.8076 9.77707 15.5518 11.5712 16.876 12.8931L14.8065 7.90629ZM25.5666 11.6061C24.5844 12.5919 23.2506 13.1468 21.8591 13.1482V13.133C20.4707 13.133 19.1392 12.5816 18.1574 11.5998L18.1574 11.5998C17.1756 10.6184 16.6239 9.28724 16.6236 7.8992C16.6232 6.51078 17.1739 5.17927 18.1553 4.19715L18.1553 4.19714C19.1364 3.215 20.4676 2.66267 21.8556 2.66197H21.8556C23.244 2.66094 24.5755 3.21163 25.558 4.19239C26.5404 5.17349 27.0932 6.50431 27.0942 7.89231L27.0942 7.89264C27.0984 9.28422 26.5487 10.6202 25.5666 11.6061Z" fill="#FFF0E8" stroke="#FFF0E8" stroke-width="0.3"/>
</svg>
