<svg width="34" height="34" viewBox="0 0 34 34" fill="none" xmlns="http://www.w3.org/2000/svg">
<path d="M0.817128 16.1627C0.635644 16.3632 0.535156 16.6236 0.535156 16.894C0.535156 17.164 0.635644 17.4247 0.817128 17.6249C1.10897 17.9469 8.06601 25.5108 16.8642 25.5108C25.663 25.5108 32.619 17.947 32.9112 17.6249C33.0927 17.4247 33.1932 17.164 33.1932 16.894C33.1932 16.6236 33.0927 16.3632 32.9112 16.1627C32.6194 15.8407 25.663 8.27753 16.8642 8.27753C8.06601 8.27753 1.10936 15.8407 0.817128 16.1627ZM16.8642 22.7746C15.3045 22.7746 13.8089 22.155 12.706 21.0522C11.6032 19.9494 10.9836 18.4535 10.9836 16.8938C10.9836 15.334 11.6032 13.8384 12.706 12.7356C13.8088 11.6327 15.3047 11.0131 16.8642 11.0131C18.4239 11.0131 19.9198 11.6325 21.0226 12.7353C22.1255 13.8381 22.7451 15.334 22.7451 16.8938C22.7435 18.4529 22.1234 19.9478 21.0209 21.0502C19.9183 22.1528 18.4234 22.7729 16.8643 22.7746H16.8642ZM10.5644 11.8783C9.42643 13.3024 8.80625 15.0709 8.80625 16.8938C8.80625 18.7166 9.42638 20.4855 10.5644 21.9095C7.83481 20.6611 5.33279 18.966 3.1613 16.8938C5.33279 14.8215 7.83481 13.1266 10.5644 11.8783ZM23.1642 21.9089C24.3022 20.4849 24.9221 18.7164 24.9221 16.8935C24.9221 15.0706 24.3022 13.302 23.164 11.8781C25.8936 13.1264 28.3953 14.8213 30.5671 16.8935C28.3956 18.9655 25.8938 20.6606 23.1646 21.9089H23.1642Z" fill="#FFF0E8"/>
<path d="M20.3186 16.3338C20.6282 18.2415 19.3324 20.0392 17.4247 20.3488C15.5171 20.6583 13.7194 19.3626 13.4098 17.4549C13.1003 15.5472 14.3957 13.7495 16.3037 13.44C18.2114 13.1304 20.0091 14.4259 20.3186 16.3338Z" fill="#FFF0E8"/>
<path d="M17.7733 4.43591V1.47143C17.7733 0.970517 17.3671 0.56427 16.8661 0.56427C16.3652 0.56427 15.959 0.970517 15.959 1.47143V4.43591C15.959 4.93708 16.3652 5.34307 16.8661 5.34307C17.3671 5.34307 17.7733 4.93708 17.7733 4.43591Z" fill="#FFF0E8"/>
<path d="M26.3006 7.5857C26.7671 7.7682 27.2933 7.53812 27.4761 7.07162L28.5635 4.29447H28.5632C28.7444 3.82824 28.5141 3.30353 28.0484 3.12106C27.5826 2.93882 27.0574 3.16763 26.8739 3.63285L25.7866 6.41C25.6987 6.63426 25.7038 6.88384 25.8002 7.10431C25.8967 7.32477 26.0766 7.49787 26.3006 7.5857Z" fill="#FFF0E8"/>
<path d="M7.42771 7.58574C7.65171 7.4979 7.83168 7.32478 7.92812 7.10431C8.02456 6.88385 8.02937 6.63428 7.94179 6.41027L6.85443 3.63286C6.67092 3.16763 6.14548 2.93881 5.67997 3.12106C5.21424 3.30356 4.98392 3.82826 5.16489 4.29448L6.25225 7.07163C6.435 7.53812 6.96098 7.76823 7.42771 7.58574Z" fill="#FFF0E8"/>
<path d="M15.959 29.3505V32.3149C15.959 32.8159 16.3652 33.2221 16.8661 33.2221C17.3671 33.2221 17.7733 32.8159 17.7733 32.3149V29.3505C17.7733 28.8493 17.3671 28.4433 16.8661 28.4433C16.3652 28.4433 15.959 28.8493 15.959 29.3505Z" fill="#FFF0E8"/>
<path d="M26.3006 26.2005C26.0766 26.2884 25.8967 26.4615 25.8002 26.682C25.7038 26.9024 25.6987 27.152 25.7866 27.376L26.8739 30.1532V30.1534C27.0574 30.6186 27.5827 30.8475 28.0484 30.6652C28.5141 30.4827 28.7444 29.958 28.5632 29.4918L27.4761 26.7146C27.2934 26.2482 26.7672 26.018 26.3006 26.2005Z" fill="#FFF0E8"/>
<path d="M6.25238 26.7149L5.16501 29.4921C4.98404 29.9583 5.21437 30.483 5.6801 30.6655C6.14558 30.8477 6.67105 30.6189 6.85455 30.1537L7.94192 27.3766V27.3763C8.02975 27.1523 8.02494 26.9025 7.92875 26.682C7.83232 26.4613 7.6521 26.2881 7.42809 26.2003C7.20383 26.1127 6.95401 26.1175 6.73353 26.214C6.51307 26.3107 6.33996 26.4909 6.25238 26.7149Z" fill="#FFF0E8"/>
</svg>
