<svg width="20" height="28" viewBox="0 0 20 28" fill="none" xmlns="http://www.w3.org/2000/svg">
<path d="M9.60531 0C8.67379 0 7.8298 0.492706 7.36403 1.27536C5.64678 4.11576 0 13.7386 0 17.9703C0 23.2454 4.30776 27.5351 9.60526 27.5351C14.9028 27.5351 19.2105 23.2455 19.2105 17.9703C19.2105 13.7385 13.5929 4.11582 11.8465 1.24637C11.3807 0.492836 10.5367 0.000155286 9.60521 0.000155286L9.60531 0ZM7.71347 13.3617C7.68444 13.3906 5.0647 17.6224 6.9858 20.4919C7.39329 21.1006 7.21868 21.9121 6.63658 22.2888C6.4037 22.4338 6.17083 22.5207 5.90891 22.5207C5.50142 22.5207 5.06492 22.3177 4.83201 21.9411C1.95038 17.6804 5.35583 12.2024 5.50141 11.9705C5.87987 11.3617 6.69485 11.1879 7.30599 11.5648C7.91713 11.9414 8.09172 12.753 7.71347 13.3617Z" fill="#FFF0E8"/>
</svg>
