<svg width="36" height="30" viewBox="0 0 36 30" fill="none" xmlns="http://www.w3.org/2000/svg">
<path d="M31.2022 27.9583L31.2026 27.9581C31.6431 27.721 32.0672 27.2923 32.4718 26.7851C32.7746 26.4054 33.0515 26.0018 33.3104 25.6245C33.3968 25.4985 33.4812 25.3755 33.5639 25.2572C33.7118 25.045 34.0029 24.9955 34.213 25.1422L31.2022 27.9583ZM31.2022 27.9583C30.9766 28.0802 30.891 28.3621 31.0129 28.5891C31.0977 28.7481 31.2606 28.8351 31.4237 28.8351C31.4982 28.8351 31.5738 28.8176 31.6445 28.7796L31.6448 28.7794C32.2161 28.472 32.7223 27.9522 33.161 27.4094C33.5073 26.9807 33.8267 26.5177 34.1088 26.1087C34.1848 25.9986 34.2581 25.8924 34.3285 25.7918L34.329 25.7911M31.2022 27.9583L34.329 25.7911M34.329 25.7911C34.4748 25.5814 34.4258 25.2909 34.2137 25.1427L34.329 25.7911ZM26.8853 27.6122H26.7176C26.4249 27.6122 26.1305 27.5882 25.8368 27.5409L25.8364 27.5408C24.4061 27.3084 23.15 26.5319 22.303 25.3561L22.3029 25.3561C21.611 24.3952 21.334 23.221 21.5237 22.0523L21.5237 22.0522C21.7138 20.8833 22.3485 19.8569 23.3092 19.165C24.0975 18.5967 25.0632 18.3692 26.0215 18.5249L26.0215 18.5249C26.9813 18.6809 27.8239 19.2021 28.3923 19.9906L28.3925 19.9908C28.8612 20.6419 29.0495 21.4379 28.9207 22.2305L28.9207 22.2305C28.7919 23.0225 28.3617 23.7184 27.7105 24.1876M26.8853 27.6122L27.5351 23.9442M26.8853 27.6122L26.8875 27.6086M26.8853 27.6122L26.8875 27.6086M27.7105 24.1876L27.5351 23.9442M27.7105 24.1876C27.7106 24.1875 27.7107 24.1875 27.7108 24.1874L27.5351 23.9442M27.7105 24.1876C27.5029 24.3373 27.2113 24.2916 27.0599 24.0823L27.0598 24.0821C26.9087 23.8729 26.9564 23.581 27.1661 23.4307M27.5351 23.9442C27.4614 23.9974 27.3572 23.9814 27.303 23.9065C27.2492 23.8319 27.2662 23.7279 27.3411 23.6744M27.1661 23.4307C27.166 23.4308 27.1658 23.4309 27.1656 23.431L27.3411 23.6744M27.1661 23.4307C27.1663 23.4306 27.1664 23.4305 27.1666 23.4303L27.3411 23.6744M27.1661 23.4307C27.6155 23.1066 27.9111 22.628 28.0002 22.0809M27.3411 23.6744C27.8553 23.3037 28.1944 22.7548 28.2963 22.1291M28.2963 22.1291L28.0002 22.0809M28.2963 22.1291C28.3981 21.5031 28.2496 20.8753 27.8786 20.3607L29.8796 26.5859C32.8626 24.4369 33.5412 20.2618 31.3923 17.2785L31.3922 17.2784C29.059 14.0411 25.6288 14.0977 21.8915 14.1595L21.8339 14.1604L21.8338 14.1604L21.8116 14.1608C21.28 14.1693 20.7406 14.178 20.1923 14.178H1.16648C0.908881 14.178 0.7 14.3869 0.7 14.6445C0.7 14.9021 0.908885 15.111 1.16647 15.111L20.1923 15.1116C20.7555 15.1116 21.3088 15.1029 21.849 15.0939C25.5821 15.0327 28.6028 15.0039 30.6351 17.8245C32.4834 20.3908 31.8999 23.9823 29.3346 25.8309C28.3595 26.5329 27.1712 26.8129 25.986 26.6209C24.8004 26.4279 23.762 25.7862 23.06 24.8114L23.06 24.8114C22.5127 24.0515 22.2944 23.1259 22.4443 22.2019C22.5943 21.278 23.0945 20.4691 23.854 19.9218C24.4418 19.4984 25.1576 19.3303 25.8721 19.4457C26.5866 19.5617 27.2119 19.9483 27.6351 20.536L27.6352 20.5361C27.9598 20.9863 28.0892 21.5337 28.0002 22.0809M28.2963 22.1291L28.0002 22.0809C28.0002 22.0809 28.0002 22.0809 28.0002 22.0809M26.8875 27.6086C27.9576 27.5752 28.9933 27.2251 29.8795 26.5859L26.8875 27.6086ZM34.1352 23.6277C34.0521 23.872 34.1833 24.1355 34.425 24.2186C34.4771 24.2369 34.529 24.2442 34.5767 24.2442C34.7717 24.2442 34.9511 24.1217 35.0179 23.93L35.0186 23.9277C35.586 22.2561 35.6165 20.4593 35.108 18.7337L35.108 18.7337C34.9335 18.1419 34.6958 17.565 34.4015 17.0185M34.1352 23.6277L34.4016 17.0188C34.4016 17.0187 34.4015 17.0186 34.4015 17.0185M34.1352 23.6277C34.6402 22.1414 34.668 20.541 34.2138 18.9976M34.1352 23.6277L34.2138 18.9976M34.4015 17.0185C34.2783 16.7885 33.9932 16.7086 33.7699 16.8285L33.7692 16.8288M34.4015 17.0185L33.7692 16.8288M33.7692 16.8288C33.5433 16.9508 33.4578 17.2333 33.5802 17.4603C33.8442 17.9504 34.0572 18.468 34.2138 18.9976M33.7692 16.8288L34.2138 18.9976M17.3126 12.0257L17.3125 12.0257L17.2857 12.0253C16.8737 12.0186 16.4559 12.0118 16.0317 12.0118H1.16704C0.909455 12.0118 0.700564 11.8029 0.700564 11.5453C0.700564 11.2877 0.909456 11.0788 1.16704 11.0788H16.0317C16.4729 11.0788 16.9056 11.0857 17.3279 11.0928C20.243 11.1404 22.5545 11.1577 24.1074 9.00187L24.1074 9.0018C24.7918 8.05237 25.0646 6.89506 24.8769 5.73989C24.6891 4.58477 24.0635 3.57346 23.1144 2.88942L23.1144 2.88939C22.3751 2.35638 21.4728 2.14366 20.5743 2.29045L20.5741 2.29049C19.6744 2.43678 18.887 2.92344 18.3546 3.66299L18.3545 3.66314C17.5052 4.84162 17.7733 6.4918 18.9515 7.34059C19.8525 7.98928 21.1141 7.78494 21.7635 6.88381L21.7636 6.88373C22.001 6.55441 22.0956 6.15368 22.0304 5.75296L22.0304 5.75293C21.9652 5.35185 21.7487 5.00185 21.4193 4.76426C21.211 4.61427 21.1618 4.32298 21.3134 4.11324C21.3136 4.11308 21.3137 4.11292 21.3138 4.11276L21.5567 4.28885L17.3126 12.0257ZM17.3126 12.0257L17.3377 12.0261C17.7361 12.0324 18.1296 12.0387 18.5155 12.0387C20.9911 12.0387 23.253 11.7844 24.8642 9.5473C25.6932 8.39662 26.0247 6.99035 25.7972 5.59056C25.57 4.19063 24.8099 2.96185 23.6589 2.13282C22.7187 1.45514 21.5674 1.18328 20.4242 1.37C19.2798 1.5558 18.275 2.17694 17.5973 3.11774L17.8407 3.29309L17.5973 3.11774C16.4478 4.71355 16.8102 6.94731 18.4064 8.0972C19.7254 9.0475 21.5702 8.7478 22.5204 7.42886L22.5205 7.42883C23.3101 6.33255 23.0614 4.79883 21.9653 4.00857L17.3126 12.0257ZM27.6087 6.91557C27.3596 6.84946 27.1048 7.00091 27.0393 7.24736L27.0391 7.24811C26.9098 7.74004 26.7114 8.21523 26.4482 8.65959L26.4478 8.66036C26.3181 8.88089 26.39 9.1665 26.6118 9.29802C26.6868 9.3428 26.7694 9.3634 26.8496 9.3634C27.0084 9.3634 27.163 9.28173 27.2505 9.13604L27.2515 9.13433C27.5578 8.61596 27.7899 8.06113 27.941 7.48495L27.9411 7.48449C28.0059 7.23561 27.8577 6.98138 27.6087 6.91557ZM27.6087 6.91557C27.6086 6.91555 27.6085 6.91553 27.6085 6.91551L27.5319 7.20558L27.6093 6.91573C27.6091 6.91568 27.6089 6.91562 27.6087 6.91557ZM24.8115 1.56753L24.8114 1.5675C24.5895 1.43608 24.5171 1.14978 24.648 0.928769M24.8115 1.56753L27.6811 5.73736M24.8115 1.56753C26.2155 2.39851 27.1141 3.90236 27.2067 5.5965M24.8115 1.56753L27.2067 5.5965M24.648 0.928769L24.9061 1.08162M24.648 0.928769C24.6478 0.929017 24.6477 0.929266 24.6475 0.929514L24.9061 1.08162M24.648 0.928769C24.7791 0.706788 25.0652 0.63435 25.2862 0.764737L25.2866 0.764961C26.9656 1.75857 28.0283 3.5481 28.1375 5.54583M24.9061 1.08162C24.9525 1.00272 25.0546 0.976416 25.1338 1.02314L24.9643 1.30936C24.8854 1.26264 24.8594 1.16053 24.9061 1.08162ZM28.1375 5.54583L27.838 5.56222L28.1375 5.54508C28.1375 5.54533 28.1375 5.54558 28.1375 5.54583ZM28.1375 5.54583C28.1518 5.80172 27.9573 6.01972 27.7031 6.03657M27.7031 6.03657C27.7066 6.0363 27.7103 6.03596 27.7142 6.03552L27.6811 5.73736M27.7031 6.03657C27.7012 6.0367 27.6992 6.03682 27.6972 6.03692L27.6811 5.73736M27.7031 6.03657C27.6949 6.0372 27.6883 6.03743 27.6839 6.03753L27.6721 6.03766C27.4261 6.03766 27.2199 5.84553 27.2067 5.5965M27.6811 5.73736L27.2067 5.59618C27.2067 5.59628 27.2067 5.59639 27.2067 5.5965" fill="#FFF0E8" stroke="#FFF0E8" stroke-width="0.6"/>
</svg>
