<svg width="26" height="30" viewBox="0 0 26 30" fill="none" xmlns="http://www.w3.org/2000/svg">
<path d="M9.42446 23.5103C9.62119 25.4778 11.0031 26.95 12.7793 27.1169L12.7524 27.1328H13.1179C15.0928 27.1328 16.6754 25.5596 16.815 23.4844L16.8151 23.4838C16.848 22.9412 16.8183 22.217 16.7794 21.3091L16.7793 21.3071C16.6168 17.4522 16.3156 10.3066 20.7327 3.95256L20.7327 3.95254L22.7443 1.05706L22.6058 0.917424L19.6941 2.90621C17.3314 4.51844 15.324 6.5193 13.7246 8.84656L13.7246 8.84659C12.4158 10.7526 11.3782 12.8867 10.6377 15.1832L10.6377 15.1832C9.35954 19.1511 9.32889 22.5315 9.42444 23.5101L9.42446 23.5103ZM12.0628 15.6412L11.9677 15.6105L12.0628 15.6412C13.1983 12.1146 15.0147 9.10797 17.4752 6.66652C14.9018 12.3587 15.1404 18.0452 15.2794 21.3605L15.2799 21.3728L15.2799 21.3729L15.2817 21.4169C15.3167 22.2694 15.3441 22.9364 15.3158 23.3869C15.231 24.6744 14.2797 25.633 13.1181 25.633C11.9651 25.633 11.0526 24.712 10.9168 23.3605L10.9168 23.3604C10.8337 22.5461 10.8678 19.3525 12.0628 15.6412Z" fill="#FFF0E8" stroke="#FFF0E8" stroke-width="0.2"/>
<path d="M8.63349 21.9952L8.63356 21.9945C8.75052 20.6982 8.85107 19.5838 8.13629 18.8008C7.65206 18.2711 6.90464 18.0241 5.78352 18.0241H1.1H1V18.1241V19.224V19.324H1.1H5.78352C6.49522 19.324 6.96315 19.4442 7.17763 19.6782C7.50585 20.0389 7.4311 20.8903 7.34011 21.8782L8.63349 21.9952ZM8.63349 21.9952C8.58475 22.5216 8.536 23.0676 8.536 23.6363M8.63349 21.9952L8.536 23.6363M8.536 23.6363C8.536 26.0216 10.788 28.2736 13.1668 28.2736M8.536 23.6363L13.1668 28.2736M13.1668 28.2736C15.1686 28.2736 17.2386 26.587 17.6903 24.5917L13.1668 28.2736ZM7.24054 21.869L7.24053 21.869C7.19183 22.3982 7.13612 23.0038 7.13612 23.6363C7.13612 26.7981 10.008 29.6734 13.1668 29.6734C14.4699 29.6734 15.8048 29.163 16.9222 28.2368C18.0128 27.334 18.7736 26.1488 19.0553 24.8996L19.0773 24.8021L18.9797 24.7801L17.7124 24.4941L17.6149 24.4721L17.5928 24.5696C17.3727 25.5418 16.7567 26.4438 15.9467 27.1033C15.1367 27.7628 14.1404 28.1735 13.1668 28.1735C12.0087 28.1735 10.8753 27.6247 10.0301 26.7787C9.18488 25.9327 8.636 24.7977 8.636 23.6363C8.636 23.0728 8.6843 22.5312 8.73307 22.0044L8.73309 22.0042L8.73372 21.9972C8.79176 21.3539 8.84681 20.7438 8.79644 20.1963C8.74561 19.6439 8.5869 19.1461 8.21015 18.7333L8.2101 18.7333C7.69851 18.1737 6.9172 17.9241 5.78352 17.9241H1H0.9V18.0241V19.324V19.424H1H5.78352C6.13453 19.424 6.42045 19.4537 6.64234 19.5102C6.86514 19.567 7.01479 19.6486 7.10379 19.7456C7.24146 19.897 7.30521 20.1667 7.31612 20.5459C7.32687 20.92 7.28619 21.3733 7.24054 21.869Z" fill="#FFF0E8" stroke="#FFF0E8" stroke-width="0.2"/>
<path d="M19.0971 23.737H19.1971V23.637C19.1971 23.1715 19.1676 22.7232 19.1351 22.3066L19.1273 22.2067L19.0274 22.2147L17.7308 22.3187L17.6315 22.3267L17.6391 22.4259C17.6683 22.8127 17.6973 23.2253 17.6973 23.637V23.737H17.7973H19.0971Z" fill="#FFF0E8" stroke="#FFF0E8" stroke-width="0.2"/>
<path d="M17.5481 21.3597L17.5554 21.4591L17.6548 21.4521L18.9515 21.3611L19.0515 21.3541L19.0442 21.2541C19.0167 20.8766 19.0075 20.555 19.0354 20.2959C19.0634 20.035 19.1274 19.8532 19.2322 19.7403L19.2327 19.7399C19.3215 19.643 19.471 19.5621 19.6935 19.506C19.9151 19.4503 20.2003 19.4213 20.5498 19.4213H25.3333H25.4333V19.3213V18.0215V17.9215H25.3333H20.5498C19.4231 17.9215 18.6451 18.1643 18.1334 18.7172C17.4633 19.4387 17.4835 20.4839 17.5481 21.3597ZM20.5498 19.3213C19.8414 19.3213 19.3734 19.4383 19.159 19.6723L18.2068 18.7852C18.691 18.262 19.4352 18.0215 20.5498 18.0215H25.2333H25.3333V18.1215V19.2213V19.3213H25.2333H20.5498Z" fill="#FFF0E8" stroke="#FFF0E8" stroke-width="0.2"/>
<path d="M4.41965 13.485C4.41965 14.4858 5.23133 15.2975 6.23221 15.2975C7.23309 15.2975 8.04477 14.4858 8.04477 13.485C8.04477 12.4841 7.23309 11.6724 6.23221 11.6724C5.23133 11.6724 4.41965 12.4841 4.41965 13.485ZM5.9195 13.4849C5.9195 13.3127 6.05996 13.1722 6.23221 13.1722C6.40446 13.1722 6.54492 13.3127 6.54492 13.4849C6.54492 13.6572 6.40446 13.7976 6.23221 13.7976C6.05996 13.7976 5.9195 13.6572 5.9195 13.4849Z" fill="#FFF0E8" stroke="#FFF0E8" stroke-width="0.2"/>
<path d="M10.5936 5.82575C10.5936 6.59917 11.2233 7.22889 11.9967 7.22889C12.7702 7.22889 13.3999 6.59917 13.3999 5.82575C13.3999 5.05233 12.7702 4.42261 11.9967 4.42261C11.2233 4.42261 10.5936 5.05233 10.5936 5.82575Z" fill="#FFF0E8" stroke="#FFF0E8" stroke-width="0.2"/>
<path d="M20.2094 11.8337C20.2094 12.6071 20.8392 13.2369 21.6126 13.2369C22.386 13.2369 23.0157 12.6071 23.0157 11.8337C23.0157 11.0603 22.386 10.4306 21.6126 10.4306C20.8392 10.4306 20.2094 11.0603 20.2094 11.8337Z" fill="#FFF0E8" stroke="#FFF0E8" stroke-width="0.2"/>
</svg>
